<svg id="Слой_1" data-name="Слой 1" xmlns="http://www.w3.org/2000/svg" xmlns:xlink="http://www.w3.org/1999/xlink" viewBox="0 0 27.45 27.45"><defs><style>.cls-1{fill:none;}.cls-2{clip-path:url(#clip-path);}.cls-3{fill:#6e7d33;}</style><clipPath id="clip-path"><rect class="cls-1" x="-0.77" y="-1.19" width="29.04" height="29.86"/></clipPath></defs><g class="cls-2"><path class="cls-3" d="M15.78,18.53a3.53,3.53,0,0,0,.7-.28,5.06,5.06,0,0,1,4.26,0v2.84a4.63,4.63,0,0,0-2.13-.47,4.63,4.63,0,0,0-2.13.47,5,5,0,0,1-4.25,0,4.62,4.62,0,0,0-2.12-.47A4.63,4.63,0,0,0,8,21.09V18.25a4.76,4.76,0,0,1,2.13-.47,4.75,4.75,0,0,1,2.12.47,3.88,3.88,0,0,0,.71.28V11a3.88,3.88,0,0,1-.71-.28,4.75,4.75,0,0,0-2.12-.47A4.76,4.76,0,0,0,8,10.69V7.86a4.76,4.76,0,0,1,2.13-.47,4.75,4.75,0,0,1,2.12.47,4.63,4.63,0,0,0,2.13.47,4.73,4.73,0,0,0,1.42-.2Z"/><path class="cls-3" d="M7.58,32.83a13.52,13.52,0,0,0-6.14-1.36A13.52,13.52,0,0,0-4.7,32.83V-5.38A13.55,13.55,0,0,1,1.44-6.75,13.65,13.65,0,0,1,7.58-5.39,13.56,13.56,0,0,0,13.73-4a13.55,13.55,0,0,0,6.14-1.37A13.62,13.62,0,0,1,26-6.75a13.55,13.55,0,0,1,6.14,1.37V32.83A13.55,13.55,0,0,0,26,31.47a13.56,13.56,0,0,0-6.15,1.36,13.52,13.52,0,0,1-6.14,1.37A13.55,13.55,0,0,1,7.58,32.83ZM3.49,23.41a12.63,12.63,0,0,1,4.09,1.23A13.55,13.55,0,0,0,13.72,26a13.56,13.56,0,0,0,6.15-1.37A12.63,12.63,0,0,1,24,23.41V1.58A12.38,12.38,0,0,0,19.87,2.8a13.56,13.56,0,0,1-6.15,1.37A13.55,13.55,0,0,1,7.58,2.8,12.38,12.38,0,0,0,3.49,1.58V23.41Z"/></g></svg>