<svg id="Слой_1" data-name="Слой 1" xmlns="http://www.w3.org/2000/svg" xmlns:xlink="http://www.w3.org/1999/xlink" viewBox="0 0 27.45 27.45"><defs><style>.cls-1{fill:none;}.cls-2{clip-path:url(#clip-path);}.cls-3{fill:#6e7d33;}.cls-4{clip-path:url(#clip-path-2);}</style><clipPath id="clip-path"><rect class="cls-1" x="-31" y="-1.19" width="29.04" height="29.86"/></clipPath><clipPath id="clip-path-2"><rect class="cls-1" x="-0.8" y="-1.21" width="29.04" height="29.86"/></clipPath></defs><g class="cls-2"><path class="cls-3" d="M-22.65,32.83a13.52,13.52,0,0,0-6.14-1.36,13.55,13.55,0,0,0-6.14,1.36V-5.38a13.55,13.55,0,0,1,6.14-1.37,13.65,13.65,0,0,1,6.14,1.36A13.56,13.56,0,0,0-16.5-4a13.55,13.55,0,0,0,6.14-1.37A13.65,13.65,0,0,1-4.22-6.75,13.55,13.55,0,0,1,1.92-5.38V32.83a13.55,13.55,0,0,0-6.14-1.36,13.52,13.52,0,0,0-6.14,1.36,13.56,13.56,0,0,1-6.15,1.37A13.55,13.55,0,0,1-22.65,32.83Zm-4.09-9.42a12.63,12.63,0,0,1,4.09,1.23A13.55,13.55,0,0,0-16.51,26a13.56,13.56,0,0,0,6.15-1.37,12.63,12.63,0,0,1,4.09-1.23V1.58A12.38,12.38,0,0,0-10.36,2.8a13.56,13.56,0,0,1-6.15,1.37A13.55,13.55,0,0,1-22.65,2.8a12.38,12.38,0,0,0-4.09-1.22V23.41Z"/></g><g class="cls-4"><path class="cls-3" d="M9.72,16.6a2.61,2.61,0,0,0,.42-.16,2.89,2.89,0,0,1,2.48,0v1.65a2.89,2.89,0,0,0-2.48,0,2.79,2.79,0,0,1-1.24.28,2.76,2.76,0,0,1-1.24-.28,2.79,2.79,0,0,0-1.24-.28,2.76,2.76,0,0,0-1.24.28V16.44a2.63,2.63,0,0,1,1.24-.28,2.66,2.66,0,0,1,1.24.28,2.9,2.9,0,0,0,.41.16V12.19A2.9,2.9,0,0,1,7.66,12a2.66,2.66,0,0,0-1.24-.28A2.63,2.63,0,0,0,5.18,12V10.37a2.76,2.76,0,0,1,1.24-.27,2.79,2.79,0,0,1,1.24.27,2.63,2.63,0,0,0,1.24.28,2.71,2.71,0,0,0,.82-.12Z"/><path class="cls-3" d="M15.1,10.37a3,3,0,0,1,2.48,0,2.89,2.89,0,0,0,2.48,0,3,3,0,0,1,2.48,0v7.72a2.89,2.89,0,0,0-2.48,0,2.89,2.89,0,0,1-2.48,0,2.89,2.89,0,0,0-2.48,0ZM17.58,12a2.51,2.51,0,0,0-.83-.25v4.41a2.29,2.29,0,0,1,.83.25,3,3,0,0,0,2.48,0,2.29,2.29,0,0,1,.83-.25V11.78a2.51,2.51,0,0,0-.83.25,3,3,0,0,1-2.48,0Z"/><path class="cls-3" d="M7.56,32.81a13.56,13.56,0,0,0-6.15-1.36,13.55,13.55,0,0,0-6.14,1.36V-5.4A13.56,13.56,0,0,1,1.42-6.77,13.55,13.55,0,0,1,7.56-5.4,13.52,13.52,0,0,0,13.7-4,13.52,13.52,0,0,0,19.84-5.4,13.55,13.55,0,0,1,26-6.77,13.52,13.52,0,0,1,32.12-5.4V32.81A13.65,13.65,0,0,0,26,31.45a13.68,13.68,0,0,0-6.14,1.36,13.55,13.55,0,0,1-6.14,1.37A13.52,13.52,0,0,1,7.56,32.81ZM3.46,23.4a12.44,12.44,0,0,1,4.1,1.22A13.52,13.52,0,0,0,13.7,26a13.55,13.55,0,0,0,6.14-1.37,12.45,12.45,0,0,1,4.09-1.22V1.56a12.23,12.23,0,0,0-4.09,1.23A13.55,13.55,0,0,1,13.7,4.15,13.52,13.52,0,0,1,7.56,2.79a12.21,12.21,0,0,0-4.1-1.23V23.4Z"/></g></svg>