<svg id="Слой_1" data-name="Слой 1" xmlns="http://www.w3.org/2000/svg" xmlns:xlink="http://www.w3.org/1999/xlink" viewBox="0 0 27.45 27.45"><defs><style>.cls-1{fill:none;}.cls-2{clip-path:url(#clip-path);}.cls-3{fill:#6e7d33;}.cls-4{clip-path:url(#clip-path-2);}</style><clipPath id="clip-path"><rect class="cls-1" x="29.6" y="-1.19" width="29.04" height="29.86"/></clipPath><clipPath id="clip-path-2"><rect class="cls-1" x="-0.77" y="-1.19" width="29.04" height="29.86"/></clipPath></defs><g class="cls-2"><path class="cls-3" d="M38,32.83a13.55,13.55,0,0,0-6.14-1.36,13.56,13.56,0,0,0-6.15,1.36V-5.38a13.56,13.56,0,0,1,6.15-1.37A13.68,13.68,0,0,1,38-5.39,13.55,13.55,0,0,0,44.09-4a13.52,13.52,0,0,0,6.14-1.37,13.68,13.68,0,0,1,6.14-1.36,13.49,13.49,0,0,1,6.14,1.37V32.83a14.54,14.54,0,0,0-12.28,0,14.44,14.44,0,0,1-12.28,0Zm-4.1-9.42A12.69,12.69,0,0,1,38,24.64a14.44,14.44,0,0,0,12.28,0,12.69,12.69,0,0,1,4.1-1.23V1.58a12.44,12.44,0,0,0-4.1,1.22,13.52,13.52,0,0,1-6.14,1.37A13.52,13.52,0,0,1,38,2.8a12.44,12.44,0,0,0-4.1-1.22V23.41Z"/></g><g class="cls-4"><path class="cls-3" d="M9.75,16.61a2.05,2.05,0,0,0,.41-.16,2.79,2.79,0,0,1,1.24-.27,2.76,2.76,0,0,1,1.24.27v1.66a2.63,2.63,0,0,0-1.24-.28,2.66,2.66,0,0,0-1.24.28,2.76,2.76,0,0,1-1.24.27,2.79,2.79,0,0,1-1.24-.27,2.63,2.63,0,0,0-1.24-.28,2.66,2.66,0,0,0-1.24.28V16.45a2.79,2.79,0,0,1,1.24-.27,2.76,2.76,0,0,1,1.24.27,2.14,2.14,0,0,0,.42.16V12.2A2.14,2.14,0,0,1,7.68,12a2.76,2.76,0,0,0-1.24-.27A2.79,2.79,0,0,0,5.2,12V10.39a2.79,2.79,0,0,1,1.24-.28,2.76,2.76,0,0,1,1.24.28,2.9,2.9,0,0,0,2.07.16Z"/><path class="cls-3" d="M19.67,16.61a2.05,2.05,0,0,0,.41-.16,3,3,0,0,1,2.49,0v1.66a2.91,2.91,0,0,0-2.49,0,2.76,2.76,0,0,1-1.24.27,2.82,2.82,0,0,1-1.24-.27,2.63,2.63,0,0,0-1.24-.28,2.69,2.69,0,0,0-1.24.28V16.45a2.82,2.82,0,0,1,1.24-.27,2.76,2.76,0,0,1,1.24.27,2.41,2.41,0,0,0,.42.16V12.2A2.41,2.41,0,0,1,17.6,12a2.76,2.76,0,0,0-1.24-.27,2.82,2.82,0,0,0-1.24.27V10.39a2.82,2.82,0,0,1,1.24-.28,2.76,2.76,0,0,1,1.24.28,2.82,2.82,0,0,0,1.24.28,2.78,2.78,0,0,0,.83-.12Z"/><path class="cls-3" d="M7.58,32.83a13.52,13.52,0,0,0-6.14-1.36A13.52,13.52,0,0,0-4.7,32.83V-5.38A13.55,13.55,0,0,1,1.44-6.75,13.65,13.65,0,0,1,7.58-5.39,13.56,13.56,0,0,0,13.73-4a13.55,13.55,0,0,0,6.14-1.37A13.62,13.62,0,0,1,26-6.75a13.55,13.55,0,0,1,6.14,1.37V32.83A13.55,13.55,0,0,0,26,31.47a13.56,13.56,0,0,0-6.15,1.36,13.52,13.52,0,0,1-6.14,1.37A13.55,13.55,0,0,1,7.58,32.83ZM3.49,23.41a12.63,12.63,0,0,1,4.09,1.23A13.55,13.55,0,0,0,13.72,26a13.56,13.56,0,0,0,6.15-1.37A12.63,12.63,0,0,1,24,23.41V1.58A12.38,12.38,0,0,0,19.87,2.8a13.56,13.56,0,0,1-6.15,1.37A13.55,13.55,0,0,1,7.58,2.8,12.38,12.38,0,0,0,3.49,1.58V23.41Z"/></g></svg>