<svg id="Слой_1" data-name="Слой 1" xmlns="http://www.w3.org/2000/svg" xmlns:xlink="http://www.w3.org/1999/xlink" viewBox="0 0 27.45 27.45"><defs><style>.cls-1{fill:none;}.cls-2{clip-path:url(#clip-path);}.cls-3{fill:#6e7d33;}.cls-4{clip-path:url(#clip-path-2);}.cls-5{clip-path:url(#clip-path-3);}</style><clipPath id="clip-path"><rect class="cls-1" x="28.36" y="-1.19" width="29.04" height="29.86"/></clipPath><clipPath id="clip-path-2"><rect class="cls-1" x="-0.77" y="-1.19" width="29.04" height="29.86"/></clipPath><clipPath id="clip-path-3"><rect class="cls-1" x="-30.82" y="-1.19" width="29.04" height="29.86"/></clipPath></defs><g class="cls-2"><path class="cls-3" d="M36.71,32.83a13.52,13.52,0,0,0-6.14-1.36,13.52,13.52,0,0,0-6.14,1.36V-5.38a13.55,13.55,0,0,1,6.14-1.37,13.65,13.65,0,0,1,6.14,1.36A13.55,13.55,0,0,0,42.85-4,13.56,13.56,0,0,0,49-5.39a14.49,14.49,0,0,1,12.28,0V32.83a14.56,14.56,0,0,0-12.29,0,14.44,14.44,0,0,1-12.28,0Zm-4.09-9.42a12.63,12.63,0,0,1,4.09,1.23,14.47,14.47,0,0,0,12.29,0,12.63,12.63,0,0,1,4.09-1.23V1.58A12.38,12.38,0,0,0,49,2.8a13.56,13.56,0,0,1-6.15,1.37A13.55,13.55,0,0,1,36.71,2.8a12.38,12.38,0,0,0-4.09-1.22V23.41Z"/></g><g class="cls-4"><path class="cls-3" d="M9.75,16.61a2.05,2.05,0,0,0,.41-.16,2.79,2.79,0,0,1,1.24-.27,2.76,2.76,0,0,1,1.24.27v1.66a2.63,2.63,0,0,0-1.24-.28,2.66,2.66,0,0,0-1.24.28,2.76,2.76,0,0,1-1.24.27,2.79,2.79,0,0,1-1.24-.27,2.63,2.63,0,0,0-1.24-.28,2.66,2.66,0,0,0-1.24.28V16.45a2.79,2.79,0,0,1,1.24-.27,2.76,2.76,0,0,1,1.24.27,2.14,2.14,0,0,0,.42.16V12.2A2.14,2.14,0,0,1,7.68,12a2.76,2.76,0,0,0-1.24-.27A2.79,2.79,0,0,0,5.2,12V10.39a2.79,2.79,0,0,1,1.24-.28,2.76,2.76,0,0,1,1.24.28,2.9,2.9,0,0,0,2.07.16Z"/><path class="cls-3" d="M15.12,13.42a2.82,2.82,0,0,1,1.24-.27,2.76,2.76,0,0,1,1.24.27,2.41,2.41,0,0,0,.42.16v-3a2.78,2.78,0,0,0,.83.12,2.82,2.82,0,0,0,1.24-.28,2.76,2.76,0,0,1,1.24-.28,2.82,2.82,0,0,1,1.24.28v7.72a2.69,2.69,0,0,0-1.24-.28,2.63,2.63,0,0,0-1.24.28,3,3,0,0,1-2.49,0,2.63,2.63,0,0,0-1.24-.28,2.69,2.69,0,0,0-1.24.28Zm1.66,2.79a2.23,2.23,0,0,1,.82.24,2.91,2.91,0,0,0,2.49,0,2.23,2.23,0,0,1,.82-.24V14.83a2.24,2.24,0,0,0-.82.25,3,3,0,0,1-2.49,0,2.24,2.24,0,0,0-.82-.25Zm4.13-3V11.8a2.44,2.44,0,0,0-.82.24,2.41,2.41,0,0,1-.42.16v1.38a2.41,2.41,0,0,0,.42-.16A2.45,2.45,0,0,1,20.91,13.17Z"/><path class="cls-3" d="M7.58,32.83a13.52,13.52,0,0,0-6.14-1.36A13.52,13.52,0,0,0-4.7,32.83V-5.38A13.55,13.55,0,0,1,1.44-6.75,13.65,13.65,0,0,1,7.58-5.39,13.56,13.56,0,0,0,13.73-4a13.55,13.55,0,0,0,6.14-1.37A13.62,13.62,0,0,1,26-6.75a13.55,13.55,0,0,1,6.14,1.37V32.83A13.55,13.55,0,0,0,26,31.47a13.56,13.56,0,0,0-6.15,1.36,13.52,13.52,0,0,1-6.14,1.37A13.55,13.55,0,0,1,7.58,32.83ZM3.49,23.41a12.63,12.63,0,0,1,4.09,1.23A13.55,13.55,0,0,0,13.72,26a13.56,13.56,0,0,0,6.15-1.37A12.63,12.63,0,0,1,24,23.41V1.58A12.38,12.38,0,0,0,19.87,2.8a13.56,13.56,0,0,1-6.15,1.37A13.55,13.55,0,0,1,7.58,2.8,12.38,12.38,0,0,0,3.49,1.58V23.41Z"/></g><g class="cls-5"><path class="cls-3" d="M-22.46,32.83a13.56,13.56,0,0,0-6.15-1.36,13.55,13.55,0,0,0-6.14,1.36V-5.38A13.56,13.56,0,0,1-28.6-6.75a13.68,13.68,0,0,1,6.14,1.36A13.52,13.52,0,0,0-16.32-4a13.55,13.55,0,0,0,6.14-1.37A13.68,13.68,0,0,1-4-6.75,13.55,13.55,0,0,1,2.1-5.38V32.83A13.52,13.52,0,0,0-4,31.47a13.52,13.52,0,0,0-6.14,1.36,13.55,13.55,0,0,1-6.14,1.37A13.52,13.52,0,0,1-22.46,32.83Zm-4.1-9.42a12.69,12.69,0,0,1,4.1,1.23A13.52,13.52,0,0,0-16.32,26a13.55,13.55,0,0,0,6.14-1.37,12.71,12.71,0,0,1,4.09-1.23V1.58A12.45,12.45,0,0,0-10.18,2.8a13.55,13.55,0,0,1-6.14,1.37A13.52,13.52,0,0,1-22.46,2.8a12.44,12.44,0,0,0-4.1-1.22V23.41Z"/></g></svg>