<?xml version="1.0" encoding="utf-8"?>
<!-- Generator: Adobe Illustrator 26.0.1, SVG Export Plug-In . SVG Version: 6.00 Build 0)  -->
<svg version="1.1" id="Слой_1" xmlns="http://www.w3.org/2000/svg" xmlns:xlink="http://www.w3.org/1999/xlink" x="0px" y="0px"
	 viewBox="0 0 27.5 27.5" style="enable-background:new 0 0 27.5 27.5;" xml:space="preserve">
<style type="text/css">
	.st0{fill:#6E7D33;}
</style>
<path class="st0" d="M15.1,17.8c0.2-0.1,0.5-0.2,0.7-0.3c1.4-0.6,2.9-0.6,4.3,0v2.8c-0.7-0.3-1.4-0.5-2.1-0.5
	c-0.7,0-1.5,0.1-2.1,0.5c-1.3,0.6-2.9,0.6-4.2,0c-0.7-0.3-1.4-0.5-2.1-0.5c-0.7,0-1.5,0.1-2.1,0.5v-2.8C8,17.2,8.7,17,9.5,17
	c0.7,0,1.5,0.2,2.1,0.5c0.2,0.1,0.5,0.2,0.7,0.3v-7.5c-0.2-0.1-0.5-0.2-0.7-0.3c-0.7-0.3-1.4-0.5-2.1-0.5C8.8,9.5,8,9.6,7.4,9.9V7.1
	C8,6.8,8.7,6.6,9.5,6.6c0.7,0,1.5,0.2,2.1,0.5c0.7,0.3,1.4,0.5,2.1,0.5c0.5,0,1-0.1,1.4-0.2L15.1,17.8z"/>
</svg>
