<svg id="Слой_1" data-name="Слой 1" xmlns="http://www.w3.org/2000/svg" xmlns:xlink="http://www.w3.org/1999/xlink" viewBox="0 0 27.45 27.45"><defs><style>.cls-1{fill:none;}.cls-2{clip-path:url(#clip-path);}.cls-3{fill:#6e7d33;}.cls-4{clip-path:url(#clip-path-2);}</style><clipPath id="clip-path"><rect class="cls-1" x="-0.77" y="-1.19" width="29.04" height="29.86"/></clipPath><clipPath id="clip-path-2"><rect class="cls-1" x="-32.65" y="-1.19" width="29.04" height="29.86"/></clipPath></defs><g class="cls-2"><path class="cls-3" d="M8.92,10.67a2.76,2.76,0,0,0,1.24-.28,2.79,2.79,0,0,1,1.24-.28,2.76,2.76,0,0,1,1.24.28v4.69a2.63,2.63,0,0,0-1.24-.28,2.66,2.66,0,0,0-1.24.28,2.76,2.76,0,0,1-1.24.27,2.79,2.79,0,0,1-1.24-.27,2.3,2.3,0,0,0-.82-.25v1.38a2.29,2.29,0,0,1,.82.24,2.66,2.66,0,0,0,1.24.28,2.63,2.63,0,0,0,1.24-.28,2.79,2.79,0,0,1,1.24-.27,2.76,2.76,0,0,1,1.24.27v1.66a2.63,2.63,0,0,0-1.24-.28,2.66,2.66,0,0,0-1.24.28,2.76,2.76,0,0,1-1.24.27,2.79,2.79,0,0,1-1.24-.27,2.63,2.63,0,0,0-1.24-.28,2.66,2.66,0,0,0-1.24.28V13.42a2.79,2.79,0,0,1,1.24-.27,2.76,2.76,0,0,1,1.24.27,2.66,2.66,0,0,0,1.24.28,2.63,2.63,0,0,0,1.24-.28,2.58,2.58,0,0,1,.83-.25V11.8a2.57,2.57,0,0,0-.83.24,2.63,2.63,0,0,1-1.24.28A2.66,2.66,0,0,1,7.68,12a2.76,2.76,0,0,0-1.24-.27A2.79,2.79,0,0,0,5.2,12V10.39a2.79,2.79,0,0,1,1.24-.28,2.76,2.76,0,0,1,1.24.28A2.79,2.79,0,0,0,8.92,10.67Z"/><path class="cls-3" d="M15.12,10.39a2.79,2.79,0,0,1,1.24-.28,2.76,2.76,0,0,1,1.24.28,2.82,2.82,0,0,0,1.24.28,2.76,2.76,0,0,0,1.24-.28,2.79,2.79,0,0,1,1.24-.28,2.83,2.83,0,0,1,1.25.28v7.72a2.7,2.7,0,0,0-1.25-.28,2.66,2.66,0,0,0-1.24.28,2.76,2.76,0,0,1-1.24.27,2.82,2.82,0,0,1-1.24-.27,2.63,2.63,0,0,0-1.24-.28,2.66,2.66,0,0,0-1.24.28ZM17.6,12a2.51,2.51,0,0,0-.82-.24v4.41a2.29,2.29,0,0,1,.82.24,2.69,2.69,0,0,0,1.24.28,2.63,2.63,0,0,0,1.24-.28,2.34,2.34,0,0,1,.83-.24V11.8a2.57,2.57,0,0,0-.83.24,2.63,2.63,0,0,1-1.24.28A2.69,2.69,0,0,1,17.6,12Z"/><path class="cls-3" d="M7.58,32.83a13.52,13.52,0,0,0-6.14-1.36A13.52,13.52,0,0,0-4.7,32.83V-5.38A13.55,13.55,0,0,1,1.44-6.75,13.65,13.65,0,0,1,7.58-5.39,13.56,13.56,0,0,0,13.73-4a13.55,13.55,0,0,0,6.14-1.37A13.62,13.62,0,0,1,26-6.75a13.55,13.55,0,0,1,6.14,1.37V32.83A13.55,13.55,0,0,0,26,31.47a13.56,13.56,0,0,0-6.15,1.36,13.52,13.52,0,0,1-6.14,1.37A13.55,13.55,0,0,1,7.58,32.83ZM3.49,23.41a12.63,12.63,0,0,1,4.09,1.23A13.55,13.55,0,0,0,13.72,26a13.56,13.56,0,0,0,6.15-1.37A12.63,12.63,0,0,1,24,23.41V1.58A12.38,12.38,0,0,0,19.87,2.8a13.56,13.56,0,0,1-6.15,1.37A13.55,13.55,0,0,1,7.58,2.8,12.38,12.38,0,0,0,3.49,1.58V23.41Z"/></g><g class="cls-4"><path class="cls-3" d="M-24.3,32.83a13.52,13.52,0,0,0-6.14-1.36,13.55,13.55,0,0,0-6.14,1.36V-5.38a13.55,13.55,0,0,1,6.14-1.37,13.69,13.69,0,0,1,6.15,1.36A13.52,13.52,0,0,0-18.15-4,13.55,13.55,0,0,0-12-5.39,13.65,13.65,0,0,1-5.87-6.75,13.55,13.55,0,0,1,.27-5.38V32.83a13.55,13.55,0,0,0-6.14-1.36A13.52,13.52,0,0,0-12,32.83a13.56,13.56,0,0,1-6.15,1.37A13.55,13.55,0,0,1-24.3,32.83Zm-4.09-9.42a12.63,12.63,0,0,1,4.09,1.23A13.56,13.56,0,0,0-18.15,26,13.55,13.55,0,0,0-12,24.64a12.63,12.63,0,0,1,4.09-1.23V1.58A12.38,12.38,0,0,0-12,2.8a13.55,13.55,0,0,1-6.14,1.37A13.56,13.56,0,0,1-24.3,2.8a12.38,12.38,0,0,0-4.09-1.22V23.41Z"/></g></svg>