<svg id="Слой_1" data-name="Слой 1" xmlns="http://www.w3.org/2000/svg" xmlns:xlink="http://www.w3.org/1999/xlink" viewBox="0 0 27.45 27.45"><defs><style>.cls-1{fill:none;}.cls-2{clip-path:url(#clip-path);}.cls-3{fill:#6e7d33;}.cls-4{clip-path:url(#clip-path-2);}.cls-5{clip-path:url(#clip-path-3);}</style><clipPath id="clip-path"><rect class="cls-1" x="30.83" y="-1.19" width="29.04" height="29.86"/></clipPath><clipPath id="clip-path-2"><rect class="cls-1" x="-0.77" y="-1.19" width="29.04" height="29.86"/></clipPath><clipPath id="clip-path-3"><rect class="cls-1" x="-31.55" y="-1.19" width="29.04" height="29.86"/></clipPath></defs><g class="cls-2"><path class="cls-3" d="M39.18,32.83A13.52,13.52,0,0,0,33,31.47a13.55,13.55,0,0,0-6.14,1.36V-5.38A13.55,13.55,0,0,1,33-6.75a13.69,13.69,0,0,1,6.15,1.36A13.52,13.52,0,0,0,45.33-4a13.55,13.55,0,0,0,6.14-1.37,13.68,13.68,0,0,1,6.14-1.36,13.55,13.55,0,0,1,6.14,1.37V32.83a14.54,14.54,0,0,0-12.28,0,14.47,14.47,0,0,1-12.29,0Zm-4.09-9.42a12.63,12.63,0,0,1,4.09,1.23,14.47,14.47,0,0,0,12.29,0,12.63,12.63,0,0,1,4.09-1.23V1.58A12.38,12.38,0,0,0,51.47,2.8a13.55,13.55,0,0,1-6.14,1.37A13.56,13.56,0,0,1,39.18,2.8a12.38,12.38,0,0,0-4.09-1.22V23.41Z"/></g><g class="cls-4"><path class="cls-3" d="M10.82,20.66a5.53,5.53,0,0,0-.71,0A4.63,4.63,0,0,0,8,21.09v-8a4.64,4.64,0,0,1,2.13-.48,4.62,4.62,0,0,1,2.12.48,5,5,0,0,0,4.25,0,4.26,4.26,0,0,1,1.42-.43V10.27a4.25,4.25,0,0,0-1.42.42,4.59,4.59,0,0,1-2.12.48,4.64,4.64,0,0,1-2.13-.48,4.75,4.75,0,0,0-2.12-.47A4.76,4.76,0,0,0,8,10.69V7.86a4.76,4.76,0,0,1,2.13-.47,4.75,4.75,0,0,1,2.12.47,4.63,4.63,0,0,0,2.13.47,4.59,4.59,0,0,0,2.12-.47,5.06,5.06,0,0,1,4.26,0v8a5.06,5.06,0,0,0-4.26,0,4.59,4.59,0,0,1-2.12.47,4.63,4.63,0,0,1-2.13-.47,4.13,4.13,0,0,0-1.41-.42Z"/><path class="cls-3" d="M7.58,32.83a13.52,13.52,0,0,0-6.14-1.36A13.52,13.52,0,0,0-4.7,32.83V-5.38A13.55,13.55,0,0,1,1.44-6.75,13.65,13.65,0,0,1,7.58-5.39,13.56,13.56,0,0,0,13.73-4a13.55,13.55,0,0,0,6.14-1.37A13.62,13.62,0,0,1,26-6.75a13.55,13.55,0,0,1,6.14,1.37V32.83A13.55,13.55,0,0,0,26,31.47a13.56,13.56,0,0,0-6.15,1.36,13.52,13.52,0,0,1-6.14,1.37A13.55,13.55,0,0,1,7.58,32.83ZM3.49,23.41a12.63,12.63,0,0,1,4.09,1.23A13.55,13.55,0,0,0,13.72,26a13.56,13.56,0,0,0,6.15-1.37A12.63,12.63,0,0,1,24,23.41V1.58A12.38,12.38,0,0,0,19.87,2.8a13.56,13.56,0,0,1-6.15,1.37A13.55,13.55,0,0,1,7.58,2.8,12.38,12.38,0,0,0,3.49,1.58V23.41Z"/></g><g class="cls-5"><path class="cls-3" d="M-23.2,32.83a13.52,13.52,0,0,0-6.14-1.36,13.55,13.55,0,0,0-6.14,1.36V-5.38a13.55,13.55,0,0,1,6.14-1.37A13.65,13.65,0,0,1-23.2-5.39,13.56,13.56,0,0,0-17-4a13.55,13.55,0,0,0,6.14-1.37A13.65,13.65,0,0,1-4.77-6.75,13.55,13.55,0,0,1,1.37-5.38V32.83a13.55,13.55,0,0,0-6.14-1.36,13.52,13.52,0,0,0-6.14,1.36,13.56,13.56,0,0,1-6.15,1.37A13.55,13.55,0,0,1-23.2,32.83Zm-4.09-9.42a12.63,12.63,0,0,1,4.09,1.23A13.56,13.56,0,0,0-17,26a13.55,13.55,0,0,0,6.14-1.37,12.63,12.63,0,0,1,4.09-1.23V1.58A12.38,12.38,0,0,0-10.91,2.8,13.55,13.55,0,0,1-17,4.17,13.56,13.56,0,0,1-23.2,2.8a12.38,12.38,0,0,0-4.09-1.22V23.41Z"/></g></svg>