<svg id="Слой_1" data-name="Слой 1" xmlns="http://www.w3.org/2000/svg" xmlns:xlink="http://www.w3.org/1999/xlink" viewBox="0 0 27.45 27.45"><defs><style>.cls-1{fill:none;}.cls-2{clip-path:url(#clip-path);}.cls-3{fill:#6e7d33;}.cls-4{clip-path:url(#clip-path-2);}.cls-5{clip-path:url(#clip-path-3);}</style><clipPath id="clip-path"><rect class="cls-1" x="-0.77" y="-1.19" width="29.04" height="29.86"/></clipPath><clipPath id="clip-path-2"><rect class="cls-1" x="-31.27" y="-1.19" width="29.04" height="29.86"/></clipPath><clipPath id="clip-path-3"><rect class="cls-1" x="29.43" y="-1.21" width="29.04" height="29.86"/></clipPath></defs><g class="cls-2"><path class="cls-3" d="M20.74,21.09a4.63,4.63,0,0,0-2.13-.47,4.59,4.59,0,0,0-2.12.47,5.06,5.06,0,0,1-4.26,0,4.62,4.62,0,0,0-2.12-.47A4.63,4.63,0,0,0,8,21.09V18.25a4.76,4.76,0,0,1,2.13-.47,4.75,4.75,0,0,1,2.12.47,4.64,4.64,0,0,0,2.13.48,4.64,4.64,0,0,0,2.13-.48,4.13,4.13,0,0,1,1.41-.42V15.47a4.13,4.13,0,0,0-1.41.42,4.63,4.63,0,0,1-2.13.47,4.63,4.63,0,0,1-2.13-.47,4.75,4.75,0,0,0-2.12-.47A4.76,4.76,0,0,0,8,15.89v-8a4.76,4.76,0,0,1,2.13-.47,4.75,4.75,0,0,1,2.12.47,4.63,4.63,0,0,0,2.13.47,4.63,4.63,0,0,0,2.13-.47,5,5,0,0,1,4.25,0ZM17.9,10.27a4.13,4.13,0,0,0-1.41.42,4.64,4.64,0,0,1-2.13.48,4.64,4.64,0,0,1-2.13-.48,4.13,4.13,0,0,0-1.41-.42v2.36a4.14,4.14,0,0,1,1.41.43,5.06,5.06,0,0,0,4.26,0,4.14,4.14,0,0,1,1.41-.43Z"/><path class="cls-3" d="M7.58,32.83a13.52,13.52,0,0,0-6.14-1.36A13.52,13.52,0,0,0-4.7,32.83V-5.38A13.55,13.55,0,0,1,1.44-6.75,13.65,13.65,0,0,1,7.58-5.39,13.56,13.56,0,0,0,13.73-4a13.55,13.55,0,0,0,6.14-1.37A13.62,13.62,0,0,1,26-6.75a13.55,13.55,0,0,1,6.14,1.37V32.83A13.55,13.55,0,0,0,26,31.47a13.56,13.56,0,0,0-6.15,1.36,13.52,13.52,0,0,1-6.14,1.37A13.55,13.55,0,0,1,7.58,32.83ZM3.49,23.41a12.63,12.63,0,0,1,4.09,1.23A13.55,13.55,0,0,0,13.72,26a13.56,13.56,0,0,0,6.15-1.37A12.63,12.63,0,0,1,24,23.41V1.58A12.38,12.38,0,0,0,19.87,2.8a13.56,13.56,0,0,1-6.15,1.37A13.55,13.55,0,0,1,7.58,2.8,12.38,12.38,0,0,0,3.49,1.58V23.41Z"/></g><g class="cls-4"><path class="cls-3" d="M-22.92,32.83a13.55,13.55,0,0,0-6.14-1.36,13.56,13.56,0,0,0-6.15,1.36V-5.38a13.56,13.56,0,0,1,6.15-1.37,13.68,13.68,0,0,1,6.14,1.36A13.55,13.55,0,0,0-16.78-4a13.52,13.52,0,0,0,6.14-1.37A13.68,13.68,0,0,1-4.5-6.75,13.49,13.49,0,0,1,1.64-5.38V32.83A13.52,13.52,0,0,0-4.5,31.47a13.55,13.55,0,0,0-6.14,1.36,13.55,13.55,0,0,1-6.14,1.37A13.52,13.52,0,0,1-22.92,32.83ZM-27,23.41a12.69,12.69,0,0,1,4.1,1.23A13.52,13.52,0,0,0-16.78,26a13.52,13.52,0,0,0,6.14-1.37,12.69,12.69,0,0,1,4.1-1.23V1.58a12.44,12.44,0,0,0-4.1,1.22,13.52,13.52,0,0,1-6.14,1.37A13.52,13.52,0,0,1-22.92,2.8,12.44,12.44,0,0,0-27,1.58V23.41Z"/></g><g class="cls-5"><path class="cls-3" d="M37.79,32.81a13.56,13.56,0,0,0-6.15-1.36,13.55,13.55,0,0,0-6.14,1.36V-5.4a13.56,13.56,0,0,1,6.15-1.37A13.55,13.55,0,0,1,37.79-5.4,13.52,13.52,0,0,0,43.93-4,13.55,13.55,0,0,0,50.07-5.4a14.44,14.44,0,0,1,12.28,0V32.81a14.54,14.54,0,0,0-12.28,0,14.44,14.44,0,0,1-12.28,0Zm-4.1-9.41a12.51,12.51,0,0,1,4.1,1.22,14.44,14.44,0,0,0,12.28,0,12.38,12.38,0,0,1,4.09-1.22V1.56a12.16,12.16,0,0,0-4.09,1.23,13.55,13.55,0,0,1-6.14,1.36,13.52,13.52,0,0,1-6.14-1.36,12.28,12.28,0,0,0-4.1-1.23V23.4Z"/></g></svg>