<svg width="50" height="50" viewBox="0 0 50 50" fill="none" xmlns="http://www.w3.org/2000/svg">
<g clip-path="url(#clip0_929_165)">
<rect x="-260.115" y="45.2192" width="400.138" height="1.42182" transform="rotate(46.6517 -260.115 45.2192)" fill="#6E7D33"/>
<rect x="-253.263" y="38.7517" width="400.138" height="1.42182" transform="rotate(46.6517 -253.263 38.7517)" fill="#6E7D33"/>
<rect x="-246.411" y="32.2842" width="400.138" height="1.42182" transform="rotate(46.6517 -246.411 32.2842)" fill="#6E7D33"/>
<rect x="-239.56" y="25.8167" width="400.138" height="1.42182" transform="rotate(46.6517 -239.56 25.8167)" fill="#6E7D33"/>
<rect x="-232.708" y="19.3494" width="400.138" height="1.42182" transform="rotate(46.6517 -232.708 19.3494)" fill="#6E7D33"/>
<rect x="-225.857" y="12.8818" width="400.138" height="1.42182" transform="rotate(46.6517 -225.857 12.8818)" fill="#6E7D33"/>
<rect x="-219.005" y="6.41431" width="400.138" height="1.42182" transform="rotate(46.6517 -219.005 6.41431)" fill="#6E7D33"/>
<rect x="-212.154" y="-0.0532227" width="400.138" height="1.42182" transform="rotate(46.6517 -212.154 -0.0532227)" fill="#6E7D33"/>
<rect x="-205.302" y="-6.52051" width="400.138" height="1.42182" transform="rotate(46.6517 -205.302 -6.52051)" fill="#6E7D33"/>
<rect x="-198.451" y="-12.988" width="400.138" height="1.42182" transform="rotate(46.6517 -198.451 -12.988)" fill="#6E7D33"/>
<rect x="-191.599" y="-19.4556" width="400.138" height="1.42182" transform="rotate(46.6517 -191.599 -19.4556)" fill="#6E7D33"/>
<rect x="-184.748" y="-25.9231" width="400.138" height="1.42182" transform="rotate(46.6517 -184.748 -25.9231)" fill="#6E7D33"/>
<rect x="-177.896" y="-32.3904" width="400.138" height="1.42182" transform="rotate(46.6517 -177.896 -32.3904)" fill="#6E7D33"/>
<rect x="-171.045" y="-38.8579" width="400.138" height="1.42182" transform="rotate(46.6517 -171.045 -38.8579)" fill="#6E7D33"/>
<rect x="-164.193" y="-45.3254" width="400.138" height="1.42182" transform="rotate(46.6517 -164.193 -45.3254)" fill="#6E7D33"/>
<rect x="-157.342" y="-51.793" width="400.138" height="1.42182" transform="rotate(46.6517 -157.342 -51.793)" fill="#6E7D33"/>
<rect x="-150.49" y="-58.2603" width="400.138" height="1.42182" transform="rotate(46.6517 -150.49 -58.2603)" fill="#6E7D33"/>
<rect x="-143.639" y="-64.7278" width="400.138" height="1.42182" transform="rotate(46.6517 -143.639 -64.7278)" fill="#6E7D33"/>
<rect x="-136.787" y="-71.1953" width="400.138" height="1.42182" transform="rotate(46.6517 -136.787 -71.1953)" fill="#6E7D33"/>
<rect x="-129.936" y="-77.6628" width="400.138" height="1.42182" transform="rotate(46.6517 -129.936 -77.6628)" fill="#6E7D33"/>
<rect x="-123.084" y="-84.1301" width="400.138" height="1.42182" transform="rotate(46.6517 -123.084 -84.1301)" fill="#6E7D33"/>
<rect x="-116.233" y="-90.5977" width="400.138" height="1.42182" transform="rotate(46.6517 -116.233 -90.5977)" fill="#6E7D33"/>
<rect x="-109.381" y="-97.0652" width="400.138" height="1.42182" transform="rotate(46.6517 -109.381 -97.0652)" fill="#6E7D33"/>
<rect x="-102.53" y="-103.533" width="400.138" height="1.42182" transform="rotate(46.6517 -102.53 -103.533)" fill="#6E7D33"/>
<rect x="-95.6781" y="-110" width="400.138" height="1.42182" transform="rotate(46.6517 -95.6781 -110)" fill="#6E7D33"/>
<rect x="-88.8267" y="-116.468" width="400.138" height="1.42182" transform="rotate(46.6517 -88.8267 -116.468)" fill="#6E7D33"/>
<rect x="-81.9751" y="-122.935" width="400.138" height="1.42182" transform="rotate(46.6517 -81.9751 -122.935)" fill="#6E7D33"/>
<rect x="-75.1235" y="-129.403" width="400.138" height="1.42182" transform="rotate(46.6517 -75.1235 -129.403)" fill="#6E7D33"/>
<rect x="-68.2721" y="-135.87" width="400.138" height="1.42182" transform="rotate(46.6517 -68.2721 -135.87)" fill="#6E7D33"/>
<rect x="-61.4205" y="-142.337" width="400.138" height="1.42182" transform="rotate(46.6517 -61.4205 -142.337)" fill="#6E7D33"/>
<rect x="-54.5691" y="-148.805" width="400.138" height="1.42182" transform="rotate(46.6517 -54.5691 -148.805)" fill="#6E7D33"/>
<rect x="-47.7175" y="-155.272" width="400.138" height="1.42182" transform="rotate(46.6517 -47.7175 -155.272)" fill="#6E7D33"/>
<rect x="-40.8661" y="-161.74" width="400.138" height="1.42182" transform="rotate(46.6517 -40.8661 -161.74)" fill="#6E7D33"/>
<rect x="-34.0145" y="-168.207" width="400.138" height="1.42182" transform="rotate(46.6517 -34.0145 -168.207)" fill="#6E7D33"/>
<rect x="-27.1631" y="-174.675" width="400.138" height="1.42182" transform="rotate(46.6517 -27.1631 -174.675)" fill="#6E7D33"/>
<rect x="-20.3115" y="-181.142" width="400.138" height="1.42182" transform="rotate(46.6517 -20.3115 -181.142)" fill="#6E7D33"/>
<rect x="-13.4601" y="-187.61" width="400.138" height="1.42182" transform="rotate(46.6517 -13.4601 -187.61)" fill="#6E7D33"/>
<rect x="-6.60852" y="-194.077" width="400.138" height="1.42182" transform="rotate(46.6517 -6.60852 -194.077)" fill="#6E7D33"/>
<rect x="0.243042" y="-200.544" width="400.138" height="1.42182" transform="rotate(46.6517 0.243042 -200.544)" fill="#6E7D33"/>
<rect x="7.09448" y="-207.012" width="400.138" height="1.42182" transform="rotate(46.6517 7.09448 -207.012)" fill="#6E7D33"/>
<rect x="13.946" y="-213.479" width="400.138" height="1.42182" transform="rotate(46.6517 13.946 -213.479)" fill="#6E7D33"/>
<rect x="20.7975" y="-219.947" width="400.138" height="1.42182" transform="rotate(46.6517 20.7975 -219.947)" fill="#6E7D33"/>
<rect x="27.649" y="-226.414" width="400.138" height="1.42182" transform="rotate(46.6517 27.649 -226.414)" fill="#6E7D33"/>
<rect x="34.5005" y="-232.882" width="400.138" height="1.42182" transform="rotate(46.6517 34.5005 -232.882)" fill="#6E7D33"/>
<rect x="41.3521" y="-239.349" width="400.138" height="1.42182" transform="rotate(46.6517 41.3521 -239.349)" fill="#6E7D33"/>
<rect x="48.2035" y="-245.817" width="400.138" height="1.42182" transform="rotate(46.6517 48.2035 -245.817)" fill="#6E7D33"/>
</g>
<defs>
<clipPath id="clip0_929_165">
<rect width="50" height="50" fill="white"/>
</clipPath>
</defs>
</svg>
