<svg width="15" height="53" viewBox="0 0 15 53" fill="none" xmlns="http://www.w3.org/2000/svg">
<path d="M7.07129 46.0812L4.04083 49.1117L3.03068 48.1015L6.06114 45.0711L3.03068 42.0406L4.04083 41.0305L7.07129 44.0609L10.1017 41.0305L11.1119 42.0406L8.08144 45.0711L11.1119 48.1015L10.1017 49.1117L7.07129 46.0812Z" fill="#22361B"/>
<path d="M9.796 6.7275L9.796 8.349C11.3945 8.188 12.7975 7.084 12.7975 4.623C12.7975 1.6905 10.348 0.5175 8.347 0.5175C6.346 0.5175 3.862 1.7595 3.862 4.5885C3.862 7.337 5.449 8.349 7.1855 8.418L7.1855 6.7965C5.6215 6.7045 5.2765 5.819 5.2765 4.646C5.2995 3.197 6.093 2.208 8.347 2.208C10.601 2.208 11.3715 3.3005 11.3715 4.6805C11.3715 5.6235 10.969 6.5895 9.796 6.7275ZM4 9.76745L4 11.3545L12.832 11.3545L12.832 9.76745L4 9.76745ZM7.0015 12.5991C5.311 12.5991 3.862 13.7146 3.862 15.6466C3.862 17.5786 5.311 18.6941 7.0015 18.6941C8.692 18.6941 10.141 17.5786 10.141 15.6466C10.141 13.7146 8.692 12.5991 7.0015 12.5991ZM9.037 15.6466C9.037 16.6011 8.416 17.0956 7.0015 17.1071C5.587 17.1186 4.966 16.6011 4.966 15.6466C4.966 14.6921 5.587 14.1861 7.0015 14.1861C8.416 14.1861 9.037 14.6921 9.037 15.6466ZM5.8975 21.035L5.8975 19.517C5.2765 19.517 3.862 19.724 3.862 22.1505C3.862 23.6225 4.6555 24.5885 5.7135 24.5885C8.4045 24.5885 7.174 21.2535 8.485 21.2535C8.8645 21.2535 9.06 21.633 9.06 21.978C9.06 22.553 8.7265 22.7945 8.278 22.7945L8.278 24.3815C8.8645 24.347 10.141 23.9905 10.141 21.9435C10.141 20.6095 9.359 19.7125 8.347 19.7125C5.817 19.7125 7.0705 23.082 5.5755 23.082C5.219 23.082 4.966 22.829 4.966 22.1735C4.966 21.2305 5.449 21.0465 5.8975 21.035ZM6.8635 31.301C8.7265 31.301 10.141 30.289 10.141 28.357C10.141 26.425 8.692 25.413 7.0015 25.413C5.311 25.413 3.862 26.3215 3.862 28.288C3.862 29.9785 4.6555 30.887 5.9665 31.1975L5.9665 29.668C5.3225 29.4955 5.012 29.093 5.012 28.3915C5.012 27.5635 5.587 27 6.8635 26.9655L6.8635 31.301ZM9.037 28.3685C9.037 29.116 8.7035 29.5415 7.864 29.7025L7.864 27.046C8.7265 27.23 9.037 27.713 9.037 28.3685Z" fill="#22361B"/>
</svg>
