<svg width="11" height="11" viewBox="0 0 11 11" fill="none" xmlns="http://www.w3.org/2000/svg">
<g clip-path="url(#clip0_1039_318)">
<path fill-rule="evenodd" clip-rule="evenodd" d="M6.35938 10.9333C8.98874 10.5207 11 8.24522 11 5.5C11 2.46243 8.53757 0 5.5 0C2.46243 0 0 2.46243 0 5.5C0 8.24522 2.01126 10.5207 4.64062 10.9333V10.9334C4.89822 10.9739 5.16126 10.9962 5.42891 10.9995C5.1611 10.9962 4.8979 10.9736 4.64062 10.9333V7.08984H3.24414V5.5H4.64062V4.28828C4.64062 2.91006 5.46133 2.14844 6.71816 2.14844C7.31973 2.14844 7.94922 2.25586 7.94922 2.25586V3.60938H7.25527C6.57207 3.60938 6.35938 4.03369 6.35938 4.46875V5.5H7.88477L7.64092 7.08984H6.35938V10.9333ZM5.59769 10.9992C5.85633 10.9946 6.11062 10.9723 6.35938 10.9333V10.9334C6.11031 10.9725 5.85617 10.9947 5.59769 10.9992Z" fill="#6E7D33"/>
</g>
<defs>
<clipPath id="clip0_1039_318">
<rect width="11" height="11" rx="5.5" fill="white"/>
</clipPath>
</defs>
</svg>
