<svg width="11" height="11" viewBox="0 0 11 11" fill="none" xmlns="http://www.w3.org/2000/svg">
<g clip-path="url(#clip0_923_143)">
<path d="M5.5 0.991266C6.96944 0.991266 7.14193 0.997817 7.72271 1.02402C8.25983 1.04803 8.55022 1.13755 8.74455 1.21397C9.00219 1.31441 9.1856 1.43231 9.37774 1.62445C9.56988 1.81659 9.68996 2 9.78822 2.25764C9.86245 2.45197 9.95416 2.74236 9.97817 3.27948C10.0044 3.86026 10.0109 4.03275 10.0109 5.50218C10.0109 6.97162 10.0044 7.1441 9.97817 7.72489C9.95416 8.26201 9.86464 8.5524 9.78822 8.74672C9.68778 9.00437 9.56988 9.18777 9.37774 9.37991C9.1856 9.57205 9.00219 9.69214 8.74455 9.79039C8.55022 9.86463 8.25983 9.95633 7.72271 9.98035C7.14193 10.0066 6.96944 10.0131 5.5 10.0131C4.03057 10.0131 3.85808 10.0066 3.2773 9.98035C2.74018 9.95633 2.44978 9.86681 2.25546 9.79039C1.99782 9.68996 1.81441 9.57205 1.62227 9.37991C1.43013 9.18777 1.31004 9.00437 1.21179 8.74672C1.13756 8.5524 1.04585 8.26201 1.02183 7.72489C0.995634 7.1441 0.989084 6.97162 0.989084 5.50218C0.989084 4.03275 0.995634 3.86026 1.02183 3.27948C1.04585 2.74236 1.13537 2.45197 1.21179 2.25764C1.31223 2 1.43013 1.81659 1.62227 1.62445C1.81441 1.43231 1.99782 1.31223 2.25546 1.21397C2.44978 1.13974 2.74018 1.04803 3.2773 1.02402C3.85808 0.995633 4.03275 0.991266 5.5 0.991266ZM5.5 0C4.00655 0 3.81878 0.00655022 3.23144 0.0327511C2.64629 0.058952 2.24673 0.152838 1.89738 0.28821C1.53494 0.427948 1.22926 0.617904 0.923581 0.923581C0.617904 1.22926 0.430131 1.53712 0.28821 1.89738C0.152839 2.24672 0.058952 2.64629 0.0327511 3.23362C0.00655022 3.81878 0 4.00655 0 5.5C0 6.99345 0.00655022 7.18122 0.0327511 7.76856C0.058952 8.35371 0.152839 8.75327 0.28821 9.1048C0.427948 9.46725 0.617904 9.77293 0.923581 10.0786C1.22926 10.3843 1.53712 10.5721 1.89738 10.714C2.24673 10.8493 2.64629 10.9432 3.23363 10.9694C3.82096 10.9956 4.00655 11.0022 5.50219 11.0022C6.99782 11.0022 7.18341 10.9956 7.77075 10.9694C8.3559 10.9432 8.75547 10.8493 9.10699 10.714C9.46944 10.5742 9.77512 10.3843 10.0808 10.0786C10.3865 9.77293 10.5742 9.46507 10.7162 9.1048C10.8515 8.75546 10.9454 8.35589 10.9716 7.76856C10.9978 7.18122 11.0044 6.99563 11.0044 5.5C11.0044 4.00437 10.9978 3.81878 10.9716 3.23144C10.9454 2.64629 10.8515 2.24672 10.7162 1.8952C10.5764 1.53275 10.3865 1.22707 10.0808 0.921397C9.77512 0.615721 9.46726 0.427948 9.10699 0.286026C8.75765 0.150655 8.35808 0.0567686 7.77075 0.0305677C7.18123 0.00655022 6.99345 0 5.5 0Z" fill="#6E7D33"/>
<path d="M5.50013 2.67676C3.94118 2.67676 2.6748 3.94095 2.6748 5.50208C2.6748 7.06322 3.939 8.32741 5.50013 8.32741C7.06127 8.32741 8.32546 7.06322 8.32546 5.50208C8.32546 3.94095 7.06127 2.67676 5.50013 2.67676ZM5.50013 7.33396C4.48703 7.33396 3.66607 6.513 3.66607 5.4999C3.66607 4.4868 4.48703 3.66584 5.50013 3.66584C6.51323 3.66584 7.33419 4.4868 7.33419 5.4999C7.33419 6.513 6.51323 7.33396 5.50013 7.33396Z" fill="#6E7D33"/>
<path d="M8.43673 3.22307C8.8009 3.22307 9.09612 2.92786 9.09612 2.56369C9.09612 2.19952 8.8009 1.9043 8.43673 1.9043C8.07256 1.9043 7.77734 2.19952 7.77734 2.56369C7.77734 2.92786 8.07256 3.22307 8.43673 3.22307Z" fill="#6E7D33"/>
</g>
<defs>
<clipPath id="clip0_923_143">
<rect width="11" height="11" fill="white"/>
</clipPath>
</defs>
</svg>
