<svg width="11" height="11" viewBox="0 0 11 11" fill="none" xmlns="http://www.w3.org/2000/svg">
<g clip-path="url(#clip0_923_142)">
<path d="M10.188 0H0.812014C0.596655 0 0.390116 0.0855514 0.237834 0.237834C0.0855514 0.390116 0 0.596655 0 0.812014V10.188C0 10.4033 0.0855514 10.6099 0.237834 10.7622C0.390116 10.9144 0.596655 11 0.812014 11H10.188C10.4033 11 10.6099 10.9144 10.7622 10.7622C10.9144 10.6099 11 10.4033 11 10.188V0.812014C11 0.596655 10.9144 0.390116 10.7622 0.237834C10.6099 0.0855514 10.4033 0 10.188 0ZM3.27861 9.37063H1.62479V4.11736H3.27861V9.37063ZM2.45056 3.38938C2.26296 3.38832 2.07988 3.33171 1.92442 3.22671C1.76896 3.1217 1.64809 2.97299 1.57707 2.79936C1.50604 2.62572 1.48805 2.43494 1.52535 2.25108C1.56265 2.06723 1.65358 1.89854 1.78665 1.76632C1.91973 1.63409 2.089 1.54425 2.27309 1.50813C2.45718 1.47201 2.64784 1.49123 2.82102 1.56337C2.9942 1.63551 3.14212 1.75733 3.24613 1.91346C3.35014 2.06958 3.40556 2.25303 3.40542 2.44063C3.40719 2.56622 3.38365 2.69089 3.33621 2.8072C3.28878 2.92351 3.21841 3.02908 3.1293 3.11761C3.0402 3.20615 2.93418 3.27584 2.81757 3.32253C2.70096 3.36922 2.57614 3.39195 2.45056 3.38938ZM9.37445 9.37521H7.72139V6.50528C7.72139 5.65889 7.3616 5.39764 6.89715 5.39764C6.40674 5.39764 5.92549 5.76736 5.92549 6.52667V9.37521H4.27167V4.12118H5.86208V4.84917H5.88347C6.04313 4.52604 6.60229 3.97375 7.45556 3.97375C8.37833 3.97375 9.37521 4.52146 9.37521 6.12563L9.37445 9.37521Z" fill="#6E7D33"/>
</g>
<defs>
<clipPath id="clip0_923_142">
<rect width="11" height="11" fill="white"/>
</clipPath>
</defs>
</svg>
