<?xml version="1.0" encoding="utf-8"?>
<!-- Generator: Adobe Illustrator 26.0.1, SVG Export Plug-In . SVG Version: 6.00 Build 0)  -->
<svg version="1.1" id="Слой_1" xmlns="http://www.w3.org/2000/svg" xmlns:xlink="http://www.w3.org/1999/xlink" x="0px" y="0px"
	 viewBox="0 0 227.4 55" style="enable-background:new 0 0 227.4 55;" xml:space="preserve">
<style type="text/css">
	.st0{fill:#6E7D33;}
	.st1{fill:#F29A2F;}
</style>
<g>
	<path class="st0" d="M34.3,190.1c-2.4,0-4.8-0.2-7-0.5s-4.1-0.8-5.8-1.6s-3-1.8-4-3.2s-1.5-3.2-1.5-5.4c0-0.2,0-0.3,0-0.5
		c0-0.1,0-0.2,0-0.3h5.5c0,0.2-0.1,0.4-0.1,0.6c0,0.2,0,0.5,0,0.8c0,1.2,0.5,2.2,1.5,3.1c1,0.8,2.5,1.4,4.4,1.8
		c1.9,0.4,4.2,0.6,6.8,0.6c1.2,0,2.4-0.1,3.5-0.2c1.2-0.1,2.3-0.3,3.3-0.5s2-0.6,2.8-1s1.4-0.9,1.9-1.5s0.7-1.3,0.7-2.1
		c0-1.1-0.4-2-1.2-2.7s-1.9-1.2-3.3-1.7c-1.4-0.4-3-0.8-4.7-1.1c-1.8-0.3-3.5-0.6-5.4-0.9c-1.8-0.3-3.6-0.6-5.3-1.1
		c-1.7-0.5-3.3-1-4.7-1.8c-1.4-0.7-2.5-1.6-3.3-2.8c-0.8-1.1-1.2-2.6-1.2-4.3c0-1.4,0.3-2.6,1-3.8c0.7-1.1,1.7-2.1,3.1-3
		s3.2-1.5,5.3-2s4.7-0.7,7.7-0.7c3.1,0,5.6,0.3,7.7,0.8c2.1,0.5,3.8,1.2,5,2.1c1.2,0.9,2.2,1.9,2.7,3c0.6,1.1,0.8,2.3,0.8,3.5v0.9
		h-5.3V164c0-0.9-0.4-1.7-1.2-2.4s-2-1.3-3.6-1.8s-3.4-0.7-5.6-0.7c-2.7,0-4.9,0.2-6.7,0.6c-1.8,0.4-3.1,0.9-4,1.6
		c-0.9,0.7-1.3,1.5-1.3,2.5s0.4,1.8,1.2,2.4c0.8,0.6,1.9,1.1,3.3,1.5s3,0.7,4.7,1c1.7,0.3,3.5,0.6,5.3,0.9s3.6,0.7,5.4,1.1
		c1.8,0.4,3.3,1,4.7,1.8s2.5,1.7,3.3,2.9s1.2,2.6,1.2,4.3c0,2.6-0.7,4.7-2.2,6.2c-1.5,1.6-3.6,2.7-6.2,3.4
		C40.8,189.7,37.7,190.1,34.3,190.1z"/>
	<path class="st0" d="M56.6,189.5l17.5-34.4h6.3l17.5,34.4h-6l-4.1-8.1H66.4l-4.1,8.1H56.6z M68.6,176.9h17l-5-10.1
		c-0.2-0.4-0.5-0.9-0.8-1.6c-0.3-0.6-0.6-1.3-0.9-2s-0.6-1.4-0.9-2s-0.5-1-0.6-1.2h-0.5c-0.3,0.7-0.7,1.5-1.1,2.4s-0.8,1.8-1.2,2.5
		c-0.4,0.8-0.7,1.4-0.9,1.9L68.6,176.9z M95.4,198.7c-0.9,0-1.8-0.2-2.7-0.5c-0.9-0.3-1.6-0.8-2.2-1.5s-0.9-1.6-0.9-2.8
		s0.3-2.1,0.8-2.9c0.5-0.8,1.2-1.5,2-2.2h3.2v0.2c-0.6,0.4-1.1,0.9-1.7,1.5s-0.8,1.4-0.8,2.3c0,0.8,0.3,1.4,0.8,2s1.3,0.8,2.5,0.8
		h3.1v2.2c-0.6,0.2-1.3,0.4-2.1,0.5S96,198.7,95.4,198.7z"/>
	<path class="st0" d="M121.9,190.1c-4.5,0-8.2-0.7-11.3-2c-3.1-1.3-5.4-3.3-6.9-6s-2.3-5.9-2.3-9.8c0-5.7,1.8-10,5.3-13.1
		s8.6-4.6,15.1-4.6c3.8,0,7.2,0.5,10.1,1.5c2.9,1,5.2,2.5,6.8,4.5s2.4,4.4,2.4,7.4h-5.4c0-2.1-0.6-3.7-1.8-5s-2.8-2.2-4.9-2.8
		c-2.1-0.6-4.6-0.9-7.4-0.9c-2.9,0-5.5,0.5-7.7,1.4s-4,2.3-5.2,4.1s-1.9,4.2-1.9,6.9v1.2c0,2.9,0.6,5.3,1.9,7.1
		c1.3,1.9,3,3.2,5.3,4.1c2.2,0.9,4.9,1.4,7.8,1.4c2.8,0,5.3-0.3,7.4-0.9c2.1-0.6,3.7-1.6,4.9-2.8c1.2-1.3,1.7-2.9,1.7-4.9h5.2
		c0,2.9-0.8,5.3-2.5,7.3c-1.6,2-3.9,3.5-6.8,4.5S125.7,190.1,121.9,190.1z"/>
	<path class="st0" d="M147.1,189.5v-2.6l26-27.1h-24.5v-4.6h33.7v2.6l-26.2,27.1h26.5v4.6H147.1z"/>
	<path class="st0" d="M191.1,189.5v-34.4h5.4v19.6l23.2-19.6h7.2L210.7,169l16.7,20.5h-7l-13.8-17.2l-10.2,8.2v9H191.1z"/>
	<path class="st0" d="M234.6,189.5v-34.4h5.4v34.4H234.6z"/>
	<path class="st0" d="M267.5,189.5v-34.4h24.3c2.2,0,4,0.5,5.6,1.4s2.8,2.2,3.7,3.8c0.9,1.6,1.3,3.4,1.3,5.5s-0.4,3.9-1.3,5.5
		s-2.1,2.9-3.7,3.8c-1.6,0.9-3.5,1.4-5.7,1.4h-18.8v13H267.5z M272.9,171.9h17.5c2.1,0,3.7-0.6,4.8-1.7c1.1-1.1,1.7-2.6,1.7-4.4
		c0-1.2-0.2-2.3-0.8-3.2c-0.5-0.9-1.2-1.6-2.2-2.1s-2.1-0.8-3.5-0.8h-17.5V171.9z"/>
	<path class="st0" d="M308.1,189.5v-26.4h3.9l0.4,5h0.3c0.2-0.8,0.7-1.6,1.3-2.5c0.6-0.9,1.4-1.6,2.5-2.2c1-0.6,2.3-0.9,3.8-0.9
		c0.6,0,1.1,0,1.7,0.1s1,0.2,1.5,0.3v4.2h-2.7c-1.5,0-2.8,0.3-3.8,0.9c-1,0.6-1.8,1.3-2.4,2.2s-1,1.9-1.2,2.9s-0.4,2.1-0.4,3v13.2
		h-4.9L308.1,189.5L308.1,189.5z"/>
	<path class="st0" d="M326.1,189.5V187l18.5-19.9h-17.1v-4h24.9v2.4l-18.7,20H353v4H326.1z"/>
	<path class="st0" d="M371.9,190.1c-3.2,0-6-0.5-8.2-1.5c-2.3-1-4-2.5-5.2-4.5c-1.2-2.1-1.8-4.6-1.8-7.7c0-3.1,0.6-5.6,1.8-7.6
		c1.2-2,2.9-3.6,5.2-4.6c2.3-1,5-1.6,8.2-1.6c3.4,0,6.2,0.5,8.3,1.6c2.2,1.1,3.8,2.5,4.9,4.4s1.6,4.1,1.6,6.6v2.4h-24.8
		c0,2.1,0.5,3.7,1.4,5c0.9,1.2,2.1,2.1,3.6,2.7c1.5,0.5,3.3,0.8,5.3,0.8c1.3,0,2.5-0.2,3.6-0.5s2-0.7,2.9-1.2c0.8-0.5,1.5-1.1,2-1.8
		s0.8-1.3,0.9-2h4.9c0,1.1-0.3,2.3-0.9,3.4c-0.6,1.1-1.4,2.2-2.6,3.1c-1.2,0.9-2.7,1.7-4.5,2.2C376.5,189.8,374.3,190.1,371.9,190.1
		z M361.8,174.1h19.7c0-1.4-0.3-2.6-0.8-3.6s-1.3-1.7-2.2-2.3c-0.9-0.6-2-1-3.1-1.3c-1.2-0.3-2.4-0.4-3.7-0.4
		c-1.8,0-3.4,0.3-4.9,0.8s-2.6,1.4-3.5,2.5C362.4,170.9,361.9,172.3,361.8,174.1z"/>
	<path class="st0" d="M393.3,189.5v-26.4h3.9l0.4,5h0.3c0.2-0.8,0.7-1.6,1.3-2.5c0.6-0.9,1.4-1.6,2.5-2.2c1-0.6,2.3-0.9,3.8-0.9
		c0.6,0,1.1,0,1.7,0.1s1,0.2,1.5,0.3v4.2H406c-1.5,0-2.8,0.3-3.8,0.9c-1,0.6-1.8,1.3-2.4,2.2s-1,1.9-1.2,2.9s-0.4,2.1-0.4,3v13.2
		h-4.9L393.3,189.5L393.3,189.5z"/>
	<path class="st0" d="M426.8,190.1c-3.3,0-6-0.5-8.2-1.6c-2.2-1-3.9-2.6-5.1-4.6s-1.8-4.6-1.8-7.6s0.6-5.6,1.8-7.6s2.9-3.6,5.1-4.6
		s5-1.6,8.2-1.6s6,0.5,8.2,1.6c2.2,1,4,2.6,5.1,4.6s1.8,4.6,1.8,7.6s-0.6,5.6-1.8,7.6c-1.2,2.1-2.9,3.6-5.1,4.6
		S430,190.1,426.8,190.1z M426.8,186.1c2,0,3.7-0.3,5.2-1s2.7-1.7,3.5-3c0.8-1.4,1.2-3.2,1.2-5.3v-1c0-2.2-0.4-3.9-1.2-5.3
		c-0.8-1.4-2-2.4-3.5-3s-3.2-1-5.2-1s-3.7,0.3-5.2,1s-2.7,1.7-3.5,3c-0.8,1.4-1.2,3.1-1.2,5.3v1c0,2.2,0.4,3.9,1.2,5.3
		c0.8,1.4,2,2.4,3.5,3S424.8,186.1,426.8,186.1z M422,159.9l5.8-6.7h6.2v0.2l-7.6,6.4H422V159.9z"/>
	<path class="st0" d="M463.6,190.1c-2.2,0-4.2-0.4-6-1.2c-1.7-0.8-3.2-2-4.4-3.7h-0.3l-0.5,4.2h-3.9v-36.2h4.9v13.5h0.3
		c0.8-0.9,1.7-1.7,2.7-2.3s2.2-1.1,3.5-1.4c1.3-0.3,2.6-0.5,4.1-0.5c2.7,0,5,0.5,6.9,1.6c1.9,1,3.4,2.6,4.4,4.6s1.6,4.6,1.6,7.6
		s-0.5,5.6-1.6,7.6c-1,2-2.6,3.6-4.5,4.6C468.8,189.6,466.4,190.1,463.6,190.1z M462.7,185.9c1.8,0,3.4-0.3,4.8-0.9
		c1.4-0.6,2.4-1.6,3.2-3c0.8-1.4,1.1-3.1,1.1-5.2v-0.9c0-2.1-0.4-3.9-1.1-5.2c-0.8-1.3-1.8-2.3-3.1-3s-2.9-1-4.7-1
		c-1.4,0-2.7,0.2-3.8,0.5c-1.1,0.4-2.1,0.9-3,1.7s-1.5,1.7-2,2.9s-0.7,2.5-0.7,4.1v0.7c0,2.1,0.4,3.9,1.2,5.2s1.9,2.3,3.3,3
		C459.3,185.5,460.9,185.9,462.7,185.9z"/>
	<path class="st0" d="M483.6,189.5v-36.2h4.9v23.3l15.5-13.5h6.3l-11.5,10.4l12,16h-6l-9.7-13l-6.6,5.3v7.8h-4.9V189.5z"/>
	<path class="st0" d="M524,190.1c-1.5,0-2.8-0.1-4.2-0.4c-1.3-0.2-2.4-0.7-3.4-1.2c-1-0.6-1.8-1.4-2.3-2.3c-0.5-0.9-0.8-2.1-0.8-3.5
		c0-2.2,0.6-3.8,1.8-5s2.9-2,5-2.6c2.1-0.5,4.6-0.9,7.5-1c2.8-0.1,5.9-0.2,9.2-0.2v-1.5c0-1.5-0.3-2.7-0.8-3.5
		c-0.6-0.9-1.5-1.5-2.8-1.8c-1.3-0.4-3.1-0.5-5.3-0.5c-1.9,0-3.5,0.2-4.7,0.5s-2.2,0.8-2.8,1.3c-0.6,0.6-1,1.2-1,1.9v0.9h-4.8
		c0-0.1-0.1-0.3-0.1-0.4c0-0.1,0-0.3,0-0.5c0-1.6,0.5-3,1.6-4.1s2.6-2,4.7-2.6c2.1-0.6,4.6-0.9,7.8-0.9c2.9,0,5.4,0.3,7.3,0.9
		c2,0.6,3.5,1.5,4.5,2.8s1.5,3.1,1.5,5.4v12.6c0,0.7,0.1,1.2,0.3,1.5s0.7,0.5,1.4,0.5h2.5v3.2c-0.5,0.2-1.1,0.3-1.9,0.5
		s-1.5,0.2-2.2,0.2c-1.3,0-2.3-0.2-3-0.6s-1.1-1-1.4-1.7c-0.2-0.7-0.4-1.5-0.5-2.3h-0.3c-0.9,1-2.1,1.8-3.4,2.5
		c-1.3,0.7-2.8,1.2-4.4,1.6C527.2,189.9,525.6,190.1,524,190.1z M525,186.1c1.3,0,2.7-0.2,4.1-0.5c1.4-0.3,2.7-0.8,3.8-1.4
		c1.2-0.6,2.1-1.3,2.8-2.2c0.7-0.8,1.1-1.8,1.1-2.8v-2.1c-4.1,0-7.6,0.1-10.3,0.4s-4.8,0.7-6.2,1.5c-1.4,0.7-2,1.9-2,3.4
		c0,1,0.3,1.7,1,2.2s1.5,0.9,2.6,1.1C522.8,186,523.9,186.1,525,186.1z"/>
</g>
<text transform="matrix(1 0 0 1 12.7516 291.4319)" class="st0" style="font-family:'ArchivoExpanded-Regular'; font-size:50px;">SĄCZKI Przeróbka </text>
<path class="st0" d="M76.2,85.6c-0.5-0.1-1-0.3-1.5-0.6c-1.3-0.7-2.8-1-4.4-1s-3.1,0.3-4.4,1v-5.8c1.3-0.7,2.8-1,4.4-1
	s3.1,0.3,4.4,1s2.8,1,4.4,1s3.1-0.3,4.4-1s2.8-1,4.4-1s3.1,0.3,4.4,1v5.9c-1.3-0.7-2.8-1-4.4-1s-3.1,0.3-4.4,1
	c-0.5,0.2-1,0.4-1.5,0.6v15.5c0.5-0.1,1-0.3,1.5-0.6c1.3-0.7,2.8-1,4.4-1s3.1,0.3,4.4,1v5.9c-1.3-0.7-2.8-1-4.4-1s-3.1,0.3-4.4,1
	s-2.8,1-4.4,1s-3.1-0.3-4.4-1s-2.8-1-4.4-1s-3.1,0.3-4.4,1v-5.9c1.3-0.7,2.8-1,4.4-1s3.1,0.3,4.4,1c0.5,0.2,1,0.4,1.5,0.6V85.6z"/>
<text transform="matrix(1 0 0 1 12.7513 235.0822)" class="st0" style="font-family:'ZdykAquarius'; font-size:40px;">SACZKI PrzerObka </text>
<path class="st0" d="M420.4,85.7c-0.5-0.1-1-0.3-1.5-0.6c-1.3-0.7-2.8-1-4.4-1s-3.1,0.3-4.4,1v-5.9c1.3-0.7,2.8-1,4.4-1
	s3.1,0.3,4.4,1c1.3,0.7,2.8,1,4.4,1s3.1-0.3,4.4-1c1.3-0.7,2.8-1,4.4-1s3.1,0.3,4.4,1v5.9c-1.3-0.7-2.8-1-4.4-1s-3.1,0.3-4.4,1
	c-0.5,0.2-1,0.4-1.5,0.6v15.6c0.5-0.1,1-0.3,1.5-0.6c1.3-0.7,2.8-1,4.4-1s3.1,0.3,4.4,1v5.9c-1.3-0.7-2.8-1-4.4-1s-3.1,0.3-4.4,1
	c-1.3,0.7-2.8,1-4.4,1s-3.1-0.3-4.4-1c-1.3-0.7-2.8-1-4.4-1s-3.1,0.3-4.4,1v-5.9c1.3-0.7,2.8-1,4.4-1s3.1,0.3,4.4,1
	c0.5,0.2,1,0.4,1.5,0.6V85.7z"/>
<path class="st0" d="M30.3,15.7c1.3-0.7,2.8-1,4.4-1s3.1,0.3,4.4,1v5.9c-1.3-0.7-2.8-1-4.4-1s-3.1,0.3-4.4,1c-1.3,0.7-2.8,1-4.4,1
	s-3.1-0.3-4.4-1c-0.9-0.5-1.9-0.7-2.9-0.9v4.9c1.1,0.1,2,0.4,2.9,0.9c1.3,0.7,2.8,1,4.4,1s3.1-0.3,4.4-1s2.8-1,4.4-1s3.1,0.3,4.4,1
	V43c-1.3-0.7-2.8-1-4.4-1s-3.1,0.3-4.4,1c-1.3,0.7-2.8,1-4.4,1s-3.1-0.3-4.4-1s-2.8-1-4.4-1s-3.1,0.3-4.4,1v-5.9
	c1.3-0.7,2.8-1,4.4-1s3.1,0.3,4.4,1s2.8,1,4.4,1s3.1-0.3,4.4-1c0.9-0.5,1.9-0.7,2.9-0.9v-4.9c-1.1,0.1-2,0.4-2.9,0.9
	c-1.3,0.7-2.8,1-4.4,1s-3.1-0.3-4.4-1s-2.8-1-4.4-1s-3.1,0.3-4.4,1V15.7c1.3-0.7,2.8-1,4.4-1s3.1,0.3,4.4,1s2.8,1,4.4,1
	S29,16.3,30.3,15.7z"/>
<path class="st0" d="M53.7,42.1c-0.5-0.1-1-0.1-1.5-0.1c-1.6,0-3.1,0.3-4.4,1V15.7c1.3-0.7,2.8-1,4.4-1s3.1,0.3,4.4,1
	c1.3,0.7,2.8,1,4.4,1s3.1-0.3,4.4-1c1.3-0.7,2.8-1,4.4-1s3.1,0.3,4.4,1V43c-1.3-0.7-2.8-1-4.4-1c-0.5,0-1,0-1.5,0.1V31.4
	c-1.1,0.1-2,0.4-2.9,0.9c-1.3,0.7-2.8,1-4.4,1s-3.1-0.3-4.4-1c-0.9-0.5-1.9-0.7-2.9-0.9C53.7,31.4,53.7,42.1,53.7,42.1z M68.4,25.5
	v-4.9c-1.1,0.1-2,0.4-2.9,0.9c-1.3,0.7-2.8,1-4.4,1s-3.1-0.3-4.4-1c-0.9-0.5-1.9-0.7-2.9-0.9v4.9c1.1,0.1,2,0.4,2.9,0.9
	c1.3,0.7,2.8,1,4.4,1c1.6,0,3.1-0.3,4.4-1C66.3,26,67.3,25.7,68.4,25.5z"/>
<path class="st0" d="M100.6,15.7c1.3-0.7,2.8-1,4.4-1s3.1,0.3,4.4,1v5.9c-1.3-0.7-2.8-1-4.4-1s-3.1,0.3-4.4,1s-2.8,1-4.4,1
	s-3.1-0.3-4.4-1c-0.9-0.5-1.9-0.8-2.9-0.9v15.6c1.1,0.1,2,0.4,2.9,0.9c1.3,0.7,2.8,1,4.4,1s3.1-0.3,4.4-1s2.8-1,4.4-1s3.1,0.3,4.4,1
	V43c-1.3-0.7-2.8-1-4.4-1s-3.1,0.3-4.4,1s-2.8,1-4.4,1s-3.1-0.3-4.4-1s-2.8-1-4.4-1s-3.1,0.3-4.4,1V15.7c1.3-0.7,2.8-1,4.4-1
	s3.1,0.3,4.4,1s2.8,1,4.4,1S99.3,16.3,100.6,15.7z"/>
<path class="st0" d="M131.4,16.7c1.6,0,3.1-0.3,4.4-1c1.3-0.7,2.8-1,4.4-1s3.1,0.3,4.4,1v16.6c-1.3-0.7-2.8-1-4.4-1s-3.1,0.3-4.4,1
	c-1.3,0.7-2.8,1-4.4,1s-3.1-0.3-4.4-1c-0.9-0.5-1.9-0.7-2.9-0.9v4.9c1.1,0.1,2,0.4,2.9,0.9c1.3,0.7,2.8,1,4.4,1s3.1-0.3,4.4-1
	c1.3-0.7,2.8-1,4.4-1s3.1,0.3,4.4,1V43c-1.3-0.7-2.8-1-4.4-1s-3.1,0.3-4.4,1c-1.3,0.7-2.8,1-4.4,1s-3.1-0.3-4.4-1
	c-1.3-0.7-2.8-1-4.4-1s-3.1,0.3-4.4,1V26.4c1.3-0.7,2.8-1,4.4-1s3.1,0.3,4.4,1s2.8,1,4.4,1s3.1-0.3,4.4-1c0.9-0.5,1.9-0.7,2.9-0.9
	v-4.9c-1.1,0.1-2,0.4-2.9,0.9c-1.3,0.7-2.8,1-4.4,1s-3.1-0.3-4.4-1c-1.3-0.7-2.8-1-4.4-1s-3.1,0.3-4.4,1v-5.9c1.3-0.7,2.8-1,4.4-1
	s3.1,0.3,4.4,1C128.3,16.3,129.7,16.7,131.4,16.7z"/>
<path class="st0" d="M163.6,16.2c0.9,0.3,1.9,0.4,2.9,0.4s2-0.1,2.9-0.4V27c0.5-0.1,1-0.3,1.5-0.6c1.3-0.7,2.8-1,4.4-1
	s3.1,0.3,4.4,1V43c-1.3-0.7-2.8-1-4.4-1c-0.5,0-1,0-1.5,0.1V31.4c-1.1,0.1-2,0.4-2.9,0.9c-1.3,0.7-2.8,1-4.4,1s-3.1-0.3-4.4-1
	c-0.9-0.5-1.9-0.7-2.9-0.9v10.7c-0.5-0.1-1-0.1-1.5-0.1c-1.6,0-3.1,0.3-4.4,1V15.7c1.3-0.7,2.8-1,4.4-1c0.5,0,1,0,1.5,0.1v10.7
	c1.1,0.1,2,0.4,2.9,0.9c0.5,0.2,1,0.4,1.5,0.6V16.2z"/>
<path class="st0" d="M198.7,22.1c-0.5-0.1-1-0.3-1.5-0.6c-1.3-0.7-2.8-1-4.4-1s-3.1,0.3-4.4,1v-5.9c1.3-0.7,2.8-1,4.4-1
	s3.1,0.3,4.4,1c1.3,0.7,2.8,1,4.4,1s3.1-0.3,4.4-1c1.3-0.7,2.8-1,4.4-1s3.1,0.3,4.4,1v5.9c-1.3-0.7-2.8-1-4.4-1s-3.1,0.3-4.4,1
	c-0.5,0.2-1,0.4-1.5,0.6v15.6c0.5-0.1,1-0.3,1.5-0.6c1.3-0.7,2.8-1,4.4-1s3.1,0.3,4.4,1V43c-1.3-0.7-2.8-1-4.4-1s-3.1,0.3-4.4,1
	c-1.3,0.7-2.8,1-4.4,1s-3.1-0.3-4.4-1c-1.3-0.7-2.8-1-4.4-1s-3.1,0.3-4.4,1v-5.9c1.3-0.7,2.8-1,4.4-1s3.1,0.3,4.4,1
	c0.5,0.2,1,0.4,1.5,0.6V22.1z"/>
<path class="st1" d="M87.3,44.9c-1.4,0-2.7,0.3-3.8,1c-1.1,0.7-2.4,1-3.8,1c-0.7,0-0.8-0.1-3.8-1c-3.1-0.9-3.7-1.1-4.5-1.2
	c-1.3-0.1-2.4-0.1-3,0c0,1.9,0,3.8,0,5.7c1.5,0,2.8,0.1,3.8,0.3c1.5,0.2,2.5,0.5,3.8,1c0.5,0.2,1,0.4,1.3,0.6
	c0.6,0.2,1.5,0.5,2.6,0.5c1,0,1.8-0.2,2.4-0.4c0.4-0.2,0.9-0.4,1.3-0.6c1.1-0.7,2.4-1,3.8-1s2.7,0.3,3.8,1v-5.9
	C90,45.2,88.7,44.9,87.3,44.9z"/>
<g>
	<g>
		<path class="st0" d="M30.3-60.1c1.3-0.7,2.8-1,4.4-1s3.1,0.3,4.4,1v5.9c-1.3-0.7-2.8-1-4.4-1s-3.1,0.3-4.4,1c-1.3,0.7-2.8,1-4.4,1
			s-3.1-0.3-4.4-1c-0.9-0.5-1.9-0.7-2.9-0.9v4.9c1.1,0.1,2,0.4,2.9,0.9c1.3,0.7,2.8,1,4.4,1s3.1-0.3,4.4-1s2.8-1,4.4-1
			s3.1,0.3,4.4,1v16.5c-1.3-0.7-2.8-1-4.4-1s-3.1,0.3-4.4,1c-1.3,0.7-2.8,1-4.4,1s-3.1-0.3-4.4-1s-2.8-1-4.4-1s-3.1,0.3-4.4,1v-5.9
			c1.3-0.7,2.8-1,4.4-1s3.1,0.3,4.4,1s2.8,1,4.4,1s3.1-0.3,4.4-1c0.9-0.5,1.9-0.7,2.9-0.9v-4.9c-1.1,0.1-2,0.4-2.9,0.9
			c-1.3,0.7-2.8,1-4.4,1s-3.1-0.3-4.4-1s-2.8-1-4.4-1s-3.1,0.3-4.4,1v-16.5c1.3-0.7,2.8-1,4.4-1s3.1,0.3,4.4,1c1.3,0.7,2.8,1,4.4,1
			S29-59.5,30.3-60.1z"/>
		<path class="st0" d="M53.7-33.7c-0.5-0.1-1-0.1-1.5-0.1c-1.6,0-3.1,0.3-4.4,1v-27.3c1.3-0.7,2.8-1,4.4-1s3.1,0.3,4.4,1
			c1.3,0.7,2.8,1,4.4,1s3.1-0.3,4.4-1s2.8-1,4.4-1s3.1,0.3,4.4,1v27.3c-1.3-0.7-2.8-1-4.4-1c-0.5,0-1,0-1.5,0.1v-10.7
			c-1.1,0.1-2,0.4-2.9,0.9c-1.3,0.7-2.8,1-4.4,1s-3.1-0.3-4.4-1c-0.9-0.5-1.9-0.7-2.9-0.9C53.7-44.4,53.7-33.7,53.7-33.7z
			 M68.4-50.3v-4.9c-1.1,0.1-2,0.4-2.9,0.9c-1.3,0.7-2.8,1-4.4,1s-3.1-0.3-4.4-1c-0.9-0.5-1.9-0.7-2.9-0.9v4.9
			c1.1,0.1,2,0.4,2.9,0.9c1.3,0.7,2.8,1,4.4,1c1.6,0,3.1-0.3,4.4-1C66.3-49.8,67.3-50.1,68.4-50.3z"/>
		<path class="st0" d="M100.6-60.1c1.3-0.7,2.8-1,4.4-1s3.1,0.3,4.4,1v5.9c-1.3-0.7-2.8-1-4.4-1s-3.1,0.3-4.4,1s-2.8,1-4.4,1
			s-3.1-0.3-4.4-1c-0.9-0.5-1.9-0.8-2.9-0.9v15.6c1.1,0.1,2,0.4,2.9,0.9c1.3,0.7,2.8,1,4.4,1s3.1-0.3,4.4-1s2.8-1,4.4-1
			s3.1,0.3,4.4,1v5.8c-1.3-0.7-2.8-1-4.4-1s-3.1,0.3-4.4,1s-2.8,1-4.4,1s-3.1-0.3-4.4-1s-2.8-1-4.4-1s-3.1,0.3-4.4,1v-27.3
			c1.3-0.7,2.8-1,4.4-1s3.1,0.3,4.4,1c1.3,0.7,2.8,1,4.4,1S99.3-59.5,100.6-60.1z"/>
		<path class="st0" d="M131.4-59.1c1.6,0,3.1-0.3,4.4-1c1.3-0.7,2.8-1,4.4-1s3.1,0.3,4.4,1v16.6c-1.3-0.7-2.8-1-4.4-1
			s-3.1,0.3-4.4,1c-1.3,0.7-2.8,1-4.4,1s-3.1-0.3-4.4-1c-0.9-0.5-1.9-0.7-2.9-0.9v4.9c1.1,0.1,2,0.4,2.9,0.9c1.3,0.7,2.8,1,4.4,1
			s3.1-0.3,4.4-1c1.3-0.7,2.8-1,4.4-1s3.1,0.3,4.4,1v5.8c-1.3-0.7-2.8-1-4.4-1s-3.1,0.3-4.4,1c-1.3,0.7-2.8,1-4.4,1s-3.1-0.3-4.4-1
			c-1.3-0.7-2.8-1-4.4-1s-3.1,0.3-4.4,1v-16.6c1.3-0.7,2.8-1,4.4-1s3.1,0.3,4.4,1s2.8,1,4.4,1s3.1-0.3,4.4-1
			c0.9-0.5,1.9-0.7,2.9-0.9v-4.9c-1.1,0.1-2,0.4-2.9,0.9c-1.3,0.7-2.8,1-4.4,1s-3.1-0.3-4.4-1c-1.3-0.7-2.8-1-4.4-1s-3.1,0.3-4.4,1
			v-5.9c1.3-0.7,2.8-1,4.4-1s3.1,0.3,4.4,1C128.3-59.5,129.7-59.1,131.4-59.1z"/>
		<path class="st0" d="M163.6-59.6c0.9,0.3,1.9,0.4,2.9,0.4s2-0.1,2.9-0.4v10.8c0.5-0.1,1-0.3,1.5-0.6c1.3-0.7,2.8-1,4.4-1
			s3.1,0.3,4.4,1v16.6c-1.3-0.7-2.8-1-4.4-1c-0.5,0-1,0-1.5,0.1v-10.7c-1.1,0.1-2,0.4-2.9,0.9c-1.3,0.7-2.8,1-4.4,1s-3.1-0.3-4.4-1
			c-0.9-0.5-1.9-0.7-2.9-0.9v10.7c-0.5-0.1-1-0.1-1.5-0.1c-1.6,0-3.1,0.3-4.4,1v-27.3c1.3-0.7,2.8-1,4.4-1c0.5,0,1,0,1.5,0.1v10.7
			c1.1,0.1,2,0.4,2.9,0.9c0.5,0.2,1,0.4,1.5,0.6V-59.6z"/>
		<path class="st0" d="M198.7-53.7c-0.5-0.1-1-0.3-1.5-0.6c-1.3-0.7-2.8-1-4.4-1s-3.1,0.3-4.4,1v-5.9c1.3-0.7,2.8-1,4.4-1
			s3.1,0.3,4.4,1c1.3,0.7,2.8,1,4.4,1s3.1-0.3,4.4-1c1.3-0.7,2.8-1,4.4-1s3.1,0.3,4.4,1v5.9c-1.3-0.7-2.8-1-4.4-1s-3.1,0.3-4.4,1
			c-0.5,0.2-1,0.4-1.5,0.6v15.6c0.5-0.1,1-0.3,1.5-0.6c1.3-0.7,2.8-1,4.4-1s3.1,0.3,4.4,1v5.9c-1.3-0.7-2.8-1-4.4-1s-3.1,0.3-4.4,1
			c-1.3,0.7-2.8,1-4.4,1s-3.1-0.3-4.4-1c-1.3-0.7-2.8-1-4.4-1s-3.1,0.3-4.4,1v-5.9c1.3-0.7,2.8-1,4.4-1s3.1,0.3,4.4,1
			c0.5,0.2,1,0.4,1.5,0.6V-53.7z"/>
		<path class="st0" d="M233.6-60.1c1.3-0.7,2.8-1,4.4-1s3.1,0.3,4.4,1c1.3,0.7,2.8,1,4.4,1s3.1-0.3,4.4-1c1.3-0.7,2.8-1,4.4-1
			s3.1,0.3,4.4,1v16.6c-1.3-0.7-2.8-1-4.4-1s-3.1,0.3-4.4,1c-1.3,0.7-2.8,1-4.4,1s-3.1-0.3-4.4-1c-0.9-0.5-1.9-0.7-2.9-0.9v10.7
			c-0.5-0.1-1-0.1-1.5-0.1c-1.6,0-3.1,0.3-4.4,1L233.6-60.1L233.6-60.1z M242.4-54.3c-0.9-0.5-1.9-0.7-2.9-0.9v4.9
			c1.1,0.1,2,0.4,2.9,0.9c1.3,0.7,2.8,1,4.4,1s3.1-0.3,4.4-1c0.9-0.5,1.9-0.7,2.9-0.9v-4.9c-1.1,0.1-2,0.4-2.9,0.9
			c-1.3,0.7-2.8,1-4.4,1S243.7-53.6,242.4-54.3z"/>
		<path class="st0" d="M268.7-60.1c1.3-0.7,2.8-1,4.4-1s3.1,0.3,4.4,1c1.3,0.7,2.8,1,4.4,1c1,0,2-0.1,2.9-0.4v10.7
			c0.5-0.1,1-0.3,1.5-0.6c1.3-0.7,2.8-1,4.4-1s3.1,0.3,4.4,1v16.6c-1.3-0.7-2.8-1-4.4-1c-0.5,0-1,0-1.5,0.1v-10.7
			c-1.1,0.1-2,0.4-2.9,0.9c-1.3,0.7-2.8,1-4.4,1s-3.1-0.3-4.4-1c-0.9-0.5-1.9-0.7-2.9-0.9v10.7c-0.5-0.1-1-0.1-1.5-0.1
			c-1.6,0-3.1,0.3-4.4,1V-60.1z M274.6-55.1v4.9c1.1,0.1,2,0.4,2.9,0.9c0.5,0.2,1,0.4,1.5,0.6v-4.9c-0.5-0.1-1-0.3-1.5-0.6
			C276.6-54.7,275.6-55,274.6-55.1z"/>
		<path class="st0" d="M317.1-59.1c1.6,0,3.1-0.3,4.4-1s2.8-1,4.4-1s3.1,0.3,4.4,1v16.6c-1.3-0.7-2.8-1-4.4-1s-3.1,0.3-4.4,1
			s-2.8,1-4.4,1s-3.1-0.3-4.4-1c-0.9-0.5-1.9-0.7-2.9-0.9v4.9c1.1,0.1,2,0.4,2.9,0.9c1.3,0.7,2.8,1,4.4,1s3.1-0.3,4.4-1s2.8-1,4.4-1
			s3.1,0.3,4.4,1v5.8c-1.3-0.7-2.8-1-4.4-1s-3.1,0.3-4.4,1s-2.8,1-4.4,1s-3.1-0.3-4.4-1s-2.8-1-4.4-1s-3.1,0.3-4.4,1v-16.6
			c1.3-0.7,2.8-1,4.4-1s3.1,0.3,4.4,1s2.8,1,4.4,1s3.1-0.3,4.4-1c0.9-0.5,1.9-0.7,2.9-0.9v-4.9c-1.1,0.1-2,0.4-2.9,0.9
			c-1.3,0.7-2.8,1-4.4,1s-3.1-0.3-4.4-1s-2.8-1-4.4-1s-3.1,0.3-4.4,1v-5.9c1.3-0.7,2.8-1,4.4-1s3.1,0.3,4.4,1
			C314-59.5,315.4-59.1,317.1-59.1z"/>
		<path class="st0" d="M356.6-60.1c1.3-0.7,2.8-1,4.4-1s3.1,0.3,4.4,1v5.9c-1.3-0.7-2.8-1-4.4-1s-3.1,0.3-4.4,1s-2.8,1-4.4,1
			s-3.1-0.3-4.4-1c-0.9-0.5-1.9-0.7-2.9-0.9v4.9c1.1,0.1,2,0.4,2.9,0.9c1.3,0.7,2.8,1,4.4,1s3.1-0.3,4.4-1s2.8-1,4.4-1
			s3.1,0.3,4.4,1v5.9c-1.3-0.7-2.8-1-4.4-1s-3.1,0.3-4.4,1s-2.8,1-4.4,1s-3.1-0.3-4.4-1c-0.9-0.5-1.9-0.7-2.9-0.9v4.9
			c1.1,0.1,2,0.4,2.9,0.9c1.3,0.7,2.8,1,4.4,1s3.1-0.3,4.4-1s2.8-1,4.4-1s3.1,0.3,4.4,1v5.7c-1.3-0.7-2.8-1-4.4-1s-3.1,0.3-4.4,1
			s-2.8,1-4.4,1s-3.1-0.3-4.4-1s-2.8-1-4.4-1s-3.1,0.3-4.4,1v-27.3c1.3-0.7,2.8-1,4.4-1s3.1,0.3,4.4,1c1.3,0.7,2.8,1,4.4,1
			S355.3-59.5,356.6-60.1z"/>
		<path class="st0" d="M374.2-60.1c1.3-0.7,2.8-1,4.4-1s3.1,0.3,4.4,1c1.3,0.7,2.8,1,4.4,1c1,0,2-0.1,2.9-0.4v10.7
			c0.5-0.1,1-0.3,1.5-0.6c1.3-0.7,2.8-1,4.4-1s3.1,0.3,4.4,1v16.6c-1.3-0.7-2.8-1-4.4-1c-0.5,0-1,0-1.5,0.1v-10.7
			c-1.1,0.1-2,0.4-2.9,0.9c-1.3,0.7-2.8,1-4.4,1s-3.1-0.3-4.4-1c-0.9-0.5-1.9-0.7-2.9-0.9v10.7c-0.5-0.1-1-0.1-1.5-0.1
			c-1.6,0-3.1,0.3-4.4,1V-60.1z M380-55.1v4.9c1.1,0.1,2,0.4,2.9,0.9c0.5,0.2,1,0.4,1.5,0.6v-4.9c-0.5-0.1-1-0.3-1.5-0.6
			C382.1-54.7,381.1-55,380-55.1z"/>
		<path class="st0" d="M418.1-32.8c-1.3-0.7-2.8-1-4.4-1s-3.1,0.3-4.4,1v-27.3c1.3-0.7,2.8-1,4.4-1s3.1,0.3,4.4,1
			c1.3,0.7,2.8,1,4.4,1s3.1-0.3,4.4-1s2.8-1,4.4-1s3.1,0.3,4.4,1v27.3c-1.3-0.7-2.8-1-4.4-1s-3.1,0.3-4.4,1s-2.8,1-4.4,1
			S419.4-32.1,418.1-32.8z M415.2-39.5c1.1,0.1,2,0.4,2.9,0.9c1.3,0.7,2.8,1,4.4,1s3.1-0.3,4.4-1c0.9-0.5,1.9-0.7,2.9-0.9v-15.6
			c-1.1,0.1-2,0.4-2.9,0.9c-1.3,0.7-2.8,1-4.4,1s-3.1-0.3-4.4-1c-0.9-0.5-1.9-0.7-2.9-0.9V-39.5z"/>
		<path class="st0" d="M470.9-32.8c-1.3-0.7-2.8-1-4.4-1s-3.1,0.3-4.4,1s-2.8,1-4.4,1s-3.1-0.3-4.4-1s-2.8-1-4.4-1s-3.1,0.3-4.4,1
			v-27.3c1.3-0.7,2.8-1,4.4-1s3.1,0.3,4.4,1c1.3,0.7,2.8,1,4.4,1c1,0,2-0.1,2.9-0.4v10.7c0.5-0.1,1-0.3,1.5-0.6c1.3-0.7,2.8-1,4.4-1
			s3.1,0.3,4.4,1V-32.8z M453.3-49.4c0.5,0.2,1,0.4,1.5,0.6v-4.9c-0.5-0.1-1-0.3-1.5-0.6c-0.9-0.5-1.9-0.7-2.9-0.9v4.9
			C451.4-50.1,452.4-49.8,453.3-49.4z M465-44.4c-1.1,0.1-2,0.4-2.9,0.9c-1.3,0.7-2.8,1-4.4,1s-3.1-0.3-4.4-1
			c-0.9-0.5-1.9-0.7-2.9-0.9v4.9c1.1,0.1,2,0.4,2.9,0.9c1.3,0.7,2.8,1,4.4,1s3.1-0.3,4.4-1c0.9-0.5,1.9-0.7,2.9-0.9V-44.4z"/>
		<path class="st0" d="M489.9-59.6c0.9,0.3,1.9,0.4,2.9,0.4s2-0.1,2.9-0.4v10.8c0.5-0.1,1-0.3,1.5-0.6c1.3-0.7,2.8-1,4.4-1
			s3.1,0.3,4.4,1v16.6c-1.3-0.7-2.8-1-4.4-1c-0.5,0-1,0-1.5,0.1v-10.7c-1.1,0.1-2,0.4-2.9,0.9c-1.3,0.7-2.8,1-4.4,1s-3.1-0.3-4.4-1
			c-0.9-0.5-1.9-0.7-2.9-0.9v10.7c-0.5-0.1-1-0.1-1.5-0.1c-1.6,0-3.1,0.3-4.4,1v-27.3c1.3-0.7,2.8-1,4.4-1c0.5,0,1,0,1.5,0.1v10.7
			c1.1,0.1,2,0.4,2.9,0.9c0.5,0.2,1,0.4,1.5,0.6V-59.6z"/>
		<path class="st0" d="M520.7-33.7c-0.5-0.1-1-0.1-1.5-0.1c-1.6,0-3.1,0.3-4.4,1v-27.3c1.3-0.7,2.8-1,4.4-1s3.1,0.3,4.4,1
			c1.3,0.7,2.8,1,4.4,1s3.1-0.3,4.4-1c1.3-0.7,2.8-1,4.4-1s3.1,0.3,4.4,1v27.3c-1.3-0.7-2.8-1-4.4-1c-0.5,0-1,0-1.5,0.1v-10.7
			c-1.1,0.1-2,0.4-2.9,0.9c-1.3,0.7-2.8,1-4.4,1s-3.1-0.3-4.4-1c-0.9-0.5-1.9-0.7-2.9-0.9V-33.7z M535.3-50.3v-4.9
			c-1.1,0.1-2,0.4-2.9,0.9c-1.3,0.7-2.8,1-4.4,1s-3.1-0.3-4.4-1c-0.9-0.5-1.9-0.7-2.9-0.9v4.9c1.1,0.1,2,0.4,2.9,0.9
			c1.3,0.7,2.8,1,4.4,1s3.1-0.3,4.4-1C533.3-49.8,534.3-50.1,535.3-50.3z"/>
		<path class="st0" d="M426.9-69.1c-0.3,0.2-0.6,0.3-1,0.4c-0.9,0.5-2,0.8-3.3,0.8c-1.2,0-2.2-0.2-3-0.6l0,0c-0.5-0.2-1-0.4-1.5-0.6
			c-1.3-0.7-2.8-1-4.4-1s-3.1,0.3-4.4,1v5.9c1.3-0.7,2.8-1,4.4-1s3.1,0.3,4.4,1c1.3,0.7,2.8,1,4.4,1s3.1-0.3,4.4-1
			c1.3-0.7,2.8-1,4.4-1s3.1,0.3,4.4,1v-5.9c-1.3-0.7-2.8-1-4.4-1S428.2-69.8,426.9-69.1z"/>
	</g>
	<path class="st0" d="M87.3-30.9c-1.4,0-2.7,0.3-3.8,1c-1.1,0.7-2.4,1-3.8,1c-0.7,0-0.8-0.1-3.8-1c-3.1-0.9-3.7-1.1-4.5-1.2
		c-1.3-0.1-2.4-0.1-3,0c0,1.9,0,3.8,0,5.7c1.5,0,2.8,0.1,3.8,0.3c1.5,0.2,2.5,0.5,3.8,1c0.5,0.2,1,0.4,1.3,0.6
		c0.6,0.2,1.5,0.5,2.6,0.5c1,0,1.8-0.2,2.4-0.4c0.4-0.2,0.9-0.4,1.3-0.6c1.1-0.7,2.4-1,3.8-1s2.7,0.3,3.8,1v-5.9
		C90-30.6,88.7-30.9,87.3-30.9z"/>
</g>
<path class="st1" d="M-14.6,94.9c-1.3-0.7-2.8-1-4.5-1c-1.7,0-3.2,0.3-4.5,1V67c1.3-0.7,2.8-1,4.5-1c1.7,0,3.2,0.3,4.5,1
	c1.3,0.7,2.8,1,4.5,1s3.2-0.3,4.5-1c1.3-0.7,2.8-1,4.5-1s3.2,0.3,4.5,1v27.9c-1.3-0.7-2.8-1-4.5-1s-3.2,0.3-4.5,1
	c-1.3,0.7-2.8,1-4.5,1S-13.3,95.5-14.6,94.9z M-17.6,88c1.1,0.1,2.1,0.4,3,0.9c1.3,0.7,2.8,1,4.5,1s3.2-0.3,4.5-1
	c0.9-0.5,1.9-0.8,3-0.9V72c-1.1,0.1-2.1,0.4-3,0.9c-1.3,0.7-2.8,1-4.5,1s-3.2-0.3-4.5-1c-0.9-0.5-1.9-0.8-3-0.9V88L-17.6,88z"/>
<g>
	<g transform="translate(288,48) scale(4.12)">
		<path class="st1" d="M-72.3,6.5C-72.3,6.5-72.3,6.5-72.3,6.5C-72.3,6.4-72.4,6.5-72.3,6.5c-0.1,0-0.1,0-0.1,0c0,0,0,0,0,0
			c0,0,0,0,0,0l0,0l0,0c0,0,0,0,0,0L-72.3,6.5C-72.4,6.6-72.4,6.6-72.3,6.5L-72.3,6.5C-72.3,6.5-72.3,6.5-72.3,6.5
			C-72.3,6.5-72.3,6.5-72.3,6.5z"/>
	</g>
	<g transform="translate(240,96) scale(4.12)">
		<path class="st1" d="M-60.9-4.9C-60.9-4.9-60.9-4.9-60.9-4.9C-61-4.9-61-4.9-60.9-4.9c-0.1,0-0.1,0-0.1,0c0,0,0,0,0,0c0,0,0,0,0,0
			l0,0l0,0c0,0,0,0,0,0L-60.9-4.9C-61-4.8-61-4.8-60.9-4.9L-60.9-4.9C-60.9-4.8-60.9-4.8-60.9-4.9C-60.9-4.8-60.9-4.9-60.9-4.9z"/>
	</g>
	<g transform="translate(288,96) scale(4.12)">
		<path class="st1" d="M-72.3-4.9C-72.3-4.9-72.3-4.9-72.3-4.9C-72.3-4.9-72.4-4.9-72.3-4.9c-0.1,0-0.1,0-0.1,0c0,0,0,0,0,0
			c0,0,0,0,0,0l0,0l0,0c0,0,0,0,0,0L-72.3-4.9C-72.4-4.8-72.4-4.8-72.3-4.9L-72.3-4.9C-72.3-4.8-72.3-4.8-72.3-4.9
			C-72.3-4.8-72.3-4.9-72.3-4.9z"/>
	</g>
	<g transform="translate(312,96) scale(4.12)">
		<path class="st1" d="M-78-4.9C-78-4.9-78-4.9-78-4.9C-78-4.9-78-4.9-78-4.9c-0.1,0-0.1,0-0.1,0c0,0,0,0,0,0c0,0,0,0,0,0l0,0l0,0
			c0,0,0,0,0,0L-78-4.9C-78-4.8-78-4.8-78-4.9L-78-4.9C-78-4.8-78-4.8-78-4.9C-78-4.8-78-4.9-78-4.9z"/>
	</g>
	<g transform="translate(336,96) scale(4.12)">
		<path class="st1" d="M-83.6-4.9C-83.6-4.9-83.7-4.9-83.6-4.9C-83.7-4.9-83.7-4.9-83.6-4.9c-0.1,0-0.1,0-0.1,0c0,0,0,0,0,0
			c0,0,0,0,0,0l0,0l0,0c0,0,0,0,0,0L-83.6-4.9C-83.7-4.8-83.7-4.8-83.6-4.9L-83.6-4.9C-83.7-4.8-83.7-4.8-83.6-4.9
			C-83.6-4.8-83.6-4.9-83.6-4.9z"/>
	</g>
	<g transform="translate(240,120) scale(4.12)">
		<path class="st1" d="M-60.9-10.5C-60.9-10.6-60.9-10.6-60.9-10.5C-61-10.6-61-10.6-60.9-10.5c-0.1,0-0.1,0-0.1,0c0,0,0,0,0,0
			c0,0,0,0,0,0l0,0l0,0c0,0,0,0,0,0L-60.9-10.5C-61-10.4-61-10.4-60.9-10.5L-60.9-10.5C-60.9-10.5-60.9-10.5-60.9-10.5
			C-60.9-10.5-60.9-10.5-60.9-10.5z"/>
	</g>
	<g transform="translate(264,120) scale(4.12)">
		<path class="st1" d="M-66.6-10.5C-66.6-10.6-66.6-10.6-66.6-10.5C-66.7-10.6-66.7-10.6-66.6-10.5c-0.1,0-0.1,0-0.1,0c0,0,0,0,0,0
			c0,0,0,0,0,0l0,0l0,0c0,0,0,0,0,0L-66.6-10.5C-66.7-10.4-66.7-10.4-66.6-10.5L-66.6-10.5C-66.6-10.5-66.6-10.5-66.6-10.5
			C-66.6-10.5-66.6-10.5-66.6-10.5z"/>
	</g>
	<g transform="translate(288,120) scale(4.12)">
		<path class="st1" d="M-72.3-10.5C-72.3-10.6-72.3-10.6-72.3-10.5C-72.3-10.6-72.4-10.6-72.3-10.5c-0.1,0-0.1,0-0.1,0c0,0,0,0,0,0
			c0,0,0,0,0,0l0,0l0,0c0,0,0,0,0,0L-72.3-10.5C-72.4-10.4-72.4-10.4-72.3-10.5L-72.3-10.5C-72.3-10.5-72.3-10.5-72.3-10.5
			C-72.3-10.5-72.3-10.5-72.3-10.5z"/>
	</g>
	<g transform="translate(312,120) scale(4.12)">
		<path class="st1" d="M-78-10.5C-78-10.6-78-10.6-78-10.5C-78-10.6-78-10.6-78-10.5c-0.1,0-0.1,0-0.1,0c0,0,0,0,0,0c0,0,0,0,0,0
			l0,0l0,0c0,0,0,0,0,0L-78-10.5C-78-10.4-78-10.4-78-10.5L-78-10.5C-78-10.5-78-10.5-78-10.5C-78-10.5-78-10.5-78-10.5z"/>
	</g>
	<g transform="translate(336,120) scale(4.12)">
		<path class="st1" d="M-83.6-10.5C-83.6-10.6-83.7-10.6-83.6-10.5C-83.7-10.6-83.7-10.6-83.6-10.5c-0.1,0-0.1,0-0.1,0c0,0,0,0,0,0
			c0,0,0,0,0,0l0,0l0,0c0,0,0,0,0,0L-83.6-10.5C-83.7-10.4-83.7-10.4-83.6-10.5L-83.6-10.5C-83.7-10.5-83.7-10.5-83.6-10.5
			C-83.6-10.5-83.6-10.5-83.6-10.5z"/>
	</g>
	<g transform="translate(240,144) scale(4.12)">
		<path class="st1" d="M-60.9-16.2C-60.9-16.2-60.9-16.3-60.9-16.2C-61-16.3-61-16.3-60.9-16.2c-0.1,0-0.1,0-0.1,0c0,0,0,0,0,0
			c0,0,0,0,0,0l0,0l0,0c0,0,0,0,0,0L-60.9-16.2C-61-16.1-61-16.1-60.9-16.2L-60.9-16.2C-60.9-16.2-60.9-16.2-60.9-16.2
			C-60.9-16.2-60.9-16.2-60.9-16.2z"/>
	</g>
	<g transform="translate(336,144) scale(4.12)">
		<path class="st1" d="M-83.6-16.2C-83.6-16.2-83.7-16.3-83.6-16.2C-83.7-16.3-83.7-16.3-83.6-16.2c-0.1,0-0.1,0-0.1,0c0,0,0,0,0,0
			c0,0,0,0,0,0l0,0l0,0c0,0,0,0,0,0L-83.6-16.2C-83.7-16.1-83.7-16.1-83.6-16.2L-83.6-16.2C-83.7-16.2-83.7-16.2-83.6-16.2
			C-83.6-16.2-83.6-16.2-83.6-16.2z"/>
	</g>
	<g transform="translate(240,168) scale(4.12)">
		<path class="st1" d="M-60.9-21.9C-60.9-21.9-60.9-21.9-60.9-21.9C-61-21.9-61-21.9-60.9-21.9c-0.1,0-0.1,0-0.1,0c0,0,0,0,0,0
			c0,0,0,0,0,0l0,0l0,0c0,0,0,0,0,0L-60.9-21.9C-61-21.8-61-21.8-60.9-21.9L-60.9-21.9C-60.9-21.9-60.9-21.9-60.9-21.9
			C-60.9-21.9-60.9-21.9-60.9-21.9z"/>
	</g>
	<g transform="translate(312,168) scale(4.12)">
		<path class="st1" d="M-78-21.9C-78-21.9-78-21.9-78-21.9C-78-21.9-78-21.9-78-21.9c-0.1,0-0.1,0-0.1,0c0,0,0,0,0,0c0,0,0,0,0,0
			l0,0l0,0c0,0,0,0,0,0L-78-21.9C-78-21.8-78-21.8-78-21.9L-78-21.9C-78-21.9-78-21.9-78-21.9C-78-21.9-78-21.9-78-21.9z"/>
	</g>
	<g transform="translate(240,192) scale(4.12)">
		<path class="st1" d="M-60.9-27.6C-60.9-27.6-60.9-27.6-60.9-27.6C-61-27.6-61-27.6-60.9-27.6c-0.1,0-0.1,0-0.1,0c0,0,0,0,0,0
			c0,0,0,0,0,0l0,0l0,0c0,0,0,0,0,0L-60.9-27.6C-61-27.5-61-27.5-60.9-27.6L-60.9-27.6C-60.9-27.5-60.9-27.5-60.9-27.6
			C-60.9-27.6-60.9-27.6-60.9-27.6z"/>
	</g>
	<g transform="translate(288,192) scale(4.12)">
		<path class="st1" d="M-72.3-27.6C-72.3-27.6-72.3-27.6-72.3-27.6C-72.3-27.6-72.4-27.6-72.3-27.6c-0.1,0-0.1,0-0.1,0c0,0,0,0,0,0
			c0,0,0,0,0,0l0,0l0,0c0,0,0,0,0,0L-72.3-27.6C-72.4-27.5-72.4-27.5-72.3-27.6L-72.3-27.6C-72.3-27.5-72.3-27.5-72.3-27.6
			C-72.3-27.6-72.3-27.6-72.3-27.6z"/>
	</g>
	<g transform="translate(336,192) scale(4.12)">
		<path class="st1" d="M-83.6-27.6C-83.6-27.6-83.7-27.6-83.6-27.6C-83.7-27.6-83.7-27.6-83.6-27.6c-0.1,0-0.1,0-0.1,0c0,0,0,0,0,0
			c0,0,0,0,0,0l0,0l0,0c0,0,0,0,0,0L-83.6-27.6C-83.7-27.5-83.7-27.5-83.6-27.6L-83.6-27.6C-83.7-27.5-83.7-27.5-83.6-27.6
			C-83.6-27.6-83.6-27.6-83.6-27.6z"/>
	</g>
	<g transform="translate(240,216) scale(4.12)">
		<path class="st1" d="M-60.9-33.3C-60.9-33.3-60.9-33.3-60.9-33.3C-61-33.3-61-33.3-60.9-33.3c-0.1,0-0.1,0-0.1,0c0,0,0,0,0,0
			c0,0,0,0,0,0l0,0l0,0c0,0,0,0,0,0L-60.9-33.3C-61-33.2-61-33.2-60.9-33.3L-60.9-33.3C-60.9-33.2-60.9-33.2-60.9-33.3
			C-60.9-33.2-60.9-33.2-60.9-33.3z"/>
	</g>
	<g transform="translate(288,216) scale(4.12)">
		<path class="st1" d="M-72.3-33.3C-72.3-33.3-72.3-33.3-72.3-33.3C-72.3-33.3-72.4-33.3-72.3-33.3c-0.1,0-0.1,0-0.1,0c0,0,0,0,0,0
			c0,0,0,0,0,0l0,0l0,0c0,0,0,0,0,0L-72.3-33.3C-72.4-33.2-72.4-33.2-72.3-33.3L-72.3-33.3C-72.3-33.2-72.3-33.2-72.3-33.3
			C-72.3-33.2-72.3-33.2-72.3-33.3z"/>
	</g>
	<g transform="translate(48,240) scale(4.12)">
		<path class="st1" d="M-15.5-38.9C-15.5-39-15.5-39-15.5-38.9C-15.6-39-15.6-39-15.5-38.9c-0.1,0-0.1,0-0.1,0c0,0,0,0,0,0
			c0,0,0,0,0,0l0,0l0,0c0,0,0,0,0,0L-15.5-38.9C-15.6-38.8-15.6-38.8-15.5-38.9L-15.5-38.9C-15.5-38.9-15.5-38.9-15.5-38.9
			C-15.5-38.9-15.5-38.9-15.5-38.9z"/>
	</g>
	<g transform="translate(96,240) scale(4.12)">
		<path class="st1" d="M-26.9-38.9C-26.9-39-26.9-39-26.9-38.9C-26.9-39-26.9-39-26.9-38.9c-0.1,0-0.1,0-0.1,0c0,0,0,0,0,0
			c0,0,0,0,0,0l0,0l0,0c0,0,0,0,0,0L-26.9-38.9C-26.9-38.8-26.9-38.8-26.9-38.9L-26.9-38.9C-26.9-38.9-26.9-38.9-26.9-38.9
			C-26.9-38.9-26.9-38.9-26.9-38.9z"/>
	</g>
	<g transform="translate(120,240) scale(4.12)">
		<path class="st1" d="M-32.5-38.9C-32.5-39-32.6-39-32.5-38.9C-32.6-39-32.6-39-32.5-38.9c-0.1,0-0.1,0-0.1,0c0,0,0,0,0,0
			c0,0,0,0,0,0l0,0l0,0c0,0,0,0,0,0L-32.5-38.9C-32.6-38.8-32.6-38.8-32.5-38.9L-32.5-38.9C-32.6-38.9-32.6-38.9-32.5-38.9
			C-32.5-38.9-32.5-38.9-32.5-38.9z"/>
	</g>
	<g transform="translate(144,240) scale(4.12)">
		<path class="st1" d="M-38.2-38.9C-38.2-39-38.2-39-38.2-38.9C-38.3-39-38.3-39-38.2-38.9c-0.1,0-0.1,0-0.1,0c0,0,0,0,0,0
			c0,0,0,0,0,0l0,0l0,0c0,0,0,0,0,0L-38.2-38.9C-38.3-38.8-38.3-38.8-38.2-38.9L-38.2-38.9C-38.2-38.9-38.2-38.9-38.2-38.9
			C-38.2-38.9-38.2-38.9-38.2-38.9z"/>
	</g>
	<g transform="translate(168,240) scale(4.12)">
		<path class="st1" d="M-43.9-38.9C-43.9-39-43.9-39-43.9-38.9C-44-39-44-39-43.9-38.9c-0.1,0-0.1,0-0.1,0c0,0,0,0,0,0c0,0,0,0,0,0
			l0,0l0,0c0,0,0,0,0,0L-43.9-38.9C-44-38.8-44-38.8-43.9-38.9L-43.9-38.9C-43.9-38.9-43.9-38.9-43.9-38.9
			C-43.9-38.9-43.9-38.9-43.9-38.9z"/>
	</g>
	<g transform="translate(192,240) scale(4.12)">
		<path class="st1" d="M-49.6-38.9C-49.6-39-49.6-39-49.6-38.9C-49.6-39-49.6-39-49.6-38.9c-0.1,0-0.1,0-0.1,0c0,0,0,0,0,0
			c0,0,0,0,0,0l0,0l0,0c0,0,0,0,0,0L-49.6-38.9C-49.7-38.8-49.6-38.8-49.6-38.9L-49.6-38.9C-49.6-38.9-49.6-38.9-49.6-38.9
			C-49.6-38.9-49.6-38.9-49.6-38.9z"/>
	</g>
	<g transform="translate(264,240) scale(4.12)">
		<path class="st1" d="M-66.6-38.9C-66.6-39-66.6-39-66.6-38.9C-66.7-39-66.7-39-66.6-38.9c-0.1,0-0.1,0-0.1,0c0,0,0,0,0,0
			c0,0,0,0,0,0l0,0l0,0c0,0,0,0,0,0L-66.6-38.9C-66.7-38.8-66.7-38.8-66.6-38.9L-66.6-38.9C-66.6-38.9-66.6-38.9-66.6-38.9
			C-66.6-38.9-66.6-38.9-66.6-38.9z"/>
	</g>
	<g transform="translate(312,240) scale(4.12)">
		<path class="st1" d="M-78-38.9C-78-39-78-39-78-38.9C-78-39-78-39-78-38.9c-0.1,0-0.1,0-0.1,0c0,0,0,0,0,0c0,0,0,0,0,0l0,0l0,0
			c0,0,0,0,0,0L-78-38.9C-78-38.8-78-38.8-78-38.9L-78-38.9C-78-38.9-78-38.9-78-38.9C-78-38.9-78-38.9-78-38.9z"/>
	</g>
	<g transform="translate(384,240) scale(4.12)">
		<path class="st1" d="M-95-38.9C-95-39-95-39-95-38.9C-95-39-95.1-39-95-38.9c-0.1,0-0.1,0-0.1,0c0,0,0,0,0,0c0,0,0,0,0,0l0,0l0,0
			c0,0,0,0,0,0L-95-38.9C-95.1-38.8-95.1-38.8-95-38.9L-95-38.9C-95-38.9-95-38.9-95-38.9C-95-38.9-95-38.9-95-38.9z"/>
	</g>
	<g transform="translate(408,240) scale(4.12)">
		<path class="st1" d="M-100.7-38.9C-100.7-39-100.7-39-100.7-38.9C-100.7-39-100.7-39-100.7-38.9c-0.1,0-0.1,0-0.1,0c0,0,0,0,0,0
			c0,0,0,0,0,0l0,0l0,0c0,0,0,0,0,0L-100.7-38.9C-100.8-38.8-100.7-38.8-100.7-38.9L-100.7-38.9C-100.7-38.9-100.7-38.9-100.7-38.9
			C-100.7-38.9-100.7-38.9-100.7-38.9z"/>
	</g>
	<g transform="translate(432,240) scale(4.12)">
		<path class="st1" d="M-106.4-38.9C-106.4-39-106.4-39-106.4-38.9C-106.4-39-106.4-39-106.4-38.9c-0.1,0-0.1,0-0.1,0c0,0,0,0,0,0
			c0,0,0,0,0,0l0,0l0,0c0,0,0,0,0,0L-106.4-38.9C-106.4-38.8-106.4-38.8-106.4-38.9L-106.4-38.9C-106.4-38.9-106.4-38.9-106.4-38.9
			C-106.4-38.9-106.3-38.9-106.4-38.9z"/>
	</g>
	<g transform="translate(456,240) scale(4.12)">
		<path class="st1" d="M-112-38.9C-112-39-112-39-112-38.9C-112.1-39-112.1-39-112-38.9c-0.1,0-0.1,0-0.1,0c0,0,0,0,0,0c0,0,0,0,0,0
			l0,0l0,0c0,0,0,0,0,0L-112-38.9C-112.1-38.8-112.1-38.8-112-38.9L-112-38.9C-112-38.9-112-38.9-112-38.9
			C-112-38.9-112-38.9-112-38.9z"/>
	</g>
	<g transform="translate(480,240) scale(4.12)">
		<path class="st1" d="M-117.7-38.9C-117.7-39-117.7-39-117.7-38.9C-117.8-39-117.8-39-117.7-38.9c-0.1,0-0.1,0-0.1,0c0,0,0,0,0,0
			c0,0,0,0,0,0l0,0l0,0c0,0,0,0,0,0L-117.7-38.9C-117.8-38.8-117.8-38.8-117.7-38.9L-117.7-38.9C-117.7-38.9-117.7-38.9-117.7-38.9
			C-117.7-38.9-117.7-38.9-117.7-38.9z"/>
	</g>
	<g transform="translate(96,264) scale(4.12)">
		<path class="st1" d="M-26.9-44.6C-26.9-44.6-26.9-44.6-26.9-44.6C-26.9-44.7-26.9-44.6-26.9-44.6c-0.1,0-0.1,0-0.1,0c0,0,0,0,0,0
			c0,0,0,0,0,0l0,0l0,0c0,0,0,0,0,0L-26.9-44.6C-26.9-44.5-26.9-44.5-26.9-44.6L-26.9-44.6C-26.9-44.6-26.9-44.6-26.9-44.6
			C-26.9-44.6-26.9-44.6-26.9-44.6z"/>
	</g>
	<g transform="translate(120,264) scale(4.12)">
		<path class="st1" d="M-32.5-44.6C-32.5-44.6-32.6-44.6-32.5-44.6C-32.6-44.7-32.6-44.6-32.5-44.6c-0.1,0-0.1,0-0.1,0c0,0,0,0,0,0
			c0,0,0,0,0,0l0,0l0,0c0,0,0,0,0,0L-32.5-44.6C-32.6-44.5-32.6-44.5-32.5-44.6L-32.5-44.6C-32.6-44.6-32.6-44.6-32.5-44.6
			C-32.5-44.6-32.5-44.6-32.5-44.6z"/>
	</g>
	<g transform="translate(144,264) scale(4.12)">
		<path class="st1" d="M-38.2-44.6C-38.2-44.6-38.2-44.6-38.2-44.6C-38.3-44.7-38.3-44.6-38.2-44.6c-0.1,0-0.1,0-0.1,0c0,0,0,0,0,0
			c0,0,0,0,0,0l0,0l0,0c0,0,0,0,0,0L-38.2-44.6C-38.3-44.5-38.3-44.5-38.2-44.6L-38.2-44.6C-38.2-44.6-38.2-44.6-38.2-44.6
			C-38.2-44.6-38.2-44.6-38.2-44.6z"/>
	</g>
	<g transform="translate(240,264) scale(4.12)">
		<path class="st1" d="M-60.9-44.6C-60.9-44.6-60.9-44.6-60.9-44.6C-61-44.7-61-44.6-60.9-44.6c-0.1,0-0.1,0-0.1,0c0,0,0,0,0,0
			c0,0,0,0,0,0l0,0l0,0c0,0,0,0,0,0L-60.9-44.6C-61-44.5-61-44.5-60.9-44.6L-60.9-44.6C-60.9-44.6-60.9-44.6-60.9-44.6
			C-60.9-44.6-60.9-44.6-60.9-44.6z"/>
	</g>
	<g transform="translate(336,264) scale(4.12)">
		<path class="st1" d="M-83.6-44.6C-83.6-44.6-83.7-44.6-83.6-44.6C-83.7-44.7-83.7-44.6-83.6-44.6c-0.1,0-0.1,0-0.1,0c0,0,0,0,0,0
			c0,0,0,0,0,0l0,0l0,0c0,0,0,0,0,0L-83.6-44.6C-83.7-44.5-83.7-44.5-83.6-44.6L-83.6-44.6C-83.7-44.6-83.7-44.6-83.6-44.6
			C-83.6-44.6-83.6-44.6-83.6-44.6z"/>
	</g>
	<g transform="translate(432,264) scale(4.12)">
		<path class="st1" d="M-106.4-44.6C-106.4-44.6-106.4-44.6-106.4-44.6C-106.4-44.7-106.4-44.6-106.4-44.6c-0.1,0-0.1,0-0.1,0
			c0,0,0,0,0,0c0,0,0,0,0,0l0,0l0,0c0,0,0,0,0,0L-106.4-44.6C-106.4-44.5-106.4-44.5-106.4-44.6L-106.4-44.6
			C-106.4-44.6-106.4-44.6-106.4-44.6C-106.4-44.6-106.3-44.6-106.4-44.6z"/>
	</g>
	<g transform="translate(456,264) scale(4.12)">
		<path class="st1" d="M-112-44.6C-112-44.6-112-44.6-112-44.6C-112.1-44.7-112.1-44.6-112-44.6c-0.1,0-0.1,0-0.1,0c0,0,0,0,0,0
			c0,0,0,0,0,0l0,0l0,0c0,0,0,0,0,0L-112-44.6C-112.1-44.5-112.1-44.5-112-44.6L-112-44.6C-112-44.6-112-44.6-112-44.6
			C-112-44.6-112-44.6-112-44.6z"/>
	</g>
	<g transform="translate(480,264) scale(4.12)">
		<path class="st1" d="M-117.7-44.6C-117.7-44.6-117.7-44.6-117.7-44.6C-117.8-44.7-117.8-44.6-117.7-44.6c-0.1,0-0.1,0-0.1,0
			c0,0,0,0,0,0c0,0,0,0,0,0l0,0l0,0c0,0,0,0,0,0L-117.7-44.6C-117.8-44.5-117.8-44.5-117.7-44.6L-117.7-44.6
			C-117.7-44.6-117.7-44.6-117.7-44.6C-117.7-44.6-117.7-44.6-117.7-44.6z"/>
	</g>
	<g transform="translate(504,264) scale(4.12)">
		<path class="st1" d="M-123.4-44.6C-123.4-44.6-123.4-44.6-123.4-44.6C-123.4-44.7-123.5-44.6-123.4-44.6c-0.1,0-0.1,0-0.1,0
			c0,0,0,0,0,0c0,0,0,0,0,0l0,0l0,0c0,0,0,0,0,0L-123.4-44.6C-123.5-44.5-123.5-44.5-123.4-44.6L-123.4-44.6
			C-123.4-44.6-123.4-44.6-123.4-44.6C-123.4-44.6-123.4-44.6-123.4-44.6z"/>
	</g>
	<g transform="translate(528,264) scale(4.12)">
		<path class="st1" d="M-129.1-44.6C-129.1-44.6-129.1-44.6-129.1-44.6C-129.1-44.7-129.1-44.6-129.1-44.6c-0.1,0-0.1,0-0.1,0
			c0,0,0,0,0,0c0,0,0,0,0,0l0,0l0,0c0,0,0,0,0,0L-129.1-44.6C-129.1-44.5-129.1-44.5-129.1-44.6L-129.1-44.6
			C-129.1-44.6-129.1-44.6-129.1-44.6C-129.1-44.6-129.1-44.6-129.1-44.6z"/>
	</g>
	<g transform="translate(48,288) scale(4.12)">
		<path class="st1" d="M-15.5-50.3C-15.5-50.3-15.5-50.3-15.5-50.3C-15.6-50.3-15.6-50.3-15.5-50.3c-0.1,0-0.1,0-0.1,0c0,0,0,0,0,0
			c0,0,0,0,0,0l0,0l0,0c0,0,0,0,0,0L-15.5-50.3C-15.6-50.2-15.6-50.2-15.5-50.3L-15.5-50.3C-15.5-50.2-15.5-50.3-15.5-50.3
			C-15.5-50.3-15.5-50.3-15.5-50.3z"/>
	</g>
	<g transform="translate(72,288) scale(4.12)">
		<path class="st1" d="M-21.2-50.3C-21.2-50.3-21.2-50.3-21.2-50.3C-21.2-50.3-21.3-50.3-21.2-50.3c-0.1,0-0.1,0-0.1,0c0,0,0,0,0,0
			c0,0,0,0,0,0l0,0l0,0c0,0,0,0,0,0L-21.2-50.3C-21.3-50.2-21.3-50.2-21.2-50.3L-21.2-50.3C-21.2-50.2-21.2-50.3-21.2-50.3
			C-21.2-50.3-21.2-50.3-21.2-50.3z"/>
	</g>
	<g transform="translate(120,288) scale(4.12)">
		<path class="st1" d="M-32.5-50.3C-32.5-50.3-32.6-50.3-32.5-50.3C-32.6-50.3-32.6-50.3-32.5-50.3c-0.1,0-0.1,0-0.1,0c0,0,0,0,0,0
			c0,0,0,0,0,0l0,0l0,0c0,0,0,0,0,0L-32.5-50.3C-32.6-50.2-32.6-50.2-32.5-50.3L-32.5-50.3C-32.6-50.2-32.6-50.3-32.5-50.3
			C-32.5-50.3-32.5-50.3-32.5-50.3z"/>
	</g>
	<g transform="translate(168,288) scale(4.12)">
		<path class="st1" d="M-43.9-50.3C-43.9-50.3-43.9-50.3-43.9-50.3C-44-50.3-44-50.3-43.9-50.3c-0.1,0-0.1,0-0.1,0c0,0,0,0,0,0
			c0,0,0,0,0,0l0,0l0,0c0,0,0,0,0,0L-43.9-50.3C-44-50.2-44-50.2-43.9-50.3L-43.9-50.3C-43.9-50.2-43.9-50.3-43.9-50.3
			C-43.9-50.3-43.9-50.3-43.9-50.3z"/>
	</g>
	<g transform="translate(192,288) scale(4.12)">
		<path class="st1" d="M-49.6-50.3C-49.6-50.3-49.6-50.3-49.6-50.3C-49.6-50.3-49.6-50.3-49.6-50.3c-0.1,0-0.1,0-0.1,0c0,0,0,0,0,0
			c0,0,0,0,0,0l0,0l0,0c0,0,0,0,0,0L-49.6-50.3C-49.7-50.2-49.6-50.2-49.6-50.3L-49.6-50.3C-49.6-50.2-49.6-50.3-49.6-50.3
			C-49.6-50.3-49.6-50.3-49.6-50.3z"/>
	</g>
	<g transform="translate(216,288) scale(4.12)">
		<path class="st1" d="M-55.3-50.3C-55.3-50.3-55.3-50.3-55.3-50.3C-55.3-50.3-55.3-50.3-55.3-50.3c-0.1,0-0.1,0-0.1,0c0,0,0,0,0,0
			c0,0,0,0,0,0l0,0l0,0c0,0,0,0,0,0L-55.3-50.3C-55.3-50.2-55.3-50.2-55.3-50.3L-55.3-50.3C-55.3-50.2-55.3-50.3-55.3-50.3
			C-55.3-50.3-55.3-50.3-55.3-50.3z"/>
	</g>
	<g transform="translate(240,288) scale(4.12)">
		<path class="st1" d="M-60.9-50.3C-60.9-50.3-60.9-50.3-60.9-50.3C-61-50.3-61-50.3-60.9-50.3c-0.1,0-0.1,0-0.1,0c0,0,0,0,0,0
			c0,0,0,0,0,0l0,0l0,0c0,0,0,0,0,0L-60.9-50.3C-61-50.2-61-50.2-60.9-50.3L-60.9-50.3C-60.9-50.2-60.9-50.3-60.9-50.3
			C-60.9-50.3-60.9-50.3-60.9-50.3z"/>
	</g>
	<g transform="translate(288,288) scale(4.12)">
		<path class="st1" d="M-72.3-50.3C-72.3-50.3-72.3-50.3-72.3-50.3C-72.3-50.3-72.4-50.3-72.3-50.3c-0.1,0-0.1,0-0.1,0c0,0,0,0,0,0
			c0,0,0,0,0,0l0,0l0,0c0,0,0,0,0,0L-72.3-50.3C-72.4-50.2-72.4-50.2-72.3-50.3L-72.3-50.3C-72.3-50.2-72.3-50.3-72.3-50.3
			C-72.3-50.3-72.3-50.3-72.3-50.3z"/>
	</g>
	<g transform="translate(336,288) scale(4.12)">
		<path class="st1" d="M-83.6-50.3C-83.6-50.3-83.7-50.3-83.6-50.3C-83.7-50.3-83.7-50.3-83.6-50.3c-0.1,0-0.1,0-0.1,0c0,0,0,0,0,0
			c0,0,0,0,0,0l0,0l0,0c0,0,0,0,0,0L-83.6-50.3C-83.7-50.2-83.7-50.2-83.6-50.3L-83.6-50.3C-83.7-50.2-83.7-50.3-83.6-50.3
			C-83.6-50.3-83.6-50.3-83.6-50.3z"/>
	</g>
	<g transform="translate(360,288) scale(4.12)">
		<path class="st1" d="M-89.3-50.3C-89.3-50.3-89.3-50.3-89.3-50.3C-89.4-50.3-89.4-50.3-89.3-50.3c-0.1,0-0.1,0-0.1,0c0,0,0,0,0,0
			c0,0,0,0,0,0l0,0l0,0c0,0,0,0,0,0L-89.3-50.3C-89.4-50.2-89.4-50.2-89.3-50.3L-89.3-50.3C-89.3-50.2-89.3-50.3-89.3-50.3
			C-89.3-50.3-89.3-50.3-89.3-50.3z"/>
	</g>
	<g transform="translate(384,288) scale(4.12)">
		<path class="st1" d="M-95-50.3C-95-50.3-95-50.3-95-50.3C-95-50.3-95.1-50.3-95-50.3c-0.1,0-0.1,0-0.1,0c0,0,0,0,0,0c0,0,0,0,0,0
			l0,0l0,0c0,0,0,0,0,0L-95-50.3C-95.1-50.2-95.1-50.2-95-50.3L-95-50.3C-95-50.2-95-50.3-95-50.3C-95-50.3-95-50.3-95-50.3z"/>
	</g>
	<g transform="translate(480,288) scale(4.12)">
		<path class="st1" d="M-117.7-50.3C-117.7-50.3-117.7-50.3-117.7-50.3C-117.8-50.3-117.8-50.3-117.7-50.3c-0.1,0-0.1,0-0.1,0
			c0,0,0,0,0,0c0,0,0,0,0,0l0,0l0,0c0,0,0,0,0,0L-117.7-50.3C-117.8-50.2-117.8-50.2-117.7-50.3L-117.7-50.3
			C-117.7-50.2-117.7-50.3-117.7-50.3C-117.7-50.3-117.7-50.3-117.7-50.3z"/>
	</g>
	<g transform="translate(504,288) scale(4.12)">
		<path class="st1" d="M-123.4-50.3C-123.4-50.3-123.4-50.3-123.4-50.3C-123.4-50.3-123.5-50.3-123.4-50.3c-0.1,0-0.1,0-0.1,0
			c0,0,0,0,0,0c0,0,0,0,0,0l0,0l0,0c0,0,0,0,0,0L-123.4-50.3C-123.5-50.2-123.5-50.2-123.4-50.3L-123.4-50.3
			C-123.4-50.2-123.4-50.3-123.4-50.3C-123.4-50.3-123.4-50.3-123.4-50.3z"/>
	</g>
	<g transform="translate(48,312) scale(4.12)">
		<path class="st1" d="M-15.5-56C-15.5-56-15.5-56-15.5-56C-15.6-56-15.6-56-15.5-56c-0.1,0-0.1,0-0.1,0c0,0,0,0,0,0c0,0,0,0,0,0
			l0,0l0,0c0,0,0,0,0,0L-15.5-56C-15.6-55.9-15.6-55.9-15.5-56L-15.5-56C-15.5-55.9-15.5-55.9-15.5-56C-15.5-55.9-15.5-56-15.5-56z"
			/>
	</g>
	<g transform="translate(72,312) scale(4.12)">
		<path class="st1" d="M-21.2-56C-21.2-56-21.2-56-21.2-56C-21.2-56-21.3-56-21.2-56c-0.1,0-0.1,0-0.1,0c0,0,0,0,0,0c0,0,0,0,0,0
			l0,0l0,0c0,0,0,0,0,0L-21.2-56C-21.3-55.9-21.3-55.9-21.2-56L-21.2-56C-21.2-55.9-21.2-55.9-21.2-56C-21.2-55.9-21.2-56-21.2-56z"
			/>
	</g>
	<g transform="translate(120,312) scale(4.12)">
		<path class="st1" d="M-32.5-56C-32.5-56-32.6-56-32.5-56C-32.6-56-32.6-56-32.5-56c-0.1,0-0.1,0-0.1,0c0,0,0,0,0,0c0,0,0,0,0,0
			l0,0l0,0c0,0,0,0,0,0L-32.5-56C-32.6-55.9-32.6-55.9-32.5-56L-32.5-56C-32.6-55.9-32.6-55.9-32.5-56C-32.5-55.9-32.5-56-32.5-56z"
			/>
	</g>
	<g transform="translate(144,312) scale(4.12)">
		<path class="st1" d="M-38.2-56C-38.2-56-38.2-56-38.2-56C-38.3-56-38.3-56-38.2-56c-0.1,0-0.1,0-0.1,0c0,0,0,0,0,0c0,0,0,0,0,0
			l0,0l0,0c0,0,0,0,0,0L-38.2-56C-38.3-55.9-38.3-55.9-38.2-56L-38.2-56C-38.2-55.9-38.2-55.9-38.2-56C-38.2-55.9-38.2-56-38.2-56z"
			/>
	</g>
	<g transform="translate(168,312) scale(4.12)">
		<path class="st1" d="M-43.9-56C-43.9-56-43.9-56-43.9-56C-44-56-44-56-43.9-56c-0.1,0-0.1,0-0.1,0c0,0,0,0,0,0c0,0,0,0,0,0l0,0
			l0,0c0,0,0,0,0,0L-43.9-56C-44-55.9-44-55.9-43.9-56L-43.9-56C-43.9-55.9-43.9-55.9-43.9-56C-43.9-55.9-43.9-56-43.9-56z"/>
	</g>
	<g transform="translate(216,312) scale(4.12)">
		<path class="st1" d="M-55.3-56C-55.3-56-55.3-56-55.3-56C-55.3-56-55.3-56-55.3-56c-0.1,0-0.1,0-0.1,0c0,0,0,0,0,0c0,0,0,0,0,0
			l0,0l0,0c0,0,0,0,0,0L-55.3-56C-55.3-55.9-55.3-55.9-55.3-56L-55.3-56C-55.3-55.9-55.3-55.9-55.3-56C-55.3-55.9-55.3-56-55.3-56z"
			/>
	</g>
	<g transform="translate(240,312) scale(4.12)">
		<path class="st1" d="M-60.9-56C-60.9-56-60.9-56-60.9-56C-61-56-61-56-60.9-56c-0.1,0-0.1,0-0.1,0c0,0,0,0,0,0c0,0,0,0,0,0l0,0
			l0,0c0,0,0,0,0,0L-60.9-56C-61-55.9-61-55.9-60.9-56L-60.9-56C-60.9-55.9-60.9-55.9-60.9-56C-60.9-55.9-60.9-56-60.9-56z"/>
	</g>
	<g transform="translate(264,312) scale(4.12)">
		<path class="st1" d="M-66.6-56C-66.6-56-66.6-56-66.6-56C-66.7-56-66.7-56-66.6-56c-0.1,0-0.1,0-0.1,0c0,0,0,0,0,0c0,0,0,0,0,0
			l0,0l0,0c0,0,0,0,0,0L-66.6-56C-66.7-55.9-66.7-55.9-66.6-56L-66.6-56C-66.6-55.9-66.6-55.9-66.6-56C-66.6-55.9-66.6-56-66.6-56z"
			/>
	</g>
	<g transform="translate(312,312) scale(4.12)">
		<path class="st1" d="M-78-56C-78-56-78-56-78-56C-78-56-78-56-78-56c-0.1,0-0.1,0-0.1,0c0,0,0,0,0,0c0,0,0,0,0,0l0,0l0,0
			c0,0,0,0,0,0L-78-56C-78-55.9-78-55.9-78-56L-78-56C-78-55.9-78-55.9-78-56C-78-55.9-78-56-78-56z"/>
	</g>
	<g transform="translate(336,312) scale(4.12)">
		<path class="st1" d="M-83.6-56C-83.6-56-83.7-56-83.6-56C-83.7-56-83.7-56-83.6-56c-0.1,0-0.1,0-0.1,0c0,0,0,0,0,0c0,0,0,0,0,0
			l0,0l0,0c0,0,0,0,0,0L-83.6-56C-83.7-55.9-83.7-55.9-83.6-56L-83.6-56C-83.7-55.9-83.7-55.9-83.6-56C-83.6-55.9-83.6-56-83.6-56z"
			/>
	</g>
	<g transform="translate(360,312) scale(4.12)">
		<path class="st1" d="M-89.3-56C-89.3-56-89.3-56-89.3-56C-89.4-56-89.4-56-89.3-56c-0.1,0-0.1,0-0.1,0c0,0,0,0,0,0c0,0,0,0,0,0
			l0,0l0,0c0,0,0,0,0,0L-89.3-56C-89.4-55.9-89.4-55.9-89.3-56L-89.3-56C-89.3-55.9-89.3-55.9-89.3-56C-89.3-55.9-89.3-56-89.3-56z"
			/>
	</g>
	<g transform="translate(432,312) scale(4.12)">
		<path class="st1" d="M-106.4-56C-106.4-56-106.4-56-106.4-56C-106.4-56-106.4-56-106.4-56c-0.1,0-0.1,0-0.1,0c0,0,0,0,0,0
			c0,0,0,0,0,0l0,0l0,0c0,0,0,0,0,0L-106.4-56C-106.4-55.9-106.4-55.9-106.4-56L-106.4-56C-106.4-55.9-106.4-55.9-106.4-56
			C-106.4-55.9-106.3-56-106.4-56z"/>
	</g>
	<g transform="translate(456,312) scale(4.12)">
		<path class="st1" d="M-112-56C-112-56-112-56-112-56C-112.1-56-112.1-56-112-56c-0.1,0-0.1,0-0.1,0c0,0,0,0,0,0c0,0,0,0,0,0l0,0
			l0,0c0,0,0,0,0,0L-112-56C-112.1-55.9-112.1-55.9-112-56L-112-56C-112-55.9-112-55.9-112-56C-112-55.9-112-56-112-56z"/>
	</g>
	<g transform="translate(480,312) scale(4.12)">
		<path class="st1" d="M-117.7-56C-117.7-56-117.7-56-117.7-56C-117.8-56-117.8-56-117.7-56c-0.1,0-0.1,0-0.1,0c0,0,0,0,0,0
			c0,0,0,0,0,0l0,0l0,0c0,0,0,0,0,0L-117.7-56C-117.8-55.9-117.8-55.9-117.7-56L-117.7-56C-117.7-55.9-117.7-55.9-117.7-56
			C-117.7-55.9-117.7-56-117.7-56z"/>
	</g>
	<g transform="translate(96,336) scale(4.12)">
		<path class="st1" d="M-26.9-61.6C-26.9-61.7-26.9-61.7-26.9-61.6C-26.9-61.7-26.9-61.7-26.9-61.6c-0.1,0-0.1,0-0.1,0c0,0,0,0,0,0
			c0,0,0,0,0,0l0,0l0,0c0,0,0,0,0,0L-26.9-61.6C-26.9-61.5-26.9-61.5-26.9-61.6L-26.9-61.6C-26.9-61.6-26.9-61.6-26.9-61.6
			C-26.9-61.6-26.9-61.6-26.9-61.6z"/>
	</g>
	<g transform="translate(120,336) scale(4.12)">
		<path class="st1" d="M-32.5-61.6C-32.5-61.7-32.6-61.7-32.5-61.6C-32.6-61.7-32.6-61.7-32.5-61.6c-0.1,0-0.1,0-0.1,0c0,0,0,0,0,0
			c0,0,0,0,0,0l0,0l0,0c0,0,0,0,0,0L-32.5-61.6C-32.6-61.5-32.6-61.5-32.5-61.6L-32.5-61.6C-32.6-61.6-32.6-61.6-32.5-61.6
			C-32.5-61.6-32.5-61.6-32.5-61.6z"/>
	</g>
	<g transform="translate(144,336) scale(4.12)">
		<path class="st1" d="M-38.2-61.6C-38.2-61.7-38.2-61.7-38.2-61.6C-38.3-61.7-38.3-61.7-38.2-61.6c-0.1,0-0.1,0-0.1,0c0,0,0,0,0,0
			c0,0,0,0,0,0l0,0l0,0c0,0,0,0,0,0L-38.2-61.6C-38.3-61.5-38.3-61.5-38.2-61.6L-38.2-61.6C-38.2-61.6-38.2-61.6-38.2-61.6
			C-38.2-61.6-38.2-61.6-38.2-61.6z"/>
	</g>
	<g transform="translate(168,336) scale(4.12)">
		<path class="st1" d="M-43.9-61.6C-43.9-61.7-43.9-61.7-43.9-61.6C-44-61.7-44-61.7-43.9-61.6c-0.1,0-0.1,0-0.1,0c0,0,0,0,0,0
			c0,0,0,0,0,0l0,0l0,0c0,0,0,0,0,0L-43.9-61.6C-44-61.5-44-61.5-43.9-61.6L-43.9-61.6C-43.9-61.6-43.9-61.6-43.9-61.6
			C-43.9-61.6-43.9-61.6-43.9-61.6z"/>
	</g>
	<g transform="translate(192,336) scale(4.12)">
		<path class="st1" d="M-49.6-61.6C-49.6-61.7-49.6-61.7-49.6-61.6C-49.6-61.7-49.6-61.7-49.6-61.6c-0.1,0-0.1,0-0.1,0c0,0,0,0,0,0
			c0,0,0,0,0,0l0,0l0,0c0,0,0,0,0,0L-49.6-61.6C-49.7-61.5-49.6-61.5-49.6-61.6L-49.6-61.6C-49.6-61.6-49.6-61.6-49.6-61.6
			C-49.6-61.6-49.6-61.6-49.6-61.6z"/>
	</g>
	<g transform="translate(264,336) scale(4.12)">
		<path class="st1" d="M-66.6-61.6C-66.6-61.7-66.6-61.7-66.6-61.6C-66.7-61.7-66.7-61.7-66.6-61.6c-0.1,0-0.1,0-0.1,0c0,0,0,0,0,0
			c0,0,0,0,0,0l0,0l0,0c0,0,0,0,0,0L-66.6-61.6C-66.7-61.5-66.7-61.5-66.6-61.6L-66.6-61.6C-66.6-61.6-66.6-61.6-66.6-61.6
			C-66.6-61.6-66.6-61.6-66.6-61.6z"/>
	</g>
	<g transform="translate(312,336) scale(4.12)">
		<path class="st1" d="M-78-61.6C-78-61.7-78-61.7-78-61.6C-78-61.7-78-61.7-78-61.6c-0.1,0-0.1,0-0.1,0c0,0,0,0,0,0c0,0,0,0,0,0
			l0,0l0,0c0,0,0,0,0,0L-78-61.6C-78-61.5-78-61.5-78-61.6L-78-61.6C-78-61.6-78-61.6-78-61.6C-78-61.6-78-61.6-78-61.6z"/>
	</g>
	<g transform="translate(336,336) scale(4.12)">
		<path class="st1" d="M-83.6-61.6C-83.6-61.7-83.7-61.7-83.6-61.6C-83.7-61.7-83.7-61.7-83.6-61.6c-0.1,0-0.1,0-0.1,0c0,0,0,0,0,0
			c0,0,0,0,0,0l0,0l0,0c0,0,0,0,0,0L-83.6-61.6C-83.7-61.5-83.7-61.5-83.6-61.6L-83.6-61.6C-83.7-61.6-83.7-61.6-83.6-61.6
			C-83.6-61.6-83.6-61.6-83.6-61.6z"/>
	</g>
	<g transform="translate(384,336) scale(4.12)">
		<path class="st1" d="M-95-61.6C-95-61.7-95-61.7-95-61.6C-95-61.7-95.1-61.7-95-61.6c-0.1,0-0.1,0-0.1,0c0,0,0,0,0,0c0,0,0,0,0,0
			l0,0l0,0c0,0,0,0,0,0L-95-61.6C-95.1-61.5-95.1-61.5-95-61.6L-95-61.6C-95-61.6-95-61.6-95-61.6C-95-61.6-95-61.6-95-61.6z"/>
	</g>
	<g transform="translate(432,336) scale(4.12)">
		<path class="st1" d="M-106.4-61.6C-106.4-61.7-106.4-61.7-106.4-61.6C-106.4-61.7-106.4-61.7-106.4-61.6c-0.1,0-0.1,0-0.1,0
			c0,0,0,0,0,0c0,0,0,0,0,0l0,0l0,0c0,0,0,0,0,0L-106.4-61.6C-106.4-61.5-106.4-61.5-106.4-61.6L-106.4-61.6
			C-106.4-61.6-106.4-61.6-106.4-61.6C-106.4-61.6-106.3-61.6-106.4-61.6z"/>
	</g>
	<g transform="translate(456,336) scale(4.12)">
		<path class="st1" d="M-112-61.6C-112-61.7-112-61.7-112-61.6C-112.1-61.7-112.1-61.7-112-61.6c-0.1,0-0.1,0-0.1,0c0,0,0,0,0,0
			c0,0,0,0,0,0l0,0l0,0c0,0,0,0,0,0L-112-61.6C-112.1-61.5-112.1-61.5-112-61.6L-112-61.6C-112-61.6-112-61.6-112-61.6
			C-112-61.6-112-61.6-112-61.6z"/>
	</g>
	<g transform="translate(528,336) scale(4.12)">
		<path class="st1" d="M-129.1-61.6C-129.1-61.7-129.1-61.7-129.1-61.6C-129.1-61.7-129.1-61.7-129.1-61.6c-0.1,0-0.1,0-0.1,0
			c0,0,0,0,0,0c0,0,0,0,0,0l0,0l0,0c0,0,0,0,0,0L-129.1-61.6C-129.1-61.5-129.1-61.5-129.1-61.6L-129.1-61.6
			C-129.1-61.6-129.1-61.6-129.1-61.6C-129.1-61.6-129.1-61.6-129.1-61.6z"/>
	</g>
	<g transform="translate(240,360) scale(4.12)">
		<path class="st1" d="M-60.9-67.3C-60.9-67.3-60.9-67.4-60.9-67.3C-61-67.4-61-67.4-60.9-67.3c-0.1,0-0.1,0-0.1,0c0,0,0,0,0,0
			c0,0,0,0,0,0l0,0l0,0c0,0,0,0,0,0L-60.9-67.3C-61-67.2-61-67.2-60.9-67.3L-60.9-67.3C-60.9-67.3-60.9-67.3-60.9-67.3
			C-60.9-67.3-60.9-67.3-60.9-67.3z"/>
	</g>
	<g transform="translate(288,360) scale(4.12)">
		<path class="st1" d="M-72.3-67.3C-72.3-67.3-72.3-67.4-72.3-67.3C-72.3-67.4-72.4-67.4-72.3-67.3c-0.1,0-0.1,0-0.1,0c0,0,0,0,0,0
			c0,0,0,0,0,0l0,0l0,0c0,0,0,0,0,0L-72.3-67.3C-72.4-67.2-72.4-67.2-72.3-67.3L-72.3-67.3C-72.3-67.3-72.3-67.3-72.3-67.3
			C-72.3-67.3-72.3-67.3-72.3-67.3z"/>
	</g>
	<g transform="translate(408,360) scale(4.12)">
		<path class="st1" d="M-100.7-67.3C-100.7-67.3-100.7-67.4-100.7-67.3C-100.7-67.4-100.7-67.4-100.7-67.3c-0.1,0-0.1,0-0.1,0
			c0,0,0,0,0,0c0,0,0,0,0,0l0,0l0,0c0,0,0,0,0,0L-100.7-67.3C-100.8-67.2-100.7-67.2-100.7-67.3L-100.7-67.3
			C-100.7-67.3-100.7-67.3-100.7-67.3C-100.7-67.3-100.7-67.3-100.7-67.3z"/>
	</g>
	<g transform="translate(432,360) scale(4.12)">
		<path class="st1" d="M-106.4-67.3C-106.4-67.3-106.4-67.4-106.4-67.3C-106.4-67.4-106.4-67.4-106.4-67.3c-0.1,0-0.1,0-0.1,0
			c0,0,0,0,0,0c0,0,0,0,0,0l0,0l0,0c0,0,0,0,0,0L-106.4-67.3C-106.4-67.2-106.4-67.2-106.4-67.3L-106.4-67.3
			C-106.4-67.3-106.4-67.3-106.4-67.3C-106.4-67.3-106.3-67.3-106.4-67.3z"/>
	</g>
	<g transform="translate(456,360) scale(4.12)">
		<path class="st1" d="M-112-67.3C-112-67.3-112-67.4-112-67.3C-112.1-67.4-112.1-67.4-112-67.3c-0.1,0-0.1,0-0.1,0c0,0,0,0,0,0
			c0,0,0,0,0,0l0,0l0,0c0,0,0,0,0,0L-112-67.3C-112.1-67.2-112.1-67.2-112-67.3L-112-67.3C-112-67.3-112-67.3-112-67.3
			C-112-67.3-112-67.3-112-67.3z"/>
	</g>
	<g transform="translate(480,360) scale(4.12)">
		<path class="st1" d="M-117.7-67.3C-117.7-67.3-117.7-67.4-117.7-67.3C-117.8-67.4-117.8-67.4-117.7-67.3c-0.1,0-0.1,0-0.1,0
			c0,0,0,0,0,0c0,0,0,0,0,0l0,0l0,0c0,0,0,0,0,0L-117.7-67.3C-117.8-67.2-117.8-67.2-117.7-67.3L-117.7-67.3
			C-117.7-67.3-117.7-67.3-117.7-67.3C-117.7-67.3-117.7-67.3-117.7-67.3z"/>
	</g>
	<g transform="translate(528,360) scale(4.12)">
		<path class="st1" d="M-129.1-67.3C-129.1-67.3-129.1-67.4-129.1-67.3C-129.1-67.4-129.1-67.4-129.1-67.3c-0.1,0-0.1,0-0.1,0
			c0,0,0,0,0,0c0,0,0,0,0,0l0,0l0,0c0,0,0,0,0,0L-129.1-67.3C-129.1-67.2-129.1-67.2-129.1-67.3L-129.1-67.3
			C-129.1-67.3-129.1-67.3-129.1-67.3C-129.1-67.3-129.1-67.3-129.1-67.3z"/>
	</g>
	<g transform="translate(288,384) scale(4.12)">
		<path class="st1" d="M-72.3-73C-72.3-73-72.3-73-72.3-73C-72.3-73-72.4-73-72.3-73c-0.1,0-0.1,0-0.1,0c0,0,0,0,0,0c0,0,0,0,0,0
			l0,0l0,0c0,0,0,0,0,0L-72.3-73C-72.4-72.9-72.4-72.9-72.3-73L-72.3-73C-72.3-73-72.3-73-72.3-73C-72.3-73-72.3-73-72.3-73z"/>
	</g>
	<g transform="translate(312,384) scale(4.12)">
		<path class="st1" d="M-78-73C-78-73-78-73-78-73C-78-73-78-73-78-73c-0.1,0-0.1,0-0.1,0c0,0,0,0,0,0c0,0,0,0,0,0l0,0l0,0
			c0,0,0,0,0,0L-78-73C-78-72.9-78-72.9-78-73L-78-73C-78-73-78-73-78-73C-78-73-78-73-78-73z"/>
	</g>
	<g transform="translate(336,384) scale(4.12)">
		<path class="st1" d="M-83.6-73C-83.6-73-83.7-73-83.6-73C-83.7-73-83.7-73-83.6-73c-0.1,0-0.1,0-0.1,0c0,0,0,0,0,0c0,0,0,0,0,0
			l0,0l0,0c0,0,0,0,0,0L-83.6-73C-83.7-72.9-83.7-72.9-83.6-73L-83.6-73C-83.7-73-83.7-73-83.6-73C-83.6-73-83.6-73-83.6-73z"/>
	</g>
	<g transform="translate(360,384) scale(4.12)">
		<path class="st1" d="M-89.3-73C-89.3-73-89.3-73-89.3-73C-89.4-73-89.4-73-89.3-73c-0.1,0-0.1,0-0.1,0c0,0,0,0,0,0c0,0,0,0,0,0
			l0,0l0,0c0,0,0,0,0,0L-89.3-73C-89.4-72.9-89.4-72.9-89.3-73L-89.3-73C-89.3-73-89.3-73-89.3-73C-89.3-73-89.3-73-89.3-73z"/>
	</g>
	<g transform="translate(408,384) scale(4.12)">
		<path class="st1" d="M-100.7-73C-100.7-73-100.7-73-100.7-73C-100.7-73-100.7-73-100.7-73c-0.1,0-0.1,0-0.1,0c0,0,0,0,0,0
			c0,0,0,0,0,0l0,0l0,0c0,0,0,0,0,0L-100.7-73C-100.8-72.9-100.7-72.9-100.7-73L-100.7-73C-100.7-73-100.7-73-100.7-73
			C-100.7-73-100.7-73-100.7-73z"/>
	</g>
	<g transform="translate(480,384) scale(4.12)">
		<path class="st1" d="M-117.7-73C-117.7-73-117.7-73-117.7-73C-117.8-73-117.8-73-117.7-73c-0.1,0-0.1,0-0.1,0c0,0,0,0,0,0
			c0,0,0,0,0,0l0,0l0,0c0,0,0,0,0,0L-117.7-73C-117.8-72.9-117.8-72.9-117.7-73L-117.7-73C-117.7-73-117.7-73-117.7-73
			C-117.7-73-117.7-73-117.7-73z"/>
	</g>
	<g transform="translate(504,384) scale(4.12)">
		<path class="st1" d="M-123.4-73C-123.4-73-123.4-73-123.4-73C-123.4-73-123.5-73-123.4-73c-0.1,0-0.1,0-0.1,0c0,0,0,0,0,0
			c0,0,0,0,0,0l0,0l0,0c0,0,0,0,0,0L-123.4-73C-123.5-72.9-123.5-72.9-123.4-73L-123.4-73C-123.4-73-123.4-73-123.4-73
			C-123.4-73-123.4-73-123.4-73z"/>
	</g>
	<g transform="translate(240,408) scale(4.12)">
		<path class="st1" d="M-60.9-78.7C-60.9-78.7-60.9-78.7-60.9-78.7C-61-78.7-61-78.7-60.9-78.7c-0.1,0-0.1,0-0.1,0c0,0,0,0,0,0
			c0,0,0,0,0,0l0,0l0,0c0,0,0,0,0,0L-60.9-78.7C-61-78.6-61-78.6-60.9-78.7L-60.9-78.7C-60.9-78.6-60.9-78.6-60.9-78.7
			C-60.9-78.7-60.9-78.7-60.9-78.7z"/>
	</g>
	<g transform="translate(264,408) scale(4.12)">
		<path class="st1" d="M-66.6-78.7C-66.6-78.7-66.6-78.7-66.6-78.7C-66.7-78.7-66.7-78.7-66.6-78.7c-0.1,0-0.1,0-0.1,0c0,0,0,0,0,0
			c0,0,0,0,0,0l0,0l0,0c0,0,0,0,0,0L-66.6-78.7C-66.7-78.6-66.7-78.6-66.6-78.7L-66.6-78.7C-66.6-78.6-66.6-78.6-66.6-78.7
			C-66.6-78.7-66.6-78.7-66.6-78.7z"/>
	</g>
	<g transform="translate(288,408) scale(4.12)">
		<path class="st1" d="M-72.3-78.7C-72.3-78.7-72.3-78.7-72.3-78.7C-72.3-78.7-72.4-78.7-72.3-78.7c-0.1,0-0.1,0-0.1,0c0,0,0,0,0,0
			c0,0,0,0,0,0l0,0l0,0c0,0,0,0,0,0L-72.3-78.7C-72.4-78.6-72.4-78.6-72.3-78.7L-72.3-78.7C-72.3-78.6-72.3-78.6-72.3-78.7
			C-72.3-78.7-72.3-78.7-72.3-78.7z"/>
	</g>
	<g transform="translate(312,408) scale(4.12)">
		<path class="st1" d="M-78-78.7C-78-78.7-78-78.7-78-78.7C-78-78.7-78-78.7-78-78.7c-0.1,0-0.1,0-0.1,0c0,0,0,0,0,0c0,0,0,0,0,0
			l0,0l0,0c0,0,0,0,0,0L-78-78.7C-78-78.6-78-78.6-78-78.7L-78-78.7C-78-78.6-78-78.6-78-78.7C-78-78.7-78-78.7-78-78.7z"/>
	</g>
	<g transform="translate(360,408) scale(4.12)">
		<path class="st1" d="M-89.3-78.7C-89.3-78.7-89.3-78.7-89.3-78.7C-89.4-78.7-89.4-78.7-89.3-78.7c-0.1,0-0.1,0-0.1,0c0,0,0,0,0,0
			c0,0,0,0,0,0l0,0l0,0c0,0,0,0,0,0L-89.3-78.7C-89.4-78.6-89.4-78.6-89.3-78.7L-89.3-78.7C-89.3-78.6-89.3-78.6-89.3-78.7
			C-89.3-78.7-89.3-78.7-89.3-78.7z"/>
	</g>
	<g transform="translate(432,408) scale(4.12)">
		<path class="st1" d="M-106.4-78.7C-106.4-78.7-106.4-78.7-106.4-78.7C-106.4-78.7-106.4-78.7-106.4-78.7c-0.1,0-0.1,0-0.1,0
			c0,0,0,0,0,0c0,0,0,0,0,0l0,0l0,0c0,0,0,0,0,0L-106.4-78.7C-106.4-78.6-106.4-78.6-106.4-78.7L-106.4-78.7
			C-106.4-78.6-106.4-78.6-106.4-78.7C-106.4-78.7-106.3-78.7-106.4-78.7z"/>
	</g>
	<g transform="translate(456,408) scale(4.12)">
		<path class="st1" d="M-112-78.7C-112-78.7-112-78.7-112-78.7C-112.1-78.7-112.1-78.7-112-78.7c-0.1,0-0.1,0-0.1,0c0,0,0,0,0,0
			c0,0,0,0,0,0l0,0l0,0c0,0,0,0,0,0L-112-78.7C-112.1-78.6-112.1-78.6-112-78.7L-112-78.7C-112-78.6-112-78.6-112-78.7
			C-112-78.7-112-78.7-112-78.7z"/>
	</g>
	<g transform="translate(480,408) scale(4.12)">
		<path class="st1" d="M-117.7-78.7C-117.7-78.7-117.7-78.7-117.7-78.7C-117.8-78.7-117.8-78.7-117.7-78.7c-0.1,0-0.1,0-0.1,0
			c0,0,0,0,0,0c0,0,0,0,0,0l0,0l0,0c0,0,0,0,0,0L-117.7-78.7C-117.8-78.6-117.8-78.6-117.7-78.7L-117.7-78.7
			C-117.7-78.6-117.7-78.6-117.7-78.7C-117.7-78.7-117.7-78.7-117.7-78.7z"/>
	</g>
	<g transform="translate(504,408) scale(4.12)">
		<path class="st1" d="M-123.4-78.7C-123.4-78.7-123.4-78.7-123.4-78.7C-123.4-78.7-123.5-78.7-123.4-78.7c-0.1,0-0.1,0-0.1,0
			c0,0,0,0,0,0c0,0,0,0,0,0l0,0l0,0c0,0,0,0,0,0L-123.4-78.7C-123.5-78.6-123.5-78.6-123.4-78.7L-123.4-78.7
			C-123.4-78.6-123.4-78.6-123.4-78.7C-123.4-78.7-123.4-78.7-123.4-78.7z"/>
	</g>
	<g transform="translate(240,432) scale(4.12)">
		<path class="st1" d="M-60.9-84.4C-60.9-84.4-60.9-84.4-60.9-84.4C-61-84.4-61-84.4-60.9-84.4c-0.1,0-0.1,0-0.1,0c0,0,0,0,0,0
			c0,0,0,0,0,0l0,0l0,0c0,0,0,0,0,0L-60.9-84.4C-61-84.3-61-84.3-60.9-84.4L-60.9-84.4C-60.9-84.3-60.9-84.3-60.9-84.4
			C-60.9-84.3-60.9-84.3-60.9-84.4z"/>
	</g>
	<g transform="translate(264,432) scale(4.12)">
		<path class="st1" d="M-66.6-84.4C-66.6-84.4-66.6-84.4-66.6-84.4C-66.7-84.4-66.7-84.4-66.6-84.4c-0.1,0-0.1,0-0.1,0c0,0,0,0,0,0
			c0,0,0,0,0,0l0,0l0,0c0,0,0,0,0,0L-66.6-84.4C-66.7-84.3-66.7-84.3-66.6-84.4L-66.6-84.4C-66.6-84.3-66.6-84.3-66.6-84.4
			C-66.6-84.3-66.6-84.3-66.6-84.4z"/>
	</g>
	<g transform="translate(288,432) scale(4.12)">
		<path class="st1" d="M-72.3-84.4C-72.3-84.4-72.3-84.4-72.3-84.4C-72.3-84.4-72.4-84.4-72.3-84.4c-0.1,0-0.1,0-0.1,0c0,0,0,0,0,0
			c0,0,0,0,0,0l0,0l0,0c0,0,0,0,0,0L-72.3-84.4C-72.4-84.3-72.4-84.3-72.3-84.4L-72.3-84.4C-72.3-84.3-72.3-84.3-72.3-84.4
			C-72.3-84.3-72.3-84.3-72.3-84.4z"/>
	</g>
	<g transform="translate(384,432) scale(4.12)">
		<path class="st1" d="M-95-84.4C-95-84.4-95-84.4-95-84.4C-95-84.4-95.1-84.4-95-84.4c-0.1,0-0.1,0-0.1,0c0,0,0,0,0,0c0,0,0,0,0,0
			l0,0l0,0c0,0,0,0,0,0L-95-84.4C-95.1-84.3-95.1-84.3-95-84.4L-95-84.4C-95-84.3-95-84.3-95-84.4C-95-84.3-95-84.3-95-84.4z"/>
	</g>
	<g transform="translate(432,432) scale(4.12)">
		<path class="st1" d="M-106.4-84.4C-106.4-84.4-106.4-84.4-106.4-84.4C-106.4-84.4-106.4-84.4-106.4-84.4c-0.1,0-0.1,0-0.1,0
			c0,0,0,0,0,0c0,0,0,0,0,0l0,0l0,0c0,0,0,0,0,0L-106.4-84.4C-106.4-84.3-106.4-84.3-106.4-84.4L-106.4-84.4
			C-106.4-84.3-106.4-84.3-106.4-84.4C-106.4-84.3-106.3-84.3-106.4-84.4z"/>
	</g>
	<g transform="translate(456,432) scale(4.12)">
		<path class="st1" d="M-112-84.4C-112-84.4-112-84.4-112-84.4C-112.1-84.4-112.1-84.4-112-84.4c-0.1,0-0.1,0-0.1,0c0,0,0,0,0,0
			c0,0,0,0,0,0l0,0l0,0c0,0,0,0,0,0L-112-84.4C-112.1-84.3-112.1-84.3-112-84.4L-112-84.4C-112-84.3-112-84.3-112-84.4
			C-112-84.3-112-84.3-112-84.4z"/>
	</g>
	<g transform="translate(504,432) scale(4.12)">
		<path class="st1" d="M-123.4-84.4C-123.4-84.4-123.4-84.4-123.4-84.4C-123.4-84.4-123.5-84.4-123.4-84.4c-0.1,0-0.1,0-0.1,0
			c0,0,0,0,0,0c0,0,0,0,0,0l0,0l0,0c0,0,0,0,0,0L-123.4-84.4C-123.5-84.3-123.5-84.3-123.4-84.4L-123.4-84.4
			C-123.4-84.3-123.4-84.3-123.4-84.4C-123.4-84.3-123.4-84.3-123.4-84.4z"/>
	</g>
	<g transform="translate(528,432) scale(4.12)">
		<path class="st1" d="M-129.1-84.4C-129.1-84.4-129.1-84.4-129.1-84.4C-129.1-84.4-129.1-84.4-129.1-84.4c-0.1,0-0.1,0-0.1,0
			c0,0,0,0,0,0c0,0,0,0,0,0l0,0l0,0c0,0,0,0,0,0L-129.1-84.4C-129.1-84.3-129.1-84.3-129.1-84.4L-129.1-84.4
			C-129.1-84.3-129.1-84.3-129.1-84.4C-129.1-84.3-129.1-84.3-129.1-84.4z"/>
	</g>
	<g transform="translate(240,456) scale(4.12)">
		<path class="st1" d="M-60.9-90C-60.9-90.1-60.9-90.1-60.9-90C-61-90.1-61-90.1-60.9-90c-0.1,0-0.1,0-0.1,0c0,0,0,0,0,0
			c0,0,0,0,0,0l0,0l0,0c0,0,0,0,0,0L-60.9-90C-61-89.9-61-89.9-60.9-90L-60.9-90C-60.9-90-60.9-90-60.9-90C-60.9-90-60.9-90-60.9-90
			z"/>
	</g>
	<g transform="translate(264,456) scale(4.12)">
		<path class="st1" d="M-66.6-90C-66.6-90.1-66.6-90.1-66.6-90C-66.7-90.1-66.7-90.1-66.6-90c-0.1,0-0.1,0-0.1,0c0,0,0,0,0,0
			c0,0,0,0,0,0l0,0l0,0c0,0,0,0,0,0L-66.6-90C-66.7-89.9-66.7-89.9-66.6-90L-66.6-90C-66.6-90-66.6-90-66.6-90
			C-66.6-90-66.6-90-66.6-90z"/>
	</g>
	<g transform="translate(408,456) scale(4.12)">
		<path class="st1" d="M-100.7-90C-100.7-90.1-100.7-90.1-100.7-90C-100.7-90.1-100.7-90.1-100.7-90c-0.1,0-0.1,0-0.1,0c0,0,0,0,0,0
			c0,0,0,0,0,0l0,0l0,0c0,0,0,0,0,0L-100.7-90C-100.8-89.9-100.7-89.9-100.7-90L-100.7-90C-100.7-90-100.7-90-100.7-90
			C-100.7-90-100.7-90-100.7-90z"/>
	</g>
	<g transform="translate(432,456) scale(4.12)">
		<path class="st1" d="M-106.4-90C-106.4-90.1-106.4-90.1-106.4-90C-106.4-90.1-106.4-90.1-106.4-90c-0.1,0-0.1,0-0.1,0c0,0,0,0,0,0
			c0,0,0,0,0,0l0,0l0,0c0,0,0,0,0,0L-106.4-90C-106.4-89.9-106.4-89.9-106.4-90L-106.4-90C-106.4-90-106.4-90-106.4-90
			C-106.4-90-106.3-90-106.4-90z"/>
	</g>
	<g transform="translate(480,456) scale(4.12)">
		<path class="st1" d="M-117.7-90C-117.7-90.1-117.7-90.1-117.7-90C-117.8-90.1-117.8-90.1-117.7-90c-0.1,0-0.1,0-0.1,0c0,0,0,0,0,0
			c0,0,0,0,0,0l0,0l0,0c0,0,0,0,0,0L-117.7-90C-117.8-89.9-117.8-89.9-117.7-90L-117.7-90C-117.7-90-117.7-90-117.7-90
			C-117.7-90-117.7-90-117.7-90z"/>
	</g>
	<g transform="translate(240,480) scale(4.12)">
		<path class="st1" d="M-60.9-95.7C-60.9-95.7-60.9-95.7-60.9-95.7C-61-95.8-61-95.7-60.9-95.7c-0.1,0-0.1,0-0.1,0c0,0,0,0,0,0
			c0,0,0,0,0,0l0,0l0,0c0,0,0,0,0,0L-60.9-95.7C-61-95.6-61-95.6-60.9-95.7L-60.9-95.7C-60.9-95.7-60.9-95.7-60.9-95.7
			C-60.9-95.7-60.9-95.7-60.9-95.7z"/>
	</g>
	<g transform="translate(264,480) scale(4.12)">
		<path class="st1" d="M-66.6-95.7C-66.6-95.7-66.6-95.7-66.6-95.7C-66.7-95.8-66.7-95.7-66.6-95.7c-0.1,0-0.1,0-0.1,0c0,0,0,0,0,0
			c0,0,0,0,0,0l0,0l0,0c0,0,0,0,0,0L-66.6-95.7C-66.7-95.6-66.7-95.6-66.6-95.7L-66.6-95.7C-66.6-95.7-66.6-95.7-66.6-95.7
			C-66.6-95.7-66.6-95.7-66.6-95.7z"/>
	</g>
	<g transform="translate(288,480) scale(4.12)">
		<path class="st1" d="M-72.3-95.7C-72.3-95.7-72.3-95.7-72.3-95.7C-72.3-95.8-72.4-95.7-72.3-95.7c-0.1,0-0.1,0-0.1,0c0,0,0,0,0,0
			c0,0,0,0,0,0l0,0l0,0c0,0,0,0,0,0L-72.3-95.7C-72.4-95.6-72.4-95.6-72.3-95.7L-72.3-95.7C-72.3-95.7-72.3-95.7-72.3-95.7
			C-72.3-95.7-72.3-95.7-72.3-95.7z"/>
	</g>
	<g transform="translate(312,480) scale(4.12)">
		<path class="st1" d="M-78-95.7C-78-95.7-78-95.7-78-95.7C-78-95.8-78-95.7-78-95.7c-0.1,0-0.1,0-0.1,0c0,0,0,0,0,0c0,0,0,0,0,0
			l0,0l0,0c0,0,0,0,0,0L-78-95.7C-78-95.6-78-95.6-78-95.7L-78-95.7C-78-95.7-78-95.7-78-95.7C-78-95.7-78-95.7-78-95.7z"/>
	</g>
	<g transform="translate(336,480) scale(4.12)">
		<path class="st1" d="M-83.6-95.7C-83.6-95.7-83.7-95.7-83.6-95.7C-83.7-95.8-83.7-95.7-83.6-95.7c-0.1,0-0.1,0-0.1,0c0,0,0,0,0,0
			c0,0,0,0,0,0l0,0l0,0c0,0,0,0,0,0L-83.6-95.7C-83.7-95.6-83.7-95.6-83.6-95.7L-83.6-95.7C-83.7-95.7-83.7-95.7-83.6-95.7
			C-83.6-95.7-83.6-95.7-83.6-95.7z"/>
	</g>
	<g transform="translate(360,480) scale(4.12)">
		<path class="st1" d="M-89.3-95.7C-89.3-95.7-89.3-95.7-89.3-95.7C-89.4-95.8-89.4-95.7-89.3-95.7c-0.1,0-0.1,0-0.1,0c0,0,0,0,0,0
			c0,0,0,0,0,0l0,0l0,0c0,0,0,0,0,0L-89.3-95.7C-89.4-95.6-89.4-95.6-89.3-95.7L-89.3-95.7C-89.3-95.7-89.3-95.7-89.3-95.7
			C-89.3-95.7-89.3-95.7-89.3-95.7z"/>
	</g>
	<g transform="translate(384,480) scale(4.12)">
		<path class="st1" d="M-95-95.7C-95-95.7-95-95.7-95-95.7C-95-95.8-95.1-95.7-95-95.7c-0.1,0-0.1,0-0.1,0c0,0,0,0,0,0c0,0,0,0,0,0
			l0,0l0,0c0,0,0,0,0,0L-95-95.7C-95.1-95.6-95.1-95.6-95-95.7L-95-95.7C-95-95.7-95-95.7-95-95.7C-95-95.7-95-95.7-95-95.7z"/>
	</g>
	<g transform="translate(408,480) scale(4.12)">
		<path class="st1" d="M-100.7-95.7C-100.7-95.7-100.7-95.7-100.7-95.7C-100.7-95.8-100.7-95.7-100.7-95.7c-0.1,0-0.1,0-0.1,0
			c0,0,0,0,0,0c0,0,0,0,0,0l0,0l0,0c0,0,0,0,0,0L-100.7-95.7C-100.8-95.6-100.7-95.6-100.7-95.7L-100.7-95.7
			C-100.7-95.7-100.7-95.7-100.7-95.7C-100.7-95.7-100.7-95.7-100.7-95.7z"/>
	</g>
	<g transform="translate(480,480) scale(4.12)">
		<path class="st1" d="M-117.7-95.7C-117.7-95.7-117.7-95.7-117.7-95.7C-117.8-95.8-117.8-95.7-117.7-95.7c-0.1,0-0.1,0-0.1,0
			c0,0,0,0,0,0c0,0,0,0,0,0l0,0l0,0c0,0,0,0,0,0L-117.7-95.7C-117.8-95.6-117.8-95.6-117.7-95.7L-117.7-95.7
			C-117.7-95.7-117.7-95.7-117.7-95.7C-117.7-95.7-117.7-95.7-117.7-95.7z"/>
	</g>
	<g transform="translate(360,504) scale(4.12)">
		<path class="st1" d="M-89.3-101.4C-89.3-101.4-89.3-101.4-89.3-101.4C-89.4-101.4-89.4-101.4-89.3-101.4c-0.1,0-0.1,0-0.1,0
			c0,0,0,0,0,0c0,0,0,0,0,0l0,0l0,0c0,0,0,0,0,0L-89.3-101.4C-89.4-101.3-89.4-101.3-89.3-101.4L-89.3-101.4
			C-89.3-101.3-89.3-101.4-89.3-101.4C-89.3-101.4-89.3-101.4-89.3-101.4z"/>
	</g>
	<g transform="translate(408,504) scale(4.12)">
		<path class="st1" d="M-100.7-101.4C-100.7-101.4-100.7-101.4-100.7-101.4C-100.7-101.4-100.7-101.4-100.7-101.4
			c-0.1,0-0.1,0-0.1,0c0,0,0,0,0,0c0,0,0,0,0,0l0,0l0,0c0,0,0,0,0,0L-100.7-101.4C-100.8-101.3-100.7-101.3-100.7-101.4
			L-100.7-101.4C-100.7-101.3-100.7-101.4-100.7-101.4C-100.7-101.4-100.7-101.4-100.7-101.4z"/>
	</g>
	<g transform="translate(432,504) scale(4.12)">
		<path class="st1" d="M-106.4-101.4C-106.4-101.4-106.4-101.4-106.4-101.4C-106.4-101.4-106.4-101.4-106.4-101.4
			c-0.1,0-0.1,0-0.1,0c0,0,0,0,0,0c0,0,0,0,0,0l0,0l0,0c0,0,0,0,0,0L-106.4-101.4C-106.4-101.3-106.4-101.3-106.4-101.4
			L-106.4-101.4C-106.4-101.3-106.4-101.4-106.4-101.4C-106.4-101.4-106.3-101.4-106.4-101.4z"/>
	</g>
	<g transform="translate(480,504) scale(4.12)">
		<path class="st1" d="M-117.7-101.4C-117.7-101.4-117.7-101.4-117.7-101.4C-117.8-101.4-117.8-101.4-117.7-101.4
			c-0.1,0-0.1,0-0.1,0c0,0,0,0,0,0c0,0,0,0,0,0l0,0l0,0c0,0,0,0,0,0L-117.7-101.4C-117.8-101.3-117.8-101.3-117.7-101.4
			L-117.7-101.4C-117.7-101.3-117.7-101.4-117.7-101.4C-117.7-101.4-117.7-101.4-117.7-101.4z"/>
	</g>
	<g transform="translate(240,528) scale(4.12)">
		<path class="st1" d="M-60.9-107.1C-60.9-107.1-60.9-107.1-60.9-107.1C-61-107.1-61-107.1-60.9-107.1c-0.1,0-0.1,0-0.1,0
			c0,0,0,0,0,0c0,0,0,0,0,0l0,0l0,0c0,0,0,0,0,0L-60.9-107.1C-61-107-61-107-60.9-107.1L-60.9-107.1C-60.9-107-60.9-107-60.9-107.1
			C-60.9-107-60.9-107.1-60.9-107.1z"/>
	</g>
	<g transform="translate(360,528) scale(4.12)">
		<path class="st1" d="M-89.3-107.1C-89.3-107.1-89.3-107.1-89.3-107.1C-89.4-107.1-89.4-107.1-89.3-107.1c-0.1,0-0.1,0-0.1,0
			c0,0,0,0,0,0c0,0,0,0,0,0l0,0l0,0c0,0,0,0,0,0L-89.3-107.1C-89.4-107-89.4-107-89.3-107.1L-89.3-107.1
			C-89.3-107-89.3-107-89.3-107.1C-89.3-107-89.3-107.1-89.3-107.1z"/>
	</g>
	<g transform="translate(384,528) scale(4.12)">
		<path class="st1" d="M-95-107.1C-95-107.1-95-107.1-95-107.1C-95-107.1-95.1-107.1-95-107.1c-0.1,0-0.1,0-0.1,0c0,0,0,0,0,0
			c0,0,0,0,0,0l0,0l0,0c0,0,0,0,0,0L-95-107.1C-95.1-107-95.1-107-95-107.1L-95-107.1C-95-107-95-107-95-107.1
			C-95-107-95-107.1-95-107.1z"/>
	</g>
	<g transform="translate(408,528) scale(4.12)">
		<path class="st1" d="M-100.7-107.1C-100.7-107.1-100.7-107.1-100.7-107.1C-100.7-107.1-100.7-107.1-100.7-107.1
			c-0.1,0-0.1,0-0.1,0c0,0,0,0,0,0c0,0,0,0,0,0l0,0l0,0c0,0,0,0,0,0L-100.7-107.1C-100.8-107-100.7-107-100.7-107.1L-100.7-107.1
			C-100.7-107-100.7-107-100.7-107.1C-100.7-107-100.7-107.1-100.7-107.1z"/>
	</g>
	<g transform="translate(432,528) scale(4.12)">
		<path class="st1" d="M-106.4-107.1C-106.4-107.1-106.4-107.1-106.4-107.1C-106.4-107.1-106.4-107.1-106.4-107.1
			c-0.1,0-0.1,0-0.1,0c0,0,0,0,0,0c0,0,0,0,0,0l0,0l0,0c0,0,0,0,0,0L-106.4-107.1C-106.4-107-106.4-107-106.4-107.1L-106.4-107.1
			C-106.4-107-106.4-107-106.4-107.1C-106.4-107-106.3-107.1-106.4-107.1z"/>
	</g>
	<g transform="translate(456,528) scale(4.12)">
		<path class="st1" d="M-112-107.1C-112-107.1-112-107.1-112-107.1C-112.1-107.1-112.1-107.1-112-107.1c-0.1,0-0.1,0-0.1,0
			c0,0,0,0,0,0c0,0,0,0,0,0l0,0l0,0c0,0,0,0,0,0L-112-107.1C-112.1-107-112.1-107-112-107.1L-112-107.1C-112-107-112-107-112-107.1
			C-112-107-112-107.1-112-107.1z"/>
	</g>
	<g transform="translate(504,528) scale(4.12)">
		<path class="st1" d="M-123.4-107.1C-123.4-107.1-123.4-107.1-123.4-107.1C-123.4-107.1-123.5-107.1-123.4-107.1
			c-0.1,0-0.1,0-0.1,0c0,0,0,0,0,0c0,0,0,0,0,0l0,0l0,0c0,0,0,0,0,0L-123.4-107.1C-123.5-107-123.5-107-123.4-107.1L-123.4-107.1
			C-123.4-107-123.4-107-123.4-107.1C-123.4-107-123.4-107.1-123.4-107.1z"/>
	</g>
	<g transform="translate(48,48)">
		<g transform="scale(12)">
			<path class="st1" d="M-5,2.3C-5,2.3-5,2.3-5,2.3C-5,2.3-5,2.3-5,2.3C-5,2.2-5,2.2-5,2.3C-5.1,2.2-5.1,2.2-5,2.3
				C-5.1,2.2-5.1,2.2-5,2.3c-0.1-0.1-0.1-0.1-0.1-0.1c0,0,0,0,0,0c0,0,0,0,0,0c0,0,0,0,0,0s0,0,0,0c0,0,0,0,0,0c0,0,0,0,0,0
				c0,0,0,0,0,0c0,0,0,0,0,0c0,0,0,0,0,0c0,0,0,0,0,0c0,0,0,0,0,0c0,0,0,0,0,0c0,0,0,0,0,0c0,0,0,0,0,0c0,0,0,0,0,0c0,0,0,0,0,0
				s0,0,0,0c0,0,0,0,0,0c0,0,0,0,0,0c0,0,0,0,0,0s0,0,0,0c0,0,0,0,0,0c0,0,0,0,0,0c0,0,0,0,0,0c0,0,0,0,0,0c0,0,0,0,0,0c0,0,0,0,0,0
				s0,0,0,0c0,0,0,0,0,0s0,0,0,0c0,0,0,0,0,0c0,0,0,0,0,0c0,0,0,0,0,0c0,0,0,0,0,0c0,0,0,0,0,0c0,0,0,0,0,0c0,0,0,0,0,0c0,0,0,0,0,0
				s0,0,0,0c0,0,0,0,0,0c0,0,0,0,0,0C-5,2.4-5,2.4-5,2.3C-5,2.4-5,2.4-5,2.3C-5,2.4-5,2.4-5,2.3C-5,2.3-5,2.3-5,2.3
				C-5,2.3-5,2.3-5,2.3z M-5.1,2.5C-5.1,2.5-5.1,2.5-5.1,2.5C-5.1,2.5-5.1,2.5-5.1,2.5C-5.1,2.5-5.1,2.5-5.1,2.5c-0.1,0-0.1,0-0.1,0
				c0,0,0,0,0,0s0,0,0,0c0,0,0,0,0,0c0,0,0,0,0,0c0,0,0,0,0,0c0,0,0,0,0,0c0,0,0,0,0,0c0,0,0,0,0,0s0,0,0,0c0,0,0,0,0,0c0,0,0,0,0,0
				c0,0,0,0,0,0s0,0,0,0c0,0,0,0,0,0c0,0,0,0,0,0c0,0,0,0,0,0c0,0,0,0,0,0c0,0,0,0,0,0c0,0,0,0,0,0c0,0,0,0,0,0c0,0,0,0,0,0
				c0,0,0,0,0,0c0,0,0,0,0,0s0,0,0,0c0,0,0,0,0,0c0,0,0,0,0,0c0,0,0,0,0,0c0,0,0,0,0,0c0,0,0,0,0,0c0,0,0,0,0,0c0,0,0,0,0,0
				c0,0,0,0,0,0c0,0,0,0,0,0c0,0,0,0,0,0c0,0,0,0,0,0C-5.1,2.4-5.1,2.4-5.1,2.5C-5.1,2.5-5.1,2.5-5.1,2.5C-5.1,2.5-5.1,2.5-5.1,2.5
				C-5.1,2.5-5.1,2.5-5.1,2.5C-5.1,2.5-5.1,2.5-5.1,2.5z"/>
		</g>
	</g>
	<g transform="translate(384,48)">
		<g transform="scale(12)">
			<path class="st1" d="M-32.3,2.3C-32.3,2.3-32.3,2.3-32.3,2.3C-32.3,2.3-32.3,2.3-32.3,2.3C-32.3,2.2-32.3,2.2-32.3,2.3
				C-32.4,2.2-32.4,2.2-32.3,2.3C-32.4,2.2-32.4,2.2-32.3,2.3c-0.1-0.1-0.1-0.1-0.1-0.1c0,0,0,0,0,0c0,0,0,0,0,0c0,0,0,0,0,0
				s0,0,0,0c0,0,0,0,0,0c0,0,0,0,0,0c0,0,0,0,0,0s0,0,0,0c0,0,0,0,0,0c0,0,0,0,0,0c0,0,0,0,0,0c0,0,0,0,0,0c0,0,0,0,0,0c0,0,0,0,0,0
				c0,0,0,0,0,0c0,0,0,0,0,0s0,0,0,0c0,0,0,0,0,0c0,0,0,0,0,0c0,0,0,0,0,0s0,0,0,0c0,0,0,0,0,0c0,0,0,0,0,0c0,0,0,0,0,0c0,0,0,0,0,0
				c0,0,0,0,0,0c0,0,0,0,0,0s0,0,0,0c0,0,0,0,0,0s0,0,0,0c0,0,0,0,0,0c0,0,0,0,0,0c0,0,0,0,0,0c0,0,0,0,0,0c0,0,0,0,0,0c0,0,0,0,0,0
				c0,0,0,0,0,0c0,0,0,0,0,0s0,0,0,0c0,0,0,0,0,0c0,0,0,0,0,0C-32.3,2.4-32.3,2.4-32.3,2.3C-32.3,2.4-32.3,2.4-32.3,2.3
				C-32.3,2.4-32.3,2.4-32.3,2.3C-32.3,2.3-32.3,2.3-32.3,2.3C-32.3,2.3-32.3,2.3-32.3,2.3z M-32.4,2.5C-32.4,2.5-32.4,2.5-32.4,2.5
				C-32.4,2.5-32.4,2.5-32.4,2.5C-32.4,2.5-32.4,2.5-32.4,2.5c-0.1,0-0.1,0-0.1,0c0,0,0,0,0,0c0,0,0,0,0,0c0,0,0,0,0,0c0,0,0,0,0,0
				c0,0,0,0,0,0s0,0,0,0c0,0,0,0,0,0c0,0,0,0,0,0s0,0,0,0c0,0,0,0,0,0c0,0,0,0,0,0c0,0,0,0,0,0s0,0,0,0c0,0,0,0,0,0c0,0,0,0,0,0
				c0,0,0,0,0,0c0,0,0,0,0,0c0,0,0,0,0,0c0,0,0,0,0,0c0,0,0,0,0,0c0,0,0,0,0,0c0,0,0,0,0,0c0,0,0,0,0,0s0,0,0,0c0,0,0,0,0,0
				c0,0,0,0,0,0c0,0,0,0,0,0s0,0,0,0c0,0,0,0,0,0c0,0,0,0,0,0c0,0,0,0,0,0c0,0,0,0,0,0c0,0,0,0,0,0c0,0,0,0,0,0c0,0,0,0,0,0
				C-32.4,2.4-32.4,2.4-32.4,2.5C-32.4,2.5-32.4,2.5-32.4,2.5C-32.4,2.5-32.4,2.5-32.4,2.5C-32.4,2.5-32.4,2.5-32.4,2.5
				C-32.4,2.5-32.4,2.5-32.4,2.5z"/>
		</g>
	</g>
	<g transform="translate(48,384)">
		<g transform="scale(12)">
			<path class="st1" d="M-5-25C-5-25-5-25-5-25C-5-25-5-25-5-25C-5-25.1-5-25.1-5-25C-5.1-25.1-5.1-25.1-5-25
				C-5.1-25.1-5.1-25.1-5-25c-0.1-0.1-0.1-0.1-0.1-0.1c0,0,0,0,0,0c0,0,0,0,0,0c0,0,0,0,0,0s0,0,0,0c0,0,0,0,0,0c0,0,0,0,0,0
				c0,0,0,0,0,0c0,0,0,0,0,0c0,0,0,0,0,0c0,0,0,0,0,0c0,0,0,0,0,0c0,0,0,0,0,0c0,0,0,0,0,0c0,0,0,0,0,0s0,0,0,0c0,0,0,0,0,0s0,0,0,0
				c0,0,0,0,0,0c0,0,0,0,0,0c0,0,0,0,0,0c0,0,0,0,0,0c0,0,0,0,0,0c0,0,0,0,0,0c0,0,0,0,0,0c0,0,0,0,0,0c0,0,0,0,0,0c0,0,0,0,0,0
				s0,0,0,0c0,0,0,0,0,0s0,0,0,0c0,0,0,0,0,0c0,0,0,0,0,0c0,0,0,0,0,0c0,0,0,0,0,0c0,0,0,0,0,0c0,0,0,0,0,0c0,0,0,0,0,0c0,0,0,0,0,0
				c0,0,0,0,0,0c0,0,0,0,0,0s0,0,0,0C-5-24.9-5-24.9-5-25C-5-24.9-5-24.9-5-25C-5-24.9-5-24.9-5-25C-5-25-5-25-5-25C-5-25-5-25-5-25
				z M-5.1-24.8C-5.1-24.8-5.1-24.8-5.1-24.8C-5.1-24.8-5.1-24.8-5.1-24.8C-5.1-24.8-5.1-24.8-5.1-24.8c-0.1,0-0.1,0-0.1,0
				c0,0,0,0,0,0s0,0,0,0c0,0,0,0,0,0c0,0,0,0,0,0c0,0,0,0,0,0c0,0,0,0,0,0c0,0,0,0,0,0c0,0,0,0,0,0c0,0,0,0,0,0c0,0,0,0,0,0
				c0,0,0,0,0,0c0,0,0,0,0,0c0,0,0,0,0,0c0,0,0,0,0,0c0,0,0,0,0,0c0,0,0,0,0,0c0,0,0,0,0,0c0,0,0,0,0,0c0,0,0,0,0,0c0,0,0,0,0,0
				c0,0,0,0,0,0c0,0,0,0,0,0c0,0,0,0,0,0s0,0,0,0c0,0,0,0,0,0c0,0,0,0,0,0c0,0,0,0,0,0c0,0,0,0,0,0c0,0,0,0,0,0c0,0,0,0,0,0
				c0,0,0,0,0,0c0,0,0,0,0,0c0,0,0,0,0,0c0,0,0,0,0,0c0,0,0,0,0,0C-5.1-24.9-5.1-24.9-5.1-24.8C-5.1-24.8-5.1-24.8-5.1-24.8
				C-5.1-24.8-5.1-24.8-5.1-24.8C-5.1-24.8-5.1-24.8-5.1-24.8C-5.1-24.8-5.1-24.8-5.1-24.8z"/>
		</g>
	</g>
	<g transform="translate(96,96)">
		<g transform="scale(12)">
			<path class="st1" d="M-9.1-1.6C-9.1-1.7-9.1-1.7-9.1-1.6C-9.2-1.7-9.2-1.7-9.1-1.6c-0.1,0-0.1,0-0.1,0c0,0,0,0,0,0c0,0,0,0,0,0
				l0,0l0,0c0,0,0,0,0,0L-9.1-1.6C-9.2-1.5-9.2-1.5-9.1-1.6L-9.1-1.6C-9.1-1.6-9.1-1.6-9.1-1.6C-9.1-1.6-9.1-1.6-9.1-1.6z"/>
		</g>
	</g>
	<g transform="translate(432,96)">
		<g transform="scale(12)">
			<path class="st1" d="M-36.4-1.6C-36.4-1.7-36.4-1.7-36.4-1.6C-36.5-1.7-36.5-1.7-36.4-1.6c-0.1,0-0.1,0-0.1,0c0,0,0,0,0,0
				c0,0,0,0,0,0l0,0l0,0c0,0,0,0,0,0L-36.4-1.6C-36.5-1.5-36.5-1.5-36.4-1.6L-36.4-1.6C-36.4-1.6-36.4-1.6-36.4-1.6
				C-36.4-1.6-36.4-1.6-36.4-1.6z"/>
		</g>
	</g>
	<g transform="translate(96,432)">
		<g transform="scale(12)">
			<path class="st1" d="M-9.1-28.9C-9.1-29-9.1-29-9.1-28.9C-9.2-29-9.2-29-9.1-28.9c-0.1,0-0.1,0-0.1,0c0,0,0,0,0,0c0,0,0,0,0,0
				l0,0l0,0c0,0,0,0,0,0L-9.1-28.9C-9.2-28.8-9.2-28.8-9.1-28.9L-9.1-28.9C-9.1-28.9-9.1-28.9-9.1-28.9C-9.1-28.9-9.1-28.9-9.1-28.9
				z"/>
		</g>
	</g>
</g>
</svg>
