<?xml version="1.0" encoding="utf-8"?>
<!-- Generator: Adobe Illustrator 26.0.1, SVG Export Plug-In . SVG Version: 6.00 Build 0)  -->
<svg version="1.1" id="Слой_1" xmlns="http://www.w3.org/2000/svg" xmlns:xlink="http://www.w3.org/1999/xlink" x="0px" y="0px"
	 viewBox="0 0 81.5 22" style="enable-background:new 0 0 81.5 22;" xml:space="preserve">
<style type="text/css">
	.st0{fill:#F29A2F;}
</style>
<path class="st0" d="M8.9,6.1c0.5-0.3,1.1-0.4,1.7-0.4s1.2,0.1,1.7,0.4v2.2c-0.5-0.3-1.1-0.4-1.7-0.4S9.4,8,8.9,8.3S7.8,8.7,7.2,8.7
	S6.1,8.6,5.6,8.3C5.3,8.1,4.9,8,4.5,8v1.8c0.4,0,0.8,0.2,1.1,0.3c0.5,0.3,1.1,0.4,1.7,0.4s1.2-0.1,1.7-0.4c0.5-0.3,1.1-0.4,1.7-0.4
	s1.2,0.1,1.7,0.4v6.2c-0.5-0.3-1.1-0.4-1.7-0.4S9.5,16,9,16.3s-1.1,0.4-1.7,0.4s-1.2-0.1-1.7-0.4s-1.1-0.4-1.7-0.4S2.7,16,2.2,16.3
	v-2.2c0.5-0.3,1.1-0.4,1.7-0.4s1.2,0.1,1.7,0.4c0.5,0.3,1.1,0.4,1.7,0.4s1.2-0.1,1.7-0.4c0.3-0.2,0.7-0.3,1.1-0.3V12
	c-0.4,0-0.8,0.2-1.1,0.3c-0.5,0.3-1.1,0.4-1.7,0.4s-1.2-0.1-1.7-0.4c-0.5-0.3-1.1-0.4-1.7-0.4S2.8,12,2.3,12.3V6.1
	C2.8,5.8,3.4,5.7,4,5.7s1.2,0.1,1.7,0.4s1.1,0.4,1.7,0.4S8.4,6.3,8.9,6.1z"/>
<path class="st0" d="M17.7,16c-0.2,0-0.4,0-0.6,0c-0.6,0-1.2,0.1-1.7,0.4V6.1c0.5-0.3,1.1-0.4,1.7-0.4s1.2,0.1,1.7,0.4
	s1.1,0.4,1.7,0.4s1.2-0.1,1.7-0.4s1.1-0.4,1.7-0.4s1.2,0.1,1.7,0.4v10.2c-0.5-0.3-1.1-0.4-1.7-0.4c-0.2,0-0.4,0-0.6,0v-4
	c-0.4,0-0.8,0.2-1.1,0.3c-0.5,0.3-1.1,0.4-1.7,0.4s-1.2-0.1-1.7-0.4c-0.3-0.2-0.7-0.3-1.1-0.3C17.7,12,17.7,16,17.7,16z M23.2,9.8
	V7.9c-0.4,0-0.8,0.2-1.1,0.3c-0.5,0.3-1.1,0.4-1.7,0.4s-1.2-0.1-1.7-0.4C18.4,8,18,7.9,17.6,7.9v1.8c0.4,0,0.8,0.2,1.1,0.3
	c0.5,0.3,1.1,0.4,1.7,0.4s1.2-0.1,1.7-0.4C22.4,9.9,22.8,9.8,23.2,9.8z"/>
<path class="st0" d="M35.3,6.1c0.5-0.3,1.1-0.4,1.7-0.4s1.2,0.1,1.7,0.4v2.2C38.2,8,37.6,7.9,37,7.9S35.8,8,35.3,8.3
	s-1.1,0.4-1.7,0.4S32.5,8.6,32,8.3C31.6,8.1,31.3,8,30.9,8v5.9c0.4,0,0.8,0.2,1.1,0.3c0.5,0.3,1.1,0.4,1.7,0.4s1.2-0.1,1.7-0.4
	c0.5-0.3,1.1-0.4,1.7-0.4c0.6,0,1.2,0.1,1.7,0.4v2.2c-0.5-0.3-1.1-0.4-1.7-0.4c-0.6,0-1.2,0.1-1.7,0.4s-1.1,0.4-1.7,0.4
	s-1.2-0.1-1.7-0.4S30.9,16,30.3,16s-1.2,0.1-1.7,0.4V6.1c0.5-0.3,1.1-0.4,1.7-0.4s1.2,0.1,1.7,0.4s1.1,0.4,1.7,0.4
	S34.8,6.3,35.3,6.1z"/>
<path class="st0" d="M46.9,6.5c0.6,0,1.2-0.1,1.7-0.4s1.1-0.4,1.7-0.4s1.2,0.1,1.7,0.4v6.2c-0.5-0.3-1.1-0.4-1.7-0.4
	S49,12,48.5,12.3s-1.1,0.4-1.7,0.4s-1.2-0.1-1.7-0.4C44.8,12.1,44.4,12,44,12v1.8c0.4,0,0.8,0.2,1.1,0.3c0.5,0.3,1.1,0.4,1.7,0.4
	s1.2-0.1,1.7-0.4c0.5-0.3,1.1-0.4,1.7-0.4s1.2,0.1,1.7,0.4v2.2c-0.5-0.3-1.1-0.4-1.7-0.4S49,16,48.5,16.3s-1.1,0.4-1.7,0.4
	s-1.2-0.1-1.7-0.4s-1.1-0.4-1.7-0.4c-0.6,0-1.2,0.1-1.7,0.4v-6.2c0.5-0.3,1.1-0.4,1.7-0.4c0.6,0,1.2,0.1,1.7,0.4
	c0.5,0.3,1.1,0.4,1.7,0.4s1.2-0.1,1.7-0.4c0.3-0.2,0.7-0.3,1.1-0.3V7.9c-0.4,0-0.8,0.2-1.1,0.3c-0.5,0.3-1.1,0.4-1.7,0.4
	s-1.2-0.1-1.7-0.4c-0.5-0.3-1.1-0.4-1.7-0.4c-0.6,0-1.2,0.1-1.7,0.4V6c0.5-0.3,1.1-0.4,1.7-0.4c0.6,0,1.2,0.1,1.7,0.4
	C45.7,6.3,46.2,6.5,46.9,6.5z"/>
<path class="st0" d="M58.9,6.3c0.3,0.1,0.7,0.2,1.1,0.2s0.8,0,1.1-0.2v4.1c0.2,0,0.4-0.1,0.6-0.2c0.5-0.3,1.1-0.4,1.7-0.4
	s1.2,0.1,1.7,0.4v6.2C64.6,16.1,64,16,63.4,16c-0.2,0-0.4,0-0.6,0v-4c-0.4,0-0.8,0.2-1.1,0.3c-0.5,0.3-1.1,0.4-1.7,0.4
	s-1.2-0.1-1.7-0.4c-0.3-0.2-0.6-0.3-1-0.3v4c-0.2,0-0.4,0-0.6,0c-0.6,0-1.2,0.1-1.7,0.4V6.1c0.5-0.3,1.1-0.4,1.7-0.4
	c0.2,0,0.4,0,0.6,0v4c0.4,0,0.8,0.2,1.1,0.3c0.2,0.1,0.4,0.2,0.6,0.2L58.9,6.3L58.9,6.3z"/>
<path class="st0" d="M72.1,8.5c-0.2,0-0.4-0.1-0.6-0.2C71,8,70.4,7.9,69.8,7.9S68.7,8,68.3,8.3V6c0.5-0.3,1.1-0.4,1.7-0.4
	s1.2,0.1,1.7,0.4s1.1,0.4,1.7,0.4s1.2-0.1,1.7-0.4s1.1-0.4,1.7-0.4S78,5.7,78.5,6v2.2c-0.5-0.3-1.1-0.4-1.7-0.4S75.3,8,74.9,8.3
	c-0.2,0.1-0.4,0.2-0.6,0.2v5.9c0.2,0,0.4-0.1,0.6-0.2c0.5-0.3,1.1-0.4,1.7-0.4s1.2,0.1,1.7,0.4v2.2c-0.5-0.3-1.1-0.4-1.7-0.4
	s-1.2,0.1-1.7,0.4s-1.1,0.4-1.7,0.4s-1.2-0.1-1.7-0.4S70.4,16,69.8,16s-1.2,0.1-1.7,0.4v-2.2c0.5-0.3,1.1-0.4,1.7-0.4
	s1.2,0.1,1.7,0.4c0.2,0.1,0.4,0.2,0.6,0.2C72.1,14.4,72.1,8.5,72.1,8.5z"/>
<path class="st0" d="M30.2,16.8c-0.5,0-1,0.1-1.4,0.4s-0.9,0.4-1.4,0.4c-0.2,0-0.3,0-1.4-0.4c-1.2-0.4-1.4-0.4-1.7-0.4
	c-0.5-0.1-0.9,0-1.1,0c0,0.7,0,1.4,0,2.1c0.6,0,1.1,0,1.4,0.1c0.6,0.1,0.9,0.2,1.4,0.4c0.2,0.1,0.4,0.2,0.5,0.2
	c0.2,0.1,0.6,0.2,1,0.2s0.7-0.1,0.9-0.2c0.2-0.1,0.3-0.2,0.5-0.2c0.4-0.3,0.9-0.4,1.4-0.4s1,0.1,1.4,0.4v-2.2
	C31.2,16.9,30.8,16.8,30.2,16.8z"/>
<g>
	<path class="st0" d="M8.9-24.4c0.5-0.3,1.1-0.4,1.7-0.4s1.2,0.1,1.7,0.4v2.2c-0.5-0.3-1.1-0.4-1.7-0.4s-1.2,0.1-1.7,0.4
		c-0.5,0.3-1.1,0.4-1.7,0.4s-1.1-0.1-1.6-0.4c-0.3-0.2-0.7-0.3-1.1-0.3v1.8c0.4,0,0.8,0.2,1.1,0.3C6.1-20.1,6.7-20,7.3-20
		s1.2-0.1,1.7-0.4s1.1-0.4,1.7-0.4s1.2,0.1,1.7,0.4v6.2c-0.5-0.3-1.1-0.4-1.7-0.4S9.5-14.5,9-14.2s-1.1,0.4-1.7,0.4
		s-1.2-0.1-1.7-0.4s-1.1-0.4-1.7-0.4s-1.2,0.1-1.7,0.4v-2.2c0.5-0.3,1.1-0.4,1.7-0.4s1.2,0.1,1.7,0.4S6.7-16,7.3-16s1.2-0.1,1.7-0.4
		c0.3-0.2,0.7-0.3,1.1-0.3v-1.8c-0.4,0-0.8,0.2-1.1,0.3c-0.5,0.3-1.1,0.4-1.7,0.4s-1.2-0.1-1.7-0.4s-1.1-0.4-1.7-0.4
		s-1.1,0.1-1.6,0.4v-6.2c0.5-0.3,1.1-0.4,1.7-0.4s1.2,0.1,1.7,0.4C6.2-24.1,6.8-24,7.4-24S8.4-24.2,8.9-24.4z"/>
	<path class="st0" d="M17.7-14.5c-0.2,0-0.4,0-0.6,0c-0.6,0-1.2,0.1-1.7,0.4v-10.3c0.5-0.3,1.1-0.4,1.7-0.4s1.2,0.1,1.7,0.4
		c0.5,0.3,1.1,0.4,1.7,0.4s1.2-0.1,1.7-0.4c0.5-0.3,1.1-0.4,1.7-0.4s1.2,0.1,1.7,0.4v10.2c-0.5-0.3-1.1-0.4-1.7-0.4
		c-0.2,0-0.4,0-0.6,0v-4c-0.4,0-0.8,0.2-1.1,0.3c-0.5,0.3-1.1,0.4-1.7,0.4s-1.2-0.1-1.7-0.4c-0.3-0.2-0.7-0.3-1.1-0.3
		C17.7-18.5,17.7-14.5,17.7-14.5z M23.2-20.7v-1.9c-0.4,0-0.8,0.2-1.1,0.3c-0.5,0.3-1.1,0.4-1.7,0.4s-1.2-0.1-1.7-0.4
		c-0.3-0.2-0.7-0.3-1.1-0.3v1.8c0.4,0,0.8,0.2,1.1,0.3c0.5,0.3,1.1,0.4,1.7,0.4s1.2-0.1,1.7-0.4C22.4-20.6,22.8-20.7,23.2-20.7z"/>
	<path class="st0" d="M35.3-24.4c0.5-0.3,1.1-0.4,1.7-0.4s1.2,0.1,1.7,0.4v2.2c-0.5-0.3-1.1-0.4-1.7-0.4s-1.2,0.1-1.7,0.4
		c-0.5,0.3-1.1,0.4-1.7,0.4s-1.1-0.1-1.6-0.4c-0.4-0.2-0.7-0.3-1.1-0.3v5.9c0.4,0,0.8,0.2,1.1,0.3c0.5,0.3,1.1,0.4,1.7,0.4
		s1.2-0.1,1.7-0.4c0.5-0.3,1.1-0.4,1.7-0.4c0.6,0,1.2,0.1,1.7,0.4v2.2c-0.5-0.3-1.1-0.4-1.7-0.4c-0.6,0-1.2,0.1-1.7,0.4
		s-1.1,0.4-1.7,0.4s-1.2-0.1-1.7-0.4s-1.1-0.4-1.7-0.4s-1.2,0.1-1.7,0.4v-10.3c0.5-0.3,1.1-0.4,1.7-0.4s1.2,0.1,1.7,0.4
		c0.5,0.3,1.1,0.4,1.7,0.4S34.8-24.2,35.3-24.4z"/>
	<path class="st0" d="M46.9-24c0.6,0,1.2-0.1,1.7-0.4c0.5-0.3,1.1-0.4,1.7-0.4s1.2,0.1,1.7,0.4v6.2c-0.5-0.3-1.1-0.4-1.7-0.4
		s-1.3,0.1-1.8,0.4c-0.5,0.3-1.1,0.4-1.7,0.4s-1.2-0.1-1.7-0.4c-0.3-0.2-0.7-0.3-1.1-0.3v1.8c0.4,0,0.8,0.2,1.1,0.3
		c0.5,0.3,1.1,0.4,1.7,0.4s1.2-0.1,1.7-0.4s1.1-0.4,1.7-0.4s1.2,0.1,1.7,0.4v2.2c-0.5-0.3-1.1-0.4-1.7-0.4s-1.2,0.1-1.7,0.4
		s-1.1,0.4-1.7,0.4s-1.2-0.1-1.7-0.4s-1.1-0.4-1.7-0.4c-0.6,0-1.2,0.1-1.7,0.4v-6.2c0.5-0.3,1.1-0.4,1.7-0.4c0.6,0,1.2,0.1,1.7,0.4
		s1.1,0.4,1.7,0.4s1.2-0.1,1.7-0.4c0.3-0.2,0.7-0.3,1.1-0.3v-1.9c-0.4,0-0.8,0.2-1.1,0.3c-0.5,0.3-1.1,0.4-1.7,0.4s-1.2-0.1-1.7-0.4
		c-0.5-0.3-1.1-0.4-1.7-0.4c-0.6,0-1.2,0.1-1.7,0.4v-2.2c0.5-0.3,1.1-0.4,1.7-0.4c0.6,0,1.2,0.1,1.7,0.4C45.7-24.2,46.2-24,46.9-24z
		"/>
	<path class="st0" d="M58.9-24.2c0.3,0.1,0.7,0.2,1.1,0.2s0.8,0,1.1-0.2v4.1c0.2,0,0.4-0.1,0.6-0.2c0.5-0.3,1.1-0.4,1.7-0.4
		s1.2,0.1,1.7,0.4v6.2c-0.5-0.3-1.1-0.4-1.7-0.4c-0.2,0-0.4,0-0.6,0v-4c-0.4,0-0.8,0.2-1.1,0.3c-0.5,0.3-1.1,0.4-1.7,0.4
		s-1.2-0.1-1.7-0.4c-0.3-0.2-0.6-0.3-1-0.3v4c-0.2,0-0.4,0-0.6,0c-0.6,0-1.2,0.1-1.7,0.4v-10.3c0.5-0.3,1.1-0.4,1.7-0.4
		c0.2,0,0.4,0,0.6,0v4c0.4,0,0.8,0.2,1.1,0.3c0.2,0.1,0.4,0.2,0.6,0.2L58.9-24.2L58.9-24.2z"/>
	<path class="st0" d="M72.1-22c-0.2,0-0.4-0.1-0.6-0.2c-0.5-0.3-1.1-0.4-1.7-0.4s-1.1,0.1-1.5,0.4v-2.3c0.5-0.3,1.1-0.4,1.7-0.4
		s1.2,0.1,1.7,0.4c0.5,0.3,1.1,0.4,1.7,0.4s1.2-0.1,1.7-0.4c0.5-0.3,1.1-0.4,1.7-0.4s1.2,0.1,1.7,0.4v2.2c-0.5-0.3-1.1-0.4-1.7-0.4
		s-1.5,0.2-1.9,0.5c-0.2,0.1-0.4,0.2-0.6,0.2v5.9c0.2,0,0.4-0.1,0.6-0.2c0.5-0.3,1.1-0.4,1.7-0.4s1.2,0.1,1.7,0.4v2.2
		c-0.5-0.3-1.1-0.4-1.7-0.4s-1.2,0.1-1.7,0.4s-1.1,0.4-1.7,0.4s-1.2-0.1-1.7-0.4s-1.1-0.4-1.7-0.4s-1.2,0.1-1.7,0.4v-2.2
		c0.5-0.3,1.1-0.4,1.7-0.4s1.2,0.1,1.7,0.4c0.2,0.1,0.4,0.2,0.6,0.2C72.1-16.1,72.1-22,72.1-22z"/>
	<path class="st0" d="M30.2-13.7c-0.5,0-1,0.1-1.4,0.4s-0.9,0.4-1.4,0.4c-0.2,0-0.3,0-1.4-0.4c-1.2-0.4-1.4-0.4-1.7-0.4
		c-0.5-0.1-0.9,0-1.1,0c0,0.7,0,1.4,0,2.1c0.6,0,1.1,0,1.4,0.1c0.6,0.1,0.9,0.2,1.4,0.4c0.2,0.1,0.4,0.2,0.5,0.2
		c0.2,0.1,0.6,0.2,1,0.2s0.7-0.1,0.9-0.2c0.2-0.1,0.3-0.2,0.5-0.2c0.4-0.3,0.9-0.4,1.4-0.4s1,0.1,1.4,0.4v-2.2
		C31.2-13.6,30.8-13.7,30.2-13.7z"/>
	<path class="st0" d="M85.2-24.4c0.5-0.3,1.1-0.4,1.7-0.4s1.2,0.1,1.7,0.4c0.5,0.3,1.1,0.4,1.7,0.4s1.2-0.1,1.7-0.4
		c0.5-0.3,1.1-0.4,1.7-0.4s1.2,0.1,1.7,0.4v6.2c-0.5-0.3-1.1-0.4-1.7-0.4s-1.2,0.1-1.7,0.4s-1.1,0.4-1.7,0.4s-1.2-0.1-1.7-0.4
		c-0.3-0.2-0.7-0.3-1.1-0.3v4c-0.2,0-0.4,0-0.6,0c-0.6,0-1.2,0.1-1.7,0.4V-24.4L85.2-24.4z M88.5-22.2c-0.3-0.2-0.7-0.3-1.1-0.3v1.8
		c0.4,0,0.8,0.2,1.1,0.3c0.5,0.3,1.1,0.4,1.7,0.4s1.2-0.1,1.7-0.4c0.3-0.2,0.7-0.3,1.1-0.3v-1.9c-0.4,0-0.8,0.2-1.1,0.3
		c-0.5,0.3-1.1,0.4-1.7,0.4S89-22,88.5-22.2z"/>
	<path class="st0" d="M98.4-24.4c0.5-0.3,1.1-0.4,1.7-0.4s1.2,0.1,1.7,0.4c0.5,0.3,1.1,0.4,1.7,0.4c0.4,0,0.8,0,1.1-0.2v4
		c0.2,0,0.4-0.1,0.6-0.2c0.5-0.3,1.1-0.4,1.7-0.4s1.2,0.1,1.7,0.4v6.2c-0.5-0.3-1.1-0.4-1.7-0.4c-0.2,0-0.4,0-0.6,0v-4
		c-0.4,0-0.8,0.2-1.1,0.3c-0.5,0.3-1.1,0.4-1.7,0.4s-1.2-0.1-1.7-0.4c-0.3-0.2-0.7-0.3-1.1-0.3v4c-0.2,0-0.4,0-0.6,0
		c-0.6,0-1.2,0.1-1.7,0.4V-24.4z M100.6-22.5v1.8c0.4,0,0.8,0.2,1.1,0.3c0.2,0.1,0.4,0.2,0.6,0.2V-22c-0.2,0-0.4-0.1-0.6-0.2
		C101.4-22.4,101-22.5,100.6-22.5z"/>
	<path class="st0" d="M116.6-24c0.6,0,1.2-0.1,1.7-0.4c0.5-0.3,1.1-0.4,1.7-0.4s1.2,0.1,1.7,0.4v6.2c-0.5-0.3-1.1-0.4-1.7-0.4
		s-1.2,0.1-1.7,0.4s-1.1,0.4-1.7,0.4s-1.2-0.1-1.7-0.4c-0.3-0.2-0.7-0.3-1.1-0.3v1.8c0.4,0,0.8,0.2,1.1,0.3c0.5,0.3,1.1,0.4,1.7,0.4
		s1.2-0.1,1.7-0.4c0.5-0.3,1.1-0.4,1.7-0.4s1.2,0.1,1.7,0.4v2.2c-0.5-0.3-1.1-0.4-1.7-0.4s-1.2,0.1-1.7,0.4s-1.1,0.4-1.7,0.4
		s-1.2-0.1-1.7-0.4c-0.5-0.3-1.1-0.4-1.7-0.4s-1.2,0.1-1.7,0.4v-6.2c0.5-0.3,1.1-0.4,1.7-0.4s1.2,0.1,1.7,0.4s1.1,0.4,1.7,0.4
		s1.2-0.1,1.7-0.4c0.3-0.2,0.7-0.3,1.1-0.3v-1.9c-0.4,0-0.8,0.2-1.1,0.3c-0.5,0.3-1.1,0.4-1.7,0.4s-1.2-0.1-1.7-0.4
		c-0.5-0.3-1.1-0.4-1.7-0.4s-1.2,0.1-1.7,0.4v-2.2c0.5-0.3,1.1-0.4,1.7-0.4s1.2,0.1,1.7,0.4C115.4-24.2,115.9-24,116.6-24z"/>
	<path class="st0" d="M131.4-24.4c0.5-0.3,1.1-0.4,1.7-0.4c0.6,0,1.2,0.1,1.7,0.4v2.2c-0.5-0.3-1.1-0.4-1.7-0.4
		c-0.6,0-1.2,0.1-1.7,0.4c-0.5,0.3-1.1,0.4-1.7,0.4s-1.2-0.1-1.7-0.4c-0.2-0.2-0.6-0.3-1-0.3v1.8c0.4,0,0.8,0.2,1.1,0.3
		c0.5,0.3,1.1,0.4,1.7,0.4s1.2-0.1,1.7-0.4s1.1-0.4,1.7-0.4c0.6,0,1.2,0.1,1.7,0.4v2.2c-0.5-0.3-1.1-0.4-1.7-0.4
		c-0.6,0-1.2,0.1-1.7,0.4s-1.1,0.4-1.7,0.4s-1.2-0.1-1.7-0.4c-0.3-0.2-0.7-0.3-1.1-0.3v1.8c0.4,0,0.8,0.2,1.1,0.3
		c0.5,0.3,1.1,0.4,1.7,0.4s1.2-0.1,1.7-0.4s1.1-0.4,1.7-0.4c0.6,0,1.2,0.1,1.7,0.4v2.1c-0.5-0.3-1.1-0.4-1.7-0.4
		c-0.6,0-1.2,0.1-1.7,0.4s-1.1,0.4-1.7,0.4s-1.2-0.1-1.7-0.4s-1.1-0.4-1.7-0.4s-1.2,0.1-1.7,0.4v-10.1c0.5-0.3,1.1-0.4,1.7-0.4
		s1.2,0.1,1.7,0.4c0.5,0.3,1.1,0.4,1.7,0.4S130.9-24.2,131.4-24.4z"/>
	<path class="st0" d="M138-24.4c0.5-0.3,1.1-0.4,1.7-0.4s1.2,0.1,1.7,0.4c0.5,0.3,1.1,0.4,1.7,0.4c0.4,0,0.8,0,1.1-0.2v4
		c0.2,0,0.4-0.1,0.6-0.2c0.5-0.3,1.1-0.4,1.7-0.4s1.2,0.1,1.7,0.4v6.2c-0.5-0.3-1.1-0.4-1.7-0.4c-0.2,0-0.4,0-0.6,0v-4
		c-0.4,0-0.8,0.2-1.1,0.3c-0.5,0.3-1.1,0.4-1.7,0.4s-1.2-0.1-1.7-0.4c-0.3-0.2-0.7-0.3-1.1-0.3v4c-0.2,0-0.4,0-0.6,0
		c-0.6,0-1.2,0.1-1.7,0.4L138-24.4L138-24.4z M140.2-22.5v1.8c0.4,0,0.8,0.2,1.1,0.3c0.2,0.1,0.4,0.2,0.6,0.2V-22
		c-0.2,0-0.4-0.1-0.6-0.2C141-22.4,140.6-22.5,140.2-22.5z"/>
	<path class="st0" d="M154.5-14.2c-0.5-0.3-1.1-0.4-1.7-0.4s-1.2,0.1-1.7,0.4v-10.2c0.5-0.3,1.1-0.4,1.7-0.4s1.2,0.1,1.7,0.4
		c0.5,0.3,1.1,0.4,1.7,0.4s1.2-0.1,1.7-0.4c0.5-0.3,1.1-0.4,1.7-0.4s1.2,0.1,1.7,0.4v10.2c-0.5-0.3-1.1-0.4-1.7-0.4
		s-1.2,0.1-1.7,0.4s-1.1,0.4-1.7,0.4S155-13.9,154.5-14.2z M153.4-16.7c0.4,0,0.8,0.2,1.1,0.3c0.5,0.3,1.1,0.4,1.7,0.4
		s1.2-0.1,1.7-0.4c0.3-0.2,0.7-0.3,1.1-0.3v-5.8c-0.4,0-0.8,0.2-1.1,0.3c-0.5,0.3-1.1,0.4-1.7,0.4s-1.2-0.1-1.7-0.4
		c-0.3-0.2-0.7-0.3-1.1-0.3V-16.7z"/>
	<path class="st0" d="M174.3-14.2c-0.5-0.3-1.1-0.4-1.7-0.4s-1.2,0.1-1.7,0.4s-1.1,0.4-1.7,0.4s-1.2-0.1-1.7-0.4s-1.1-0.4-1.7-0.4
		s-1.2,0.1-1.7,0.4v-10.2c0.5-0.3,1.1-0.4,1.7-0.4s1.2,0.1,1.7,0.4c0.5,0.3,1.1,0.4,1.7,0.4c0.4,0,0.8,0,1.1-0.2v4
		c0.2,0,0.4-0.1,0.6-0.2c0.5-0.3,1.1-0.4,1.7-0.4s1.2,0.1,1.7,0.4L174.3-14.2L174.3-14.2z M167.7-20.4c0.2,0.1,0.4,0.2,0.6,0.2V-22
		c-0.2,0-0.4-0.1-0.6-0.2c-0.3-0.2-0.7-0.3-1.1-0.3v1.8C167-20.7,167.4-20.6,167.7-20.4z M172.1-18.5c-0.4,0-0.8,0.2-1.1,0.3
		c-0.5,0.3-1.1,0.4-1.7,0.4s-1.2-0.1-1.7-0.4c-0.3-0.2-0.7-0.3-1.1-0.3v1.8c0.4,0,0.8,0.2,1.1,0.3c0.5,0.3,1.1,0.4,1.7,0.4
		s1.2-0.1,1.7-0.4c0.3-0.2,0.7-0.3,1.1-0.3V-18.5z"/>
	<path class="st0" d="M181.5-24.2c0.3,0.1,0.7,0.2,1.1,0.2c0.4,0,0.8,0,1.1-0.2v4.1c0.2,0,0.4-0.1,0.6-0.2c0.5-0.3,1.1-0.4,1.7-0.4
		s1.2,0.1,1.7,0.4v6.2c-0.5-0.3-1.1-0.4-1.7-0.4c-0.2,0-0.4,0-0.6,0v-4c-0.4,0-0.8,0.2-1.1,0.3c-0.5,0.3-1.1,0.4-1.7,0.4
		s-1.2-0.1-1.7-0.4c-0.3-0.2-0.7-0.3-1.1-0.3v4c-0.2,0-0.4,0-0.6,0c-0.6,0-1.2,0.1-1.7,0.4v-10.3c0.5-0.3,1.1-0.4,1.7-0.4
		c0.2,0,0.4,0,0.6,0v4c0.4,0,0.8,0.2,1.1,0.3c0.2,0.1,0.4,0.2,0.6,0.2L181.5-24.2L181.5-24.2z"/>
	<path class="st0" d="M193-14.5c-0.2,0-0.4,0-0.6,0c-0.6,0-1.2,0.1-1.7,0.4v-10.3c0.5-0.3,1.1-0.4,1.7-0.4c0.6,0,1.2,0.1,1.7,0.4
		c0.5,0.3,1.1,0.4,1.7,0.4c0.6,0,1.2-0.1,1.7-0.4c0.5-0.3,1.1-0.4,1.7-0.4c0.6,0,1.2,0.1,1.7,0.4v10.2c-0.5-0.3-1.1-0.4-1.7-0.4
		c-0.2,0-0.4,0-0.6,0v-4c-0.4,0-0.8,0.2-1.1,0.3c-0.5,0.3-1.1,0.4-1.7,0.4c-0.6,0-1.2-0.1-1.7-0.4c-0.3-0.2-0.7-0.3-1.1-0.3
		L193-14.5L193-14.5z M198.5-20.7v-1.9c-0.4,0-0.8,0.2-1.1,0.3c-0.5,0.3-1.1,0.4-1.7,0.4c-0.6,0-1.2-0.1-1.7-0.4
		c-0.3-0.2-0.7-0.3-1.1-0.3v1.8c0.4,0,0.8,0.2,1.1,0.3c0.5,0.3,1.1,0.4,1.7,0.4c0.6,0,1.2-0.1,1.7-0.4
		C197.7-20.6,198.1-20.7,198.5-20.7z"/>
	<path class="st0" d="M157.8-27.8c-0.1,0.1-0.2,0.1-0.4,0.2c-0.3,0.2-0.8,0.3-1.2,0.3s-0.8-0.1-1.1-0.2l0,0
		c-0.2-0.1-0.4-0.2-0.6-0.2c-0.5-0.3-1.1-0.4-1.7-0.4c-0.6,0-1.2,0.1-1.7,0.4v2.2c0.5-0.3,1.1-0.4,1.7-0.4c0.6,0,1.2,0.1,1.7,0.4
		c0.5,0.3,1.1,0.4,1.7,0.4c0.6,0,1.2-0.1,1.7-0.4c0.5-0.3,1.1-0.4,1.7-0.4c0.6,0,1.2,0.1,1.7,0.4v-2.3c-0.5-0.3-1.1-0.4-1.7-0.4
		C158.8-28.2,158.3-28.1,157.8-27.8z"/>
</g>
</svg>
