<svg width="10" height="32" viewBox="0 0 10 32" fill="none" xmlns="http://www.w3.org/2000/svg">
<path d="M3.047 5.428L9.6595 3.473L9.6595 0.966L1 0.966L1 2.622L8.0725 2.622L1 4.623L1 6.233L8.0725 8.234L1 8.234L1 9.89L9.6595 9.89L9.6595 7.383L3.047 5.428ZM3.8635 17.1619C5.7265 17.1619 7.141 16.1499 7.141 14.2179C7.141 12.2859 5.692 11.2739 4.0015 11.2739C2.311 11.2739 0.861999 12.1824 0.861999 14.1489C0.861999 15.8394 1.6555 16.7479 2.9665 17.0584L2.9665 15.5289C2.3225 15.3564 2.012 14.9539 2.012 14.2524C2.012 13.4244 2.587 12.8609 3.8635 12.8264L3.8635 17.1619ZM6.037 14.2294C6.037 14.9769 5.7035 15.4024 4.864 15.5634L4.864 12.9069C5.7265 13.0909 6.037 13.5739 6.037 14.2294ZM4.174 19.9907C5.439 19.9907 5.83 20.7037 5.83 21.3132C5.83 22.1642 5.1745 22.3712 4.2545 22.3712L0.999999 22.3712L0.999999 23.9582L4.151 23.9582C5.761 23.9582 7.141 23.5442 7.141 21.8307C7.141 20.7152 6.4165 20.1287 6.1405 19.9907L7.003 19.9907L7.003 18.4037L0.999999 18.4037L0.999999 19.9907L4.174 19.9907ZM3.829 29.4448C2.564 29.4448 2.173 28.7318 2.173 28.1223C2.173 27.2713 2.8285 27.0643 3.7485 27.0643L7.003 27.0643L7.003 25.4773L3.852 25.4773C2.242 25.4773 0.861999 25.8913 0.861999 27.6048C0.861999 28.7203 1.552 29.3068 1.828 29.4448L0.999999 29.4448L0.999999 31.0318L7.003 31.0318L7.003 29.4448L3.829 29.4448Z" fill="#F29A2F"/>
</svg>
