<svg width="25" height="25" viewBox="0 0 25 25" fill="none" xmlns="http://www.w3.org/2000/svg">
<path d="M9.08649 13.9986C9.13249 15.3096 9.71899 17.1381 12.525 17.1381C14.4685 17.1381 15.814 16.2066 15.814 14.6656C15.814 13.4581 15.2275 12.6301 13.8705 12.4346C14.963 12.1586 15.4805 11.7101 15.4805 10.5256C15.4805 9.28364 14.4225 8.20264 12.594 8.20264C10.3975 8.20264 9.47749 9.59414 9.44299 10.9971H10.961C10.9955 9.92764 11.651 9.54814 12.5595 9.54814C13.5025 9.54814 13.997 10.0541 13.997 10.6636C13.997 11.5836 13.4335 11.9056 12.3295 11.9401H10.984V13.1821H12.3295C13.6865 13.1821 14.2845 13.5271 14.2845 14.4931C14.2845 15.3096 13.583 15.7926 12.5825 15.7926C11.306 15.7926 10.685 15.3556 10.6275 13.9986H9.08649Z" fill="#6E7D33"/>
</svg>
