<svg width="161" height="866" viewBox="0 0 161 866" fill="none" xmlns="http://www.w3.org/2000/svg">
<g clip-path="url(#clip0_912_175)">
<rect x="-670.483" y="366.134" width="1074.77" height="1.42182" transform="rotate(46.6517 -670.483 366.134)" fill="#6E7D33"/>
<rect x="-653.451" y="350.056" width="1074.77" height="1.42182" transform="rotate(46.6517 -653.451 350.056)" fill="#6E7D33"/>
<rect x="-636.419" y="333.979" width="1074.77" height="1.42182" transform="rotate(46.6517 -636.419 333.979)" fill="#6E7D33"/>
<rect x="-619.386" y="317.901" width="1074.77" height="1.42182" transform="rotate(46.6517 -619.386 317.901)" fill="#6E7D33"/>
<rect x="-602.354" y="301.823" width="1074.77" height="1.42182" transform="rotate(46.6517 -602.354 301.823)" fill="#6E7D33"/>
<rect x="-585.322" y="285.746" width="1074.77" height="1.42182" transform="rotate(46.6517 -585.322 285.746)" fill="#6E7D33"/>
<rect x="-568.29" y="269.668" width="1074.77" height="1.42182" transform="rotate(46.6517 -568.29 269.668)" fill="#6E7D33"/>
<rect x="-551.257" y="253.591" width="1074.77" height="1.42182" transform="rotate(46.6517 -551.257 253.591)" fill="#6E7D33"/>
<rect x="-534.225" y="237.513" width="1074.77" height="1.42182" transform="rotate(46.6517 -534.225 237.513)" fill="#6E7D33"/>
<rect x="-517.193" y="221.436" width="1074.77" height="1.42182" transform="rotate(46.6517 -517.193 221.436)" fill="#6E7D33"/>
<rect x="-500.161" y="205.358" width="1074.77" height="1.42182" transform="rotate(46.6517 -500.161 205.358)" fill="#6E7D33"/>
<rect x="-483.128" y="189.281" width="1074.77" height="1.42182" transform="rotate(46.6517 -483.128 189.281)" fill="#6E7D33"/>
<rect x="-466.096" y="173.203" width="1074.77" height="1.42182" transform="rotate(46.6517 -466.096 173.203)" fill="#6E7D33"/>
<rect x="-449.064" y="157.125" width="1074.77" height="1.42182" transform="rotate(46.6517 -449.064 157.125)" fill="#6E7D33"/>
<rect x="-432.032" y="141.048" width="1074.77" height="1.42182" transform="rotate(46.6517 -432.032 141.048)" fill="#6E7D33"/>
<rect x="-414.999" y="124.97" width="1074.77" height="1.42182" transform="rotate(46.6517 -414.999 124.97)" fill="#6E7D33"/>
<rect x="-397.967" y="108.893" width="1074.77" height="1.42182" transform="rotate(46.6517 -397.967 108.893)" fill="#6E7D33"/>
<rect x="-380.935" y="92.8152" width="1074.77" height="1.42182" transform="rotate(46.6517 -380.935 92.8152)" fill="#6E7D33"/>
<rect x="-363.902" y="76.7375" width="1074.77" height="1.42182" transform="rotate(46.6517 -363.902 76.7375)" fill="#6E7D33"/>
<rect x="-346.87" y="60.6599" width="1074.77" height="1.42182" transform="rotate(46.6517 -346.87 60.6599)" fill="#6E7D33"/>
<rect x="-329.838" y="44.5825" width="1074.77" height="1.42182" transform="rotate(46.6517 -329.838 44.5825)" fill="#6E7D33"/>
<rect x="-312.806" y="28.5049" width="1074.77" height="1.42182" transform="rotate(46.6517 -312.806 28.5049)" fill="#6E7D33"/>
<rect x="-295.773" y="12.4272" width="1074.77" height="1.42182" transform="rotate(46.6517 -295.773 12.4272)" fill="#6E7D33"/>
<rect x="-278.741" y="-3.65015" width="1074.77" height="1.42182" transform="rotate(46.6517 -278.741 -3.65015)" fill="#6E7D33"/>
<rect x="-261.709" y="-19.7278" width="1074.77" height="1.42182" transform="rotate(46.6517 -261.709 -19.7278)" fill="#6E7D33"/>
<rect x="-244.677" y="-35.8054" width="1074.77" height="1.42182" transform="rotate(46.6517 -244.677 -35.8054)" fill="#6E7D33"/>
<rect x="-227.644" y="-51.8831" width="1074.77" height="1.42182" transform="rotate(46.6517 -227.644 -51.8831)" fill="#6E7D33"/>
<rect x="-210.612" y="-67.9604" width="1074.77" height="1.42182" transform="rotate(46.6517 -210.612 -67.9604)" fill="#6E7D33"/>
<rect x="-193.58" y="-84.0381" width="1074.77" height="1.42182" transform="rotate(46.6517 -193.58 -84.0381)" fill="#6E7D33"/>
<rect x="-176.547" y="-100.116" width="1074.77" height="1.42182" transform="rotate(46.6517 -176.547 -100.116)" fill="#6E7D33"/>
<rect x="-159.515" y="-116.193" width="1074.77" height="1.42182" transform="rotate(46.6517 -159.515 -116.193)" fill="#6E7D33"/>
<rect x="-142.483" y="-132.271" width="1074.77" height="1.42182" transform="rotate(46.6517 -142.483 -132.271)" fill="#6E7D33"/>
<rect x="-125.451" y="-148.348" width="1074.77" height="1.42182" transform="rotate(46.6517 -125.451 -148.348)" fill="#6E7D33"/>
<rect x="-108.418" y="-164.426" width="1074.77" height="1.42182" transform="rotate(46.6517 -108.418 -164.426)" fill="#6E7D33"/>
<rect x="-91.386" y="-180.504" width="1074.77" height="1.42182" transform="rotate(46.6517 -91.386 -180.504)" fill="#6E7D33"/>
<rect x="-74.3537" y="-196.581" width="1074.77" height="1.42182" transform="rotate(46.6517 -74.3537 -196.581)" fill="#6E7D33"/>
<rect x="-57.3214" y="-212.659" width="1074.77" height="1.42182" transform="rotate(46.6517 -57.3214 -212.659)" fill="#6E7D33"/>
<rect x="-40.2891" y="-228.736" width="1074.77" height="1.42182" transform="rotate(46.6517 -40.2891 -228.736)" fill="#6E7D33"/>
<rect x="-23.2568" y="-244.814" width="1074.77" height="1.42182" transform="rotate(46.6517 -23.2568 -244.814)" fill="#6E7D33"/>
<rect x="-6.22455" y="-260.891" width="1074.77" height="1.42182" transform="rotate(46.6517 -6.22455 -260.891)" fill="#6E7D33"/>
<rect x="10.8077" y="-276.969" width="1074.77" height="1.42182" transform="rotate(46.6517 10.8077 -276.969)" fill="#6E7D33"/>
<rect x="27.84" y="-293.047" width="1074.77" height="1.42182" transform="rotate(46.6517 27.84 -293.047)" fill="#6E7D33"/>
<rect x="44.8723" y="-309.124" width="1074.77" height="1.42182" transform="rotate(46.6517 44.8723 -309.124)" fill="#6E7D33"/>
<rect x="61.9046" y="-325.202" width="1074.77" height="1.42182" transform="rotate(46.6517 61.9046 -325.202)" fill="#6E7D33"/>
<rect x="78.9368" y="-341.279" width="1074.77" height="1.42182" transform="rotate(46.6517 78.9368 -341.279)" fill="#6E7D33"/>
<rect x="95.969" y="-357.357" width="1074.77" height="1.42182" transform="rotate(46.6517 95.969 -357.357)" fill="#6E7D33"/>
<rect x="113.001" y="-373.434" width="1074.77" height="1.42182" transform="rotate(46.6517 113.001 -373.434)" fill="#6E7D33"/>
<rect x="130.034" y="-389.512" width="1074.77" height="1.42182" transform="rotate(46.6517 130.034 -389.512)" fill="#6E7D33"/>
<rect x="147.066" y="-405.589" width="1074.77" height="1.42182" transform="rotate(46.6517 147.066 -405.589)" fill="#6E7D33"/>
</g>
<defs>
<clipPath id="clip0_912_175">
<rect width="161" height="866" fill="white"/>
</clipPath>
</defs>
</svg>
