<?xml version="1.0" encoding="utf-8"?>
<!-- Generator: Adobe Illustrator 26.0.1, SVG Export Plug-In . SVG Version: 6.00 Build 0)  -->
<svg version="1.1" id="Слой_1" xmlns="http://www.w3.org/2000/svg" xmlns:xlink="http://www.w3.org/1999/xlink" x="0px" y="0px"
	 viewBox="0 0 628 128" style="enable-background:new 0 0 628 128;" xml:space="preserve">
<style type="text/css">
	.st0{fill:#F29A2F;}
</style>
<path class="st0" d="M0-205.3h7l9.6,45.8h1.9l9.6-45.8H39l9.6,45.8h1.9l9.6-45.8h7l-11.5,52.1H43.8L34.5-199h-1.9l-9.3,45.8H11.5
	L0-205.3z"/>
<path class="st0" d="M79-205.3h6.7v22.7h27.8v-22.7h6.7v52.1h-6.7v-23.1H85.7v23.1H79V-205.3z"/>
<path class="st0" d="M135.8-205.3h36.4v6.3h-29.7v16.4h24.1v6.3h-24.1v16.7h29.7v6.3h-36.4V-205.3z"/>
<path class="st0" d="M184.8-205.3H207c3,0,5.6,0.4,7.9,1.3c2.4,0.8,4.4,2,5.9,3.5c1.6,1.4,2.9,3.2,3.7,5.1c0.9,2,1.3,4.1,1.3,6.5
	c0,3.9-1.2,7.2-3.6,10c-2.4,2.8-5.8,4.6-10.2,5.6l13.4,20.1h-7.8l-12.6-19.3h-13.7v19.3h-6.7V-205.3z M207-178.9
	c4.1,0,7.2-0.9,9.2-2.8c2-1.9,3-4.3,3-7.3s-1-5.4-3-7.2c-2-1.9-5.1-2.8-9.2-2.8h-15.6v20.1H207z"/>
<path class="st0" d="M239.3-205.3h36.4v6.3h-29.7v16.4H270v6.3h-24.1v16.7h29.7v6.3h-36.4V-205.3z"/>
<path class="st0" d="M312.8-205.3h6.7v45.8h27.1v6.3h-33.8V-205.3z"/>
<path class="st0" d="M365.4-205.3h20.4l13.4,52.1h-6.7l-4.1-15.3h-25.6l-4.1,15.3h-6.7L365.4-205.3z M387-174.8l-6.3-24.2h-10
	l-6.3,24.2H387z"/>
<path class="st0" d="M410.3-205.3h9.6l25.5,43.9h0.1l-0.1-0.7v-43.2h6.7v52.1h-9.6l-25.5-43.9h-0.1l0.1,0.7v43.1l-6.7,0.1V-205.3z"
	/>
<path class="st0" d="M467.8-205.3h17.1c3.9,0,7.5,0.7,10.8,2c3.3,1.3,6.2,3.2,8.6,5.5c2.4,2.3,4.3,5.1,5.6,8.3c1.3,3.2,2,6.6,2,10.3
	c0,3.7-0.7,7.1-2,10.3c-1.3,3.2-3.2,5.9-5.6,8.3c-2.4,2.3-5.3,4.2-8.6,5.5c-3.3,1.3-6.9,2-10.8,2h-17.1V-205.3z M484.9-159.6
	c3.1,0,5.8-0.5,8.3-1.4c2.5-1,4.7-2.4,6.5-4.1c1.8-1.8,3.2-3.9,4.2-6.3c1-2.4,1.5-5.1,1.5-8c0-2.9-0.5-5.5-1.5-7.9
	c-1-2.4-2.4-4.5-4.2-6.3c-1.8-1.8-3.9-3.2-6.5-4.1c-2.5-1-5.2-1.5-8.3-1.5h-10.4v39.4H484.9z"/>
<path class="st0" d="M564.2-151.8c-2.7,0-5.2-0.5-7.5-1.5c-2.3-0.9-4.3-2.2-6-3.9c-1.7-1.7-3-3.6-4-5.9c-0.9-2.3-1.4-4.7-1.4-7.4
	c0-2.6,0.5-5,1.4-7.3c1-2.3,2.3-4.2,4-5.9c1.7-1.7,3.7-3,6-3.9c2.3-1,4.8-1.5,7.5-1.5c0.8,0,1.5,0,1.9,0.1c0.5,0,0.8,0.1,0.9,0.2
	v-0.1l-0.4-0.7l-6.5-9.7v-6.3h30v6.3H568v0.1l30,45.7h-7.8l-7.4-11.8l-0.3-0.4h-0.1c-0.4,1.9-1.2,3.7-2.2,5.4
	c-1,1.7-2.3,3.2-3.8,4.4c-1.5,1.2-3.3,2.2-5.3,2.9C569-152.1,566.8-151.8,564.2-151.8z M564.2-158.5c3.6,0,6.4-1.1,8.6-3.3
	c2.2-2.2,3.3-5.1,3.3-8.6c0-3.6-1.1-6.4-3.3-8.6c-2.2-2.2-5-3.3-8.6-3.3c-3.6,0-6.4,1.1-8.6,3.3c-2.2,2.2-3.3,5.1-3.3,8.6
	c0,3.6,1.1,6.4,3.3,8.6C557.8-159.5,560.7-158.5,564.2-158.5z"/>
<path class="st0" d="M26.9-77.3c-2.4,0-4.5-0.2-6.4-0.7c-1.9-0.4-3.5-1-5-1.8c-1.4-0.8-2.7-1.7-3.8-2.6c-1.1-1-2-2-2.7-3.1
	c-1.8-2.4-3-5.1-3.6-8.2H12c0.5,1.9,1.4,3.6,2.7,5.1c1.1,1.3,2.6,2.5,4.5,3.5c1.9,1,4.5,1.5,7.6,1.5c2.2,0,4.2-0.2,5.8-0.7
	c1.6-0.5,3-1.1,4-1.9c1.1-0.8,1.9-1.8,2.4-2.9c0.5-1.1,0.8-2.2,0.8-3.4c0-1.6-0.5-2.9-1.4-3.9c-0.9-1-2.1-1.9-3.6-2.7
	c-1.5-0.7-3.3-1.4-5.2-1.9c-1.9-0.5-3.9-1.1-5.9-1.6c-2-0.6-3.9-1.3-5.9-2c-1.9-0.7-3.7-1.7-5.2-2.8c-1.5-1.1-2.8-2.4-3.7-4
	c-0.9-1.6-1.3-3.6-1.3-6c0-1.9,0.4-3.8,1.3-5.6c0.9-1.8,2.1-3.4,3.7-4.8c1.6-1.4,3.5-2.5,5.8-3.3c2.3-0.8,4.9-1.3,7.8-1.3
	c2.2,0,4.1,0.2,5.9,0.7c1.8,0.4,3.3,0.9,4.7,1.6c1.3,0.6,2.5,1.4,3.5,2.3c1,0.9,1.9,1.8,2.6,2.7c1.6,2.1,2.8,4.5,3.4,7.2h-6.7
	c-0.4-1.5-1.2-2.9-2.4-4.1c-1-1-2.3-1.9-4.1-2.8c-1.7-0.9-4-1.3-6.9-1.3c-1.9,0-3.6,0.2-5.1,0.7c-1.5,0.4-2.7,1.1-3.8,1.9
	c-1,0.8-1.7,1.7-2.2,2.8c-0.5,1-0.7,2.1-0.7,3.2c0,2,0.8,3.6,2.4,4.8c1.6,1.1,3.6,2.1,5.9,3c2.4,0.8,5,1.6,7.8,2.3
	c2.8,0.7,5.4,1.6,7.8,2.8c2.4,1.1,4.4,2.7,6,4.5c1.6,1.9,2.4,4.4,2.4,7.4c0,2-0.4,4-1.3,5.9c-0.8,1.8-2.1,3.4-3.8,4.8
	c-1.7,1.4-3.7,2.5-6.2,3.3C32.8-77.8,30-77.3,26.9-77.3z"/>
<path class="st0" d="M84-77.3c-3.9,0-7.5-0.7-10.8-2c-3.3-1.4-6.2-3.3-8.6-5.7c-2.4-2.5-4.3-5.4-5.6-8.7c-1.3-3.4-2-7.1-2-11.1
	c0-4,0.7-7.7,2-11c1.4-3.4,3.3-6.3,5.6-8.7c2.4-2.5,5.3-4.4,8.6-5.7c3.3-1.4,6.9-2.1,10.8-2.1c2.6,0,5,0.3,7.1,0.8
	c2.1,0.5,4,1.3,5.7,2.2c1.7,0.9,3.2,1.9,4.5,3.1c1.3,1.1,2.4,2.3,3.3,3.5c2.2,2.8,3.9,5.9,4.9,9.5h-6.7c-0.9-2.3-2.2-4.4-3.9-6.3
	c-0.7-0.8-1.6-1.6-2.5-2.3c-0.9-0.7-2-1.4-3.3-2c-1.2-0.6-2.6-1.1-4.2-1.4c-1.5-0.4-3.2-0.6-5-0.6c-3,0-5.7,0.5-8.2,1.6
	c-2.5,1-4.6,2.4-6.5,4.3c-1.8,1.8-3.2,4.1-4.2,6.7c-1,2.6-1.5,5.5-1.5,8.6c0,3.2,0.5,6.1,1.5,8.7c1,2.6,2.4,4.8,4.2,6.7
	c1.8,1.8,4,3.3,6.5,4.3c2.5,1,5.3,1.5,8.2,1.5c1.9,0,3.6-0.2,5.2-0.6c1.6-0.4,3-0.9,4.2-1.6c1.3-0.6,2.4-1.4,3.3-2.2
	c1-0.8,1.9-1.7,2.6-2.5c1.7-2,3-4.3,3.9-6.9h6.7c-1.2,3.8-2.9,7.1-5.2,10c-1,1.3-2.2,2.5-3.5,3.7c-1.3,1.2-2.8,2.3-4.5,3.2
	c-1.7,0.9-3.6,1.7-5.7,2.2C88.9-77.6,86.5-77.3,84-77.3z"/>
<path class="st0" d="M122.5-130.9h6.7v52.1h-6.7V-130.9z"/>
<path class="st0" d="M144.8-130.9h36.4v6.3h-29.7v16.4h24.1v6.3h-24.1v16.7h29.7v6.3h-36.4V-130.9z"/>
<path class="st0" d="M193.8-130.9h9.6L229-87h0.1l-0.1-0.7v-43.2h6.7v52.1h-9.6l-25.5-43.9h-0.1l0.1,0.7v43.1l-6.7,0.1V-130.9z"/>
<path class="st0" d="M275.8-77.3c-3.9,0-7.5-0.7-10.8-2c-3.3-1.4-6.2-3.3-8.6-5.7c-2.4-2.5-4.3-5.4-5.6-8.7c-1.3-3.4-2-7.1-2-11.1
	c0-4,0.7-7.7,2-11c1.4-3.4,3.3-6.3,5.6-8.7c2.4-2.5,5.3-4.4,8.6-5.7c3.3-1.4,6.9-2.1,10.8-2.1c2.6,0,5,0.3,7.1,0.8
	c2.1,0.5,4,1.3,5.7,2.2c1.7,0.9,3.2,1.9,4.5,3.1c1.3,1.1,2.4,2.3,3.3,3.5c2.2,2.8,3.9,5.9,4.9,9.5h-6.7c-0.9-2.3-2.3-4.4-3.9-6.3
	c-0.7-0.8-1.6-1.6-2.5-2.3c-0.9-0.7-2-1.4-3.3-2c-1.2-0.6-2.6-1.1-4.2-1.4c-1.5-0.4-3.2-0.6-5-0.6c-3,0-5.7,0.5-8.2,1.6
	c-2.5,1-4.6,2.4-6.5,4.3c-1.8,1.8-3.2,4.1-4.2,6.7c-1,2.6-1.5,5.5-1.5,8.6c0,3.2,0.5,6.1,1.5,8.7c1,2.6,2.4,4.8,4.2,6.7
	c1.8,1.8,4,3.3,6.5,4.3c2.5,1,5.3,1.5,8.2,1.5c1.9,0,3.6-0.2,5.2-0.6c1.6-0.4,3-0.9,4.2-1.6c1.3-0.6,2.4-1.4,3.3-2.2
	c1-0.8,1.9-1.7,2.6-2.5c1.7-2,3-4.3,3.9-6.9h6.7c-1.2,3.8-2.9,7.1-5.2,10c-1,1.3-2.2,2.5-3.5,3.7c-1.3,1.2-2.8,2.3-4.5,3.2
	c-1.7,0.9-3.6,1.7-5.7,2.2C280.7-77.6,278.3-77.3,275.8-77.3z"/>
<path class="st0" d="M314.3-130.9h36.4v6.3H321v16.4h24.1v6.3H321v16.7h29.7v6.3h-36.4V-130.9z"/>
<path class="st0" d="M387.8-130.9h10.8l15.6,33.5h3.3l15.6-33.5h10.8v52.1h-6.7v-44.7l0.1-0.7h-0.1L422-91.5h-12.2l-15.1-32.7h-0.1
	l0.1,0.7v44.7h-6.7V-130.9z"/>
<path class="st0" d="M459.4-130.9h36.4v6.3h-29.7v16.4h24.1v6.3h-24.1v16.7h29.7v6.3h-36.4V-130.9z"/>
<path class="st0" d="M508.4-130.9h36.4v6.3h-29.7v16.4h24.1v6.3h-24.1v16.7h29.7v6.3h-36.4V-130.9z"/>
<path class="st0" d="M570-124.6h-17.8v-6.3h42.3v6.3h-17.8v45.8H570V-124.6z"/>
<g>
	<g>
		
			<text transform="matrix(1 0 0 1 51.4694 401.0342)" style="fill:#6E7D33; font-family:'ArchivoExpanded-Regular'; font-size:49px;">POLA IRYGACYJNE I POMYSŁOWOŚĆ</text>
	</g>
	<g>
		
			<text transform="matrix(1 0 0 1 51.4694 337.4983)" style="fill:#6E7D33; font-family:'ArchivoExpanded-Regular'; font-size:79px;">GDZIE SPOTYKAJĄ SIĘ</text>
	</g>
</g>
<g>
	<g>
		<g>
			<path class="st0" d="M16.4,95.7V77.6h12.8c1.1,0,2.1,0.2,3,0.7c0.8,0.5,1.5,1.2,1.9,2c0.5,0.8,0.7,1.8,0.7,2.9
				c0,1.1-0.2,2.1-0.7,2.9c-0.5,0.9-1.1,1.5-1.9,2s-1.8,0.7-3,0.7h-9.9v6.8H16.4z M19.2,86.5h9.2c1.1,0,1.9-0.3,2.5-0.9
				c0.6-0.6,0.9-1.3,0.9-2.3c0-0.6-0.1-1.2-0.4-1.7c-0.3-0.5-0.6-0.9-1.1-1.1c-0.5-0.3-1.1-0.4-1.9-0.4h-9.2V86.5z"/>
			<path class="st0" d="M49.1,96c-2.3,0-4.4-0.4-6.1-1.1c-1.7-0.7-3-1.8-3.9-3.2c-0.9-1.4-1.4-3.1-1.4-5.1c0-2,0.5-3.7,1.4-5.1
				c0.9-1.4,2.2-2.4,3.9-3.2c1.7-0.7,3.7-1.1,6.1-1.1c2.4,0,4.4,0.4,6.1,1.1c1.7,0.7,3,1.8,3.9,3.2c0.9,1.4,1.4,3.1,1.4,5.1
				c0,2-0.5,3.7-1.4,5.1c-0.9,1.4-2.2,2.4-3.9,3.2C53.5,95.6,51.5,96,49.1,96z M49.1,93.6c1.2,0,2.3-0.1,3.4-0.4
				c1-0.3,1.9-0.7,2.7-1.2c0.8-0.5,1.4-1.2,1.8-2.1c0.4-0.8,0.6-1.8,0.6-3v-0.6c0-1.2-0.2-2.2-0.6-3c-0.4-0.8-1-1.5-1.8-2.1
				c-0.8-0.5-1.7-0.9-2.7-1.2c-1-0.3-2.1-0.4-3.4-0.4c-1.2,0-2.3,0.1-3.3,0.4c-1,0.3-1.9,0.6-2.7,1.2c-0.8,0.5-1.4,1.2-1.8,2.1
				c-0.4,0.8-0.6,1.8-0.6,3v0.6c0,1.2,0.2,2.2,0.6,3c0.4,0.8,1,1.5,1.8,2.1c0.8,0.5,1.7,0.9,2.7,1.2C46.8,93.5,47.9,93.6,49.1,93.6z
				"/>
			<path class="st0" d="M65.4,95.7V77.6h2.8v15.5h11.3v2.5H65.4z"/>
			<path class="st0" d="M81.3,95.7l9.2-18.1h3.3l9.2,18.1h-3.2l-2.2-4.3H86.5l-2.2,4.3H81.3z M87.6,89.1h8.9l-2.7-5.3
				c-0.1-0.2-0.2-0.5-0.4-0.8c-0.2-0.3-0.3-0.7-0.5-1.1c-0.2-0.4-0.3-0.7-0.5-1s-0.3-0.5-0.3-0.6H92c-0.2,0.4-0.4,0.8-0.6,1.3
				c-0.2,0.5-0.4,0.9-0.6,1.3c-0.2,0.4-0.4,0.7-0.5,1L87.6,89.1z"/>
			<path class="st0" d="M115.5,95.7V77.6h2.8v18.1H115.5z"/>
			<path class="st0" d="M124,95.7V77.6h13.6c1.2,0,2.2,0.2,3,0.7c0.8,0.5,1.4,1.1,1.8,2c0.4,0.8,0.6,1.7,0.6,2.8
				c0,1.1-0.3,2.1-0.9,3c-0.6,0.9-1.4,1.6-2.6,2l3.9,7.5h-3.2l-3.6-7h-9.8v7H124z M126.8,86.2h10c1,0,1.8-0.3,2.4-0.9
				c0.6-0.6,0.8-1.3,0.8-2.3c0-0.6-0.1-1.1-0.4-1.6c-0.3-0.5-0.6-0.8-1.1-1.1c-0.5-0.2-1.1-0.4-1.7-0.4h-10V86.2z"/>
			<path class="st0" d="M153.9,95.7v-7.5l-8.9-10.6h3.5l6.8,8.3h0.3l6.9-8.3h3.3l-9,10.6v7.5H153.9z"/>
			<path class="st0" d="M178.5,96c-3.6,0-6.4-0.8-8.2-2.3c-1.8-1.5-2.7-3.9-2.7-7c0-2.1,0.5-3.8,1.4-5.2c0.9-1.4,2.2-2.4,4-3.1
				c1.7-0.7,3.8-1.1,6.2-1.1c1.6,0,3.1,0.1,4.4,0.4c1.3,0.3,2.4,0.7,3.3,1.2c0.9,0.5,1.6,1.2,2.1,2.1c0.5,0.8,0.7,1.8,0.7,2.9h-2.8
				c0-0.8-0.2-1.5-0.6-2.1c-0.4-0.5-1-1-1.7-1.3c-0.7-0.3-1.5-0.5-2.4-0.6c-0.9-0.1-1.9-0.2-2.8-0.2c-1.2,0-2.3,0.1-3.4,0.3
				c-1,0.2-2,0.6-2.8,1.1c-0.8,0.5-1.4,1.2-1.9,2.1c-0.5,0.8-0.7,1.9-0.7,3V87c0,1.6,0.3,2.9,1,3.9c0.7,1,1.6,1.7,2.9,2.1
				c1.2,0.4,2.6,0.7,4.2,0.7c2,0,3.6-0.2,4.8-0.6c1.2-0.4,2.1-1,2.6-1.7c0.5-0.8,0.8-1.6,0.8-2.6v-0.4h-8.1V86h10.9v9.7h-1.9
				l-0.3-2.7c-0.6,0.7-1.4,1.3-2.3,1.7c-0.9,0.4-1.9,0.8-3.1,0.9C180.8,95.9,179.6,96,178.5,96z"/>
			<path class="st0" d="M193,95.7l9.2-18.1h3.3l9.2,18.1h-3.2l-2.2-4.3h-11.2l-2.2,4.3H193z M199.3,89.1h8.9l-2.7-5.3
				c-0.1-0.2-0.2-0.5-0.4-0.8c-0.2-0.3-0.3-0.7-0.5-1.1c-0.2-0.4-0.3-0.7-0.5-1c-0.1-0.3-0.3-0.5-0.3-0.6h-0.2
				c-0.2,0.4-0.4,0.8-0.6,1.3c-0.2,0.5-0.4,0.9-0.6,1.3c-0.2,0.4-0.4,0.7-0.5,1L199.3,89.1z"/>
			<path class="st0" d="M227.3,96c-2.3,0-4.3-0.4-5.9-1.1c-1.6-0.7-2.8-1.8-3.6-3.2c-0.8-1.4-1.2-3.1-1.2-5.1c0-3,0.9-5.3,2.8-6.9
				c1.9-1.6,4.5-2.4,8-2.4c2,0,3.8,0.3,5.3,0.8c1.5,0.5,2.7,1.3,3.6,2.4c0.8,1,1.3,2.3,1.3,3.9h-2.8c0-1.1-0.3-2-0.9-2.6
				c-0.6-0.7-1.5-1.2-2.6-1.5c-1.1-0.3-2.4-0.5-3.9-0.5c-1.5,0-2.9,0.2-4,0.7c-1.2,0.5-2.1,1.2-2.7,2.2c-0.7,1-1,2.2-1,3.6V87
				c0,1.5,0.3,2.8,1,3.7c0.7,1,1.6,1.7,2.8,2.2c1.2,0.5,2.6,0.7,4.1,0.7c1.5,0,2.8-0.2,3.9-0.5c1.1-0.3,2-0.8,2.6-1.5
				c0.6-0.7,0.9-1.5,0.9-2.6h2.8c0,1.5-0.4,2.8-1.3,3.8c-0.9,1-2,1.8-3.6,2.3C231,95.7,229.3,96,227.3,96z"/>
			<path class="st0" d="M248.5,95.7v-7.5l-8.9-10.6h3.5l6.8,8.3h0.3l6.9-8.3h3.3l-9,10.6v7.5H248.5z"/>
			<path class="st0" d="M264.1,96c-1.5,0-2.7-0.2-3.8-0.7c-1.1-0.5-1.9-1.1-2.4-2.1s-0.9-2.1-0.9-3.5v-0.3h2.8V90
				c0,1.1,0.4,2,1.1,2.6c0.8,0.6,1.8,0.9,3,0.9c1.3,0,2.4-0.4,3.2-1.2c0.8-0.8,1.2-1.9,1.2-3.5V77.6h2.8v10.9c0,1.7-0.3,3.1-0.9,4.2
				c-0.6,1.1-1.4,1.9-2.5,2.5S265.6,96,264.1,96z"/>
			<path class="st0" d="M276.4,95.7V77.6h2.8l11.3,11.5c0.2,0.2,0.4,0.4,0.7,0.7c0.3,0.3,0.5,0.6,0.8,0.9c0.3,0.3,0.5,0.5,0.7,0.8
				h0.2c0-0.3,0-0.7,0-1.2c0-0.5,0-0.9,0-1.3V77.6h2.8v18.1h-2.6l-11.4-11.6c-0.4-0.4-0.8-0.8-1.2-1.3c-0.4-0.5-0.8-0.8-1-1.1h-0.2
				c0,0.3,0,0.7,0,1.3s0,1.1,0,1.7v11.1H276.4z"/>
			<path class="st0" d="M301.2,95.7V77.6H319v2.4h-14.9v5.2h13.4v2.4h-13.4v5.6h15.1v2.4H301.2z"/>
			<path class="st0" d="M332.9,95.7V77.6h2.8v18.1H332.9z"/>
			<path class="st0" d="M350.1,95.7V77.6h12.8c1.1,0,2.1,0.2,3,0.7c0.8,0.5,1.5,1.2,1.9,2c0.5,0.8,0.7,1.8,0.7,2.9
				c0,1.1-0.2,2.1-0.7,2.9c-0.5,0.9-1.1,1.5-1.9,2c-0.8,0.5-1.8,0.7-3,0.7H353v6.8H350.1z M353,86.5h9.2c1.1,0,1.9-0.3,2.5-0.9
				c0.6-0.6,0.9-1.3,0.9-2.3c0-0.6-0.1-1.2-0.4-1.7c-0.3-0.5-0.6-0.9-1.1-1.1c-0.5-0.3-1.1-0.4-1.9-0.4H353V86.5z"/>
			<path class="st0" d="M382.9,96c-2.3,0-4.4-0.4-6.1-1.1c-1.7-0.7-3-1.8-3.9-3.2c-0.9-1.4-1.4-3.1-1.4-5.1c0-2,0.5-3.7,1.4-5.1
				c0.9-1.4,2.2-2.4,3.9-3.2c1.7-0.7,3.7-1.1,6.1-1.1c2.4,0,4.4,0.4,6.1,1.1c1.7,0.7,3,1.8,3.9,3.2c0.9,1.4,1.4,3.1,1.4,5.1
				c0,2-0.5,3.7-1.4,5.1c-0.9,1.4-2.2,2.4-3.9,3.2C387.3,95.6,385.3,96,382.9,96z M382.9,93.6c1.2,0,2.3-0.1,3.4-0.4
				c1-0.3,1.9-0.7,2.7-1.2c0.8-0.5,1.4-1.2,1.8-2.1c0.4-0.8,0.6-1.8,0.6-3v-0.6c0-1.2-0.2-2.2-0.6-3c-0.4-0.8-1-1.5-1.8-2.1
				c-0.8-0.5-1.7-0.9-2.7-1.2c-1-0.3-2.1-0.4-3.4-0.4c-1.2,0-2.3,0.1-3.3,0.4c-1,0.3-1.9,0.6-2.7,1.2c-0.8,0.5-1.4,1.2-1.8,2.1
				c-0.4,0.8-0.6,1.8-0.6,3v0.6c0,1.2,0.2,2.2,0.6,3c0.4,0.8,1,1.5,1.8,2.1c0.8,0.5,1.7,0.9,2.7,1.2
				C380.6,93.5,381.7,93.6,382.9,93.6z"/>
			<path class="st0" d="M399.2,95.7V77.6h4.3l5.5,11.3c0.1,0.3,0.3,0.6,0.5,1s0.4,0.9,0.6,1.3c0.2,0.5,0.4,0.9,0.5,1.2h0.2
				c0.1-0.3,0.3-0.7,0.5-1.1c0.2-0.4,0.4-0.8,0.6-1.3c0.2-0.4,0.4-0.8,0.5-1.1l5.5-11.4h4.3v18.1h-2.9V84.1c0-0.3,0-0.7,0-1.1
				c0-0.4,0-0.8,0-1.2c0-0.4,0-0.8,0-1.1H419c-0.1,0.2-0.2,0.5-0.4,0.9c-0.1,0.3-0.3,0.7-0.4,1c-0.1,0.3-0.3,0.6-0.4,0.9L412,95.7
				h-2.8l-5.9-12.2c-0.2-0.3-0.3-0.7-0.5-1c-0.1-0.4-0.3-0.7-0.4-1c-0.1-0.3-0.2-0.6-0.3-0.8h-0.2c0,0.3,0,0.6,0,1s0,0.8,0,1.2
				s0,0.8,0,1.1v11.6H399.2z"/>
			<path class="st0" d="M434.2,95.7v-7.5l-8.9-10.6h3.5l6.8,8.3h0.3l6.9-8.3h3.3l-9,10.6v7.5H434.2z"/>
			<path class="st0" d="M456.8,96c-1.3,0-2.5-0.1-3.7-0.2c-1.2-0.2-2.2-0.4-3.1-0.8c-0.9-0.4-1.6-1-2.1-1.7
				c-0.5-0.7-0.8-1.7-0.8-2.8c0-0.1,0-0.2,0-0.2c0-0.1,0-0.1,0-0.2h2.9c0,0.1,0,0.2,0,0.3c0,0.1,0,0.2,0,0.4c0,0.6,0.3,1.2,0.8,1.6
				c0.5,0.4,1.3,0.8,2.3,1c1,0.2,2.2,0.3,3.6,0.3c0.6,0,1.3,0,1.9-0.1c0.6-0.1,1.2-0.2,1.7-0.3c0.5-0.1,1-0.3,1.4-0.5
				c0.4-0.2,0.7-0.5,1-0.8c0.2-0.3,0.4-0.7,0.4-1.1c0-0.6-0.2-1.1-0.6-1.4c-0.4-0.4-1-0.6-1.7-0.9c-0.7-0.2-1.6-0.4-2.5-0.6
				c-0.9-0.1-1.9-0.3-2.8-0.4c-1-0.1-1.9-0.3-2.8-0.6c-0.9-0.2-1.7-0.5-2.5-0.9c-0.7-0.4-1.3-0.9-1.7-1.5c-0.4-0.6-0.6-1.3-0.6-2.3
				c0-0.7,0.2-1.4,0.5-2c0.4-0.6,0.9-1.1,1.6-1.6c0.7-0.4,1.7-0.8,2.8-1c1.1-0.2,2.5-0.4,4.1-0.4c1.6,0,3,0.1,4.1,0.4
				c1.1,0.3,2,0.7,2.6,1.1c0.7,0.5,1.1,1,1.4,1.6c0.3,0.6,0.4,1.2,0.4,1.8v0.5h-2.8v-0.5c0-0.5-0.2-0.9-0.7-1.3
				c-0.4-0.4-1.1-0.7-1.9-0.9c-0.8-0.2-1.8-0.4-3-0.4c-1.4,0-2.6,0.1-3.5,0.3c-0.9,0.2-1.6,0.5-2.1,0.9c-0.5,0.4-0.7,0.8-0.7,1.3
				c0,0.5,0.2,0.9,0.6,1.2c0.4,0.3,1,0.6,1.7,0.8c0.7,0.2,1.6,0.4,2.5,0.5c0.9,0.1,1.8,0.3,2.8,0.5c1,0.2,1.9,0.4,2.8,0.6
				c0.9,0.2,1.7,0.5,2.5,0.9s1.3,0.9,1.7,1.5c0.4,0.6,0.6,1.4,0.6,2.2c0,1.4-0.4,2.5-1.2,3.3c-0.8,0.8-1.9,1.4-3.3,1.8
				C460.2,95.8,458.6,96,456.8,96z"/>
			<path class="st0" d="M467.7,90.7v-1.8l11.4-6.2v1.8L467.7,90.7z M470.5,95.7V77.6h2.8v15.5h11.3v2.5H470.5z"/>
			<path class="st0" d="M497.8,96c-2.3,0-4.4-0.4-6.1-1.1c-1.7-0.7-3-1.8-3.9-3.2c-0.9-1.4-1.4-3.1-1.4-5.1c0-2,0.5-3.7,1.4-5.1
				c0.9-1.4,2.2-2.4,3.9-3.2c1.7-0.7,3.7-1.1,6.1-1.1c2.4,0,4.4,0.4,6.1,1.1c1.7,0.7,3,1.8,3.9,3.2c0.9,1.4,1.4,3.1,1.4,5.1
				c0,2-0.5,3.7-1.4,5.1c-0.9,1.4-2.2,2.4-3.9,3.2C502.2,95.6,500.2,96,497.8,96z M497.8,93.6c1.2,0,2.3-0.1,3.4-0.4
				c1-0.3,1.9-0.7,2.7-1.2c0.8-0.5,1.4-1.2,1.8-2.1c0.4-0.8,0.6-1.8,0.6-3v-0.6c0-1.2-0.2-2.2-0.6-3c-0.4-0.8-1-1.5-1.8-2.1
				c-0.8-0.5-1.7-0.9-2.7-1.2c-1-0.3-2.1-0.4-3.4-0.4c-1.2,0-2.3,0.1-3.3,0.4c-1,0.3-1.9,0.6-2.7,1.2c-0.8,0.5-1.4,1.2-1.8,2.1
				c-0.4,0.8-0.6,1.8-0.6,3v0.6c0,1.2,0.2,2.2,0.6,3c0.4,0.8,1,1.5,1.8,2.1c0.8,0.5,1.7,0.9,2.7,1.2
				C495.5,93.5,496.6,93.6,497.8,93.6z"/>
			<path class="st0" d="M516.9,95.7l-6.3-18.1h3.1l4.2,12.4c0.1,0.2,0.2,0.5,0.3,0.8c0.1,0.3,0.2,0.7,0.3,1.1c0.1,0.4,0.2,0.7,0.3,1
				h0.2c0.1-0.2,0.1-0.4,0.2-0.7c0.1-0.3,0.1-0.5,0.2-0.8c0.1-0.3,0.1-0.5,0.2-0.8c0.1-0.2,0.1-0.5,0.2-0.6l3.8-12.4h4l3.8,12.4
				c0.1,0.2,0.2,0.5,0.2,0.8c0.1,0.3,0.2,0.7,0.3,1.1c0.1,0.4,0.2,0.7,0.2,1h0.2c0.1-0.2,0.1-0.4,0.2-0.7c0.1-0.3,0.2-0.5,0.2-0.8
				c0.1-0.3,0.2-0.5,0.2-0.7c0.1-0.2,0.1-0.4,0.2-0.6l4.2-12.4h2.8l-6.3,18.1h-3.7l-3.9-12.5c-0.1-0.2-0.2-0.5-0.2-0.8
				c-0.1-0.3-0.2-0.7-0.3-1c-0.1-0.4-0.2-0.7-0.2-1h-0.2c-0.1,0.3-0.2,0.6-0.2,1c-0.1,0.4-0.2,0.7-0.3,1c-0.1,0.3-0.2,0.6-0.2,0.8
				l-3.8,12.5H516.9z"/>
			<path class="st0" d="M552.9,96c-2.3,0-4.4-0.4-6.1-1.1c-1.7-0.7-3-1.8-3.9-3.2c-0.9-1.4-1.4-3.1-1.4-5.1c0-2,0.5-3.7,1.4-5.1
				c0.9-1.4,2.2-2.4,3.9-3.2c1.7-0.7,3.7-1.1,6.1-1.1c2.4,0,4.4,0.4,6.1,1.1c1.7,0.7,3,1.8,3.9,3.2c0.9,1.4,1.4,3.1,1.4,5.1
				c0,2-0.5,3.7-1.4,5.1c-0.9,1.4-2.2,2.4-3.9,3.2C557.3,95.6,555.3,96,552.9,96z M552.9,93.6c1.2,0,2.3-0.1,3.4-0.4
				c1-0.3,1.9-0.7,2.7-1.2c0.8-0.5,1.4-1.2,1.8-2.1c0.4-0.8,0.6-1.8,0.6-3v-0.6c0-1.2-0.2-2.2-0.6-3c-0.4-0.8-1-1.5-1.8-2.1
				c-0.8-0.5-1.7-0.9-2.7-1.2c-1-0.3-2.1-0.4-3.4-0.4c-1.2,0-2.3,0.1-3.3,0.4c-1,0.3-1.9,0.6-2.7,1.2c-0.8,0.5-1.4,1.2-1.8,2.1
				c-0.4,0.8-0.6,1.8-0.6,3v0.6c0,1.2,0.2,2.2,0.6,3c0.4,0.8,1,1.5,1.8,2.1c0.8,0.5,1.7,0.9,2.7,1.2
				C550.6,93.5,551.8,93.6,552.9,93.6z"/>
			<path class="st0" d="M577.7,96c-1.3,0-2.5-0.1-3.7-0.2c-1.2-0.2-2.2-0.4-3.1-0.8c-0.9-0.4-1.6-1-2.1-1.7
				c-0.5-0.7-0.8-1.7-0.8-2.8c0-0.1,0-0.2,0-0.2c0-0.1,0-0.1,0-0.2h2.9c0,0.1,0,0.2,0,0.3c0,0.1,0,0.2,0,0.4c0,0.6,0.3,1.2,0.8,1.6
				c0.5,0.4,1.3,0.8,2.3,1c1,0.2,2.2,0.3,3.6,0.3c0.6,0,1.3,0,1.9-0.1s1.2-0.2,1.7-0.3c0.5-0.1,1-0.3,1.4-0.5c0.4-0.2,0.7-0.5,1-0.8
				c0.2-0.3,0.4-0.7,0.4-1.1c0-0.6-0.2-1.1-0.6-1.4c-0.4-0.4-1-0.6-1.7-0.9c-0.7-0.2-1.6-0.4-2.5-0.6c-0.9-0.1-1.9-0.3-2.8-0.4
				c-1-0.1-1.9-0.3-2.8-0.6c-0.9-0.2-1.7-0.5-2.5-0.9c-0.7-0.4-1.3-0.9-1.7-1.5c-0.4-0.6-0.6-1.3-0.6-2.3c0-0.7,0.2-1.4,0.5-2
				c0.4-0.6,0.9-1.1,1.6-1.6c0.7-0.4,1.7-0.8,2.8-1c1.1-0.2,2.5-0.4,4.1-0.4c1.6,0,3,0.1,4.1,0.4c1.1,0.3,2,0.7,2.6,1.1
				c0.7,0.5,1.1,1,1.4,1.6c0.3,0.6,0.4,1.2,0.4,1.8v0.5h-2.8v-0.5c0-0.5-0.2-0.9-0.7-1.3c-0.4-0.4-1.1-0.7-1.9-0.9
				c-0.8-0.2-1.8-0.4-3-0.4c-1.4,0-2.6,0.1-3.5,0.3c-0.9,0.2-1.6,0.5-2.1,0.9c-0.5,0.4-0.7,0.8-0.7,1.3c0,0.5,0.2,0.9,0.6,1.2
				c0.4,0.3,1,0.6,1.7,0.8c0.7,0.2,1.6,0.4,2.5,0.5c0.9,0.1,1.8,0.3,2.8,0.5c1,0.2,1.9,0.4,2.8,0.6c0.9,0.2,1.7,0.5,2.5,0.9
				c0.7,0.4,1.3,0.9,1.7,1.5c0.4,0.6,0.6,1.4,0.6,2.2c0,1.4-0.4,2.5-1.2,3.3c-0.8,0.8-1.9,1.4-3.3,1.8C581.2,95.8,579.6,96,577.7,96
				z M575.5,76.2l3.1-3.5h3.2v0.1l-4,3.4H575.5z"/>
			<path class="st0" d="M601.5,96c-2.3,0-4.3-0.4-5.9-1.1c-1.6-0.7-2.8-1.8-3.6-3.2c-0.8-1.4-1.2-3.1-1.2-5.1c0-3,0.9-5.3,2.8-6.9
				c1.9-1.6,4.5-2.4,8-2.4c2,0,3.8,0.3,5.3,0.8c1.5,0.5,2.7,1.3,3.6,2.4c0.8,1,1.3,2.3,1.3,3.9h-2.8c0-1.1-0.3-2-0.9-2.6
				c-0.6-0.7-1.5-1.2-2.6-1.5c-1.1-0.3-2.4-0.5-3.9-0.5c-1.5,0-2.9,0.2-4,0.7c-1.2,0.5-2.1,1.2-2.7,2.2c-0.7,1-1,2.2-1,3.6V87
				c0,1.5,0.3,2.8,1,3.7c0.7,1,1.6,1.7,2.8,2.2c1.2,0.5,2.6,0.7,4.1,0.7c1.5,0,2.8-0.2,3.9-0.5c1.1-0.3,2-0.8,2.6-1.5
				c0.6-0.7,0.9-1.5,0.9-2.6h2.8c0,1.5-0.4,2.8-1.3,3.8c-0.9,1-2,1.8-3.6,2.3C605.3,95.7,603.5,96,601.5,96z M599.5,76.2l3-3.5h3.3
				v0.1l-4,3.4H599.5z"/>
		</g>
	</g>
	<g>
		<g>
			<path class="st0" d="M34.4,62.1c-5.9,0-10.3-1.2-13.2-3.7c-2.9-2.5-4.4-6.3-4.4-11.3c0-3.3,0.7-6.1,2.2-8.3
				c1.5-2.2,3.6-3.9,6.4-5.1c2.8-1.1,6.1-1.7,9.9-1.7c2.6,0,4.9,0.2,7,0.6c2.1,0.4,3.9,1.1,5.4,1.9c1.5,0.9,2.6,2,3.4,3.3
				c0.8,1.3,1.2,2.9,1.2,4.7h-4.5c0-1.4-0.3-2.5-1-3.3c-0.7-0.9-1.6-1.6-2.8-2.1c-1.2-0.5-2.5-0.8-3.9-1c-1.5-0.2-3-0.3-4.6-0.3
				c-1.9,0-3.7,0.2-5.4,0.6c-1.7,0.4-3.2,1-4.4,1.8c-1.3,0.8-2.3,1.9-3,3.3c-0.7,1.4-1.1,3-1.1,4.9v1c0,2.6,0.6,4.6,1.7,6.2
				c1.1,1.6,2.6,2.7,4.6,3.4c1.9,0.7,4.2,1.1,6.8,1.1c3.2,0,5.8-0.3,7.7-1c1.9-0.6,3.3-1.6,4.2-2.8c0.9-1.2,1.3-2.6,1.3-4.2v-0.6
				H34.7v-3.7h17.6v15.7h-3.1l-0.6-4.3c-1,1.2-2.3,2.1-3.8,2.8c-1.5,0.7-3.1,1.2-4.9,1.5C38.2,62,36.3,62.1,34.4,62.1z"/>
			<path class="st0" d="M61.1,61.6V32.5h14.8c3.5,0,6.6,0.6,9.1,1.7c2.5,1.1,4.4,2.7,5.8,4.9c1.4,2.1,2,4.8,2,8c0,3.2-0.7,5.8-2,8
				c-1.4,2.2-3.3,3.8-5.8,4.9c-2.5,1.1-5.5,1.7-9.1,1.7H61.1z M65.7,57.7h10.1c1.8,0,3.4-0.2,4.9-0.6c1.5-0.4,2.8-1,3.9-1.8
				c1.1-0.8,2-1.9,2.6-3.2c0.6-1.3,0.9-2.8,0.9-4.6v-1c0-1.8-0.3-3.3-0.9-4.6c-0.6-1.3-1.5-2.3-2.6-3.2c-1.1-0.8-2.4-1.4-3.9-1.8
				c-1.5-0.4-3.1-0.6-4.9-0.6H65.7V57.7z"/>
			<path class="st0" d="M97.5,61.6v-2.2l22.1-22.9H98.9v-3.9h28.5v2.2l-22.2,23h22.5v3.9H97.5z"/>
			<path class="st0" d="M134.8,61.6V32.5h4.6v29.1H134.8z"/>
			<path class="st0" d="M148.5,61.6V32.5h28.6v3.9h-24.1v8.3h21.7v3.9h-21.7v9h24.4v3.9H148.5z"/>
			<path class="st0" d="M213.2,62.1c-2.1,0-4-0.1-5.9-0.4c-1.9-0.3-3.5-0.7-5-1.3c-1.4-0.6-2.6-1.5-3.4-2.7
				c-0.8-1.2-1.2-2.7-1.2-4.6c0-0.1,0-0.3,0-0.4c0-0.1,0-0.2,0-0.3h4.6c0,0.1,0,0.3-0.1,0.5s0,0.4,0,0.7c0,1,0.4,1.9,1.3,2.6
				c0.9,0.7,2.1,1.2,3.7,1.6c1.6,0.3,3.6,0.5,5.8,0.5c1,0,2,0,3-0.1c1-0.1,1.9-0.3,2.8-0.5c0.9-0.2,1.7-0.5,2.3-0.8
				c0.7-0.4,1.2-0.8,1.6-1.3c0.4-0.5,0.6-1.1,0.6-1.8c0-1-0.3-1.7-1-2.3c-0.7-0.6-1.6-1-2.8-1.4c-1.2-0.4-2.5-0.6-4-0.9
				c-1.5-0.2-3-0.5-4.6-0.7c-1.6-0.2-3.1-0.6-4.5-0.9c-1.5-0.4-2.8-0.9-4-1.5c-1.2-0.6-2.1-1.4-2.8-2.4c-0.7-1-1-2.2-1-3.6
				c0-1.2,0.3-2.2,0.8-3.2c0.6-1,1.4-1.8,2.6-2.5c1.2-0.7,2.7-1.3,4.5-1.7c1.8-0.4,4-0.6,6.5-0.6c2.6,0,4.8,0.2,6.5,0.7
				c1.8,0.5,3.2,1.1,4.2,1.8c1.1,0.7,1.8,1.6,2.3,2.6c0.5,1,0.7,1.9,0.7,2.9v0.8h-4.5V40c0-0.8-0.4-1.4-1.1-2.1
				c-0.7-0.6-1.7-1.1-3.1-1.5c-1.3-0.4-2.9-0.6-4.8-0.6c-2.3,0-4.2,0.2-5.7,0.5c-1.5,0.3-2.6,0.8-3.3,1.4c-0.7,0.6-1.1,1.3-1.1,2.1
				c0,0.8,0.3,1.5,1,2c0.7,0.5,1.6,0.9,2.8,1.2c1.2,0.3,2.5,0.6,4,0.8c1.5,0.2,3,0.5,4.5,0.7c1.6,0.3,3.1,0.6,4.6,0.9
				c1.5,0.4,2.8,0.9,4,1.5c1.2,0.6,2.1,1.4,2.8,2.4c0.7,1,1,2.2,1,3.6c0,2.2-0.6,4-1.9,5.3c-1.3,1.3-3,2.3-5.3,2.8
				C218.7,61.8,216.1,62.1,213.2,62.1z"/>
			<path class="st0" d="M235.4,61.6V32.5H256c1.8,0,3.4,0.4,4.8,1.2c1.3,0.8,2.4,1.9,3.1,3.2c0.7,1.4,1.1,2.9,1.1,4.7
				c0,1.8-0.4,3.3-1.1,4.7c-0.7,1.4-1.8,2.4-3.1,3.2c-1.3,0.8-2.9,1.2-4.8,1.2h-16v11H235.4z M239.9,46.7h14.8
				c1.8,0,3.1-0.5,4.1-1.4c0.9-0.9,1.4-2.2,1.4-3.7c0-1-0.2-2-0.6-2.7c-0.4-0.8-1-1.4-1.8-1.8c-0.8-0.4-1.8-0.6-3-0.6h-14.8V46.7z"
				/>
			<path class="st0" d="M288.2,62.1c-3.8,0-7.1-0.6-9.8-1.7c-2.8-1.2-4.9-2.9-6.4-5.1c-1.5-2.2-2.2-5-2.2-8.2c0-3.3,0.7-6,2.2-8.3
				c1.5-2.2,3.6-3.9,6.4-5.1c2.8-1.2,6-1.7,9.8-1.7c3.8,0,7.1,0.6,9.8,1.7c2.7,1.2,4.9,2.9,6.3,5.1c1.5,2.2,2.2,5,2.2,8.3
				c0,3.2-0.7,6-2.2,8.2c-1.5,2.2-3.6,3.9-6.3,5.1C295.3,61.5,292,62.1,288.2,62.1z M288.2,58.2c1.9,0,3.7-0.2,5.4-0.6
				c1.7-0.4,3.1-1.1,4.3-1.9c1.2-0.9,2.2-2,2.9-3.3c0.7-1.4,1-3,1-4.8v-0.9c0-1.9-0.3-3.5-1-4.8c-0.7-1.3-1.7-2.4-2.9-3.3
				c-1.2-0.9-2.7-1.5-4.3-1.9c-1.7-0.4-3.5-0.6-5.4-0.6c-1.9,0-3.7,0.2-5.4,0.6c-1.7,0.4-3.1,1-4.4,1.9c-1.2,0.9-2.2,2-2.9,3.3
				c-0.7,1.3-1,2.9-1,4.8v0.9c0,1.9,0.3,3.5,1,4.8c0.7,1.4,1.6,2.5,2.9,3.3c1.3,0.9,2.7,1.5,4.4,1.9C284.5,58,286.3,58.2,288.2,58.2
				z"/>
			<path class="st0" d="M323.2,61.6v-25h-13.1v-4.1H341v4.1h-13.2v25H323.2z"/>
			<path class="st0" d="M356.5,61.6v-12l-14.4-17.1h5.6l11,13.3h0.5l11.1-13.3h5.3l-14.5,17.1v12H356.5z"/>
			<path class="st0" d="M380.9,61.6V32.5h4.6v16.7l19.6-16.7h6.1l-13.7,11.8l14.2,17.3h-5.9L394.1,47l-8.6,6.9v7.6H380.9z"/>
			<path class="st0" d="M412,61.6l14.8-29.1h5.3l14.8,29.1h-5.1l-3.5-6.9h-18.1l-3.5,6.9H412z M422.1,50.9h14.4l-4.3-8.6
				c-0.2-0.3-0.4-0.8-0.6-1.3c-0.3-0.6-0.5-1.1-0.8-1.7c-0.3-0.6-0.5-1.2-0.8-1.7c-0.2-0.5-0.4-0.8-0.5-1h-0.3c-0.3,0.6-0.6,1.3-1,2
				s-0.7,1.5-1,2.2c-0.3,0.7-0.6,1.2-0.8,1.6L422.1,50.9z"/>
			<path class="st0" d="M461.4,62.1c-2.3,0-4.4-0.4-6.1-1.1c-1.7-0.7-3-1.8-3.9-3.3c-0.9-1.5-1.4-3.4-1.4-5.7v-0.5h4.5v1
				c0,1.8,0.6,3.3,1.8,4.3c1.2,1,2.8,1.5,4.9,1.5c2.2,0,3.9-0.6,5.2-1.9c1.3-1.3,1.9-3.1,1.9-5.7V32.5h4.6v17.6c0,2.7-0.5,5-1.4,6.7
				c-0.9,1.8-2.2,3.1-4,4C465.8,61.7,463.8,62.1,461.4,62.1z"/>
			<path class="st0" d="M477.9,61.6l14.8-29.1h5.3l14.8,29.1h-5.1l-3.5-6.9h-18.1l-3.5,6.9H477.9z M488,50.9h14.4l-4.3-8.6
				c-0.2-0.3-0.4-0.8-0.6-1.3c-0.3-0.6-0.5-1.1-0.8-1.7c-0.3-0.6-0.5-1.2-0.8-1.7c-0.2-0.5-0.4-0.8-0.5-1h-0.3c-0.3,0.6-0.6,1.3-1,2
				s-0.7,1.5-1,2.2c-0.3,0.7-0.6,1.2-0.8,1.6L488,50.9z M510.7,69.4c-0.8,0-1.5-0.1-2.3-0.4c-0.7-0.3-1.4-0.7-1.8-1.3
				c-0.5-0.6-0.7-1.4-0.7-2.3c0-1,0.2-1.8,0.7-2.5c0.5-0.7,1-1.3,1.7-1.8h2.7v0.2c-0.5,0.3-0.9,0.7-1.4,1.3
				c-0.5,0.6-0.7,1.2-0.7,1.9c0,0.6,0.2,1.2,0.7,1.7c0.5,0.5,1.1,0.7,2.1,0.7h2.7v1.9c-0.5,0.2-1.1,0.3-1.8,0.4
				C511.9,69.4,511.3,69.4,510.7,69.4z"/>
			<path class="st0" d="M546.6,62.1c-2.1,0-4-0.1-5.9-0.4c-1.9-0.3-3.5-0.7-5-1.3c-1.4-0.6-2.6-1.5-3.4-2.7
				c-0.8-1.2-1.2-2.7-1.2-4.6c0-0.1,0-0.3,0-0.4c0-0.1,0-0.2,0-0.3h4.6c0,0.1,0,0.3-0.1,0.5c0,0.2,0,0.4,0,0.7c0,1,0.4,1.9,1.3,2.6
				c0.9,0.7,2.1,1.2,3.7,1.6c1.6,0.3,3.6,0.5,5.8,0.5c1,0,2,0,3-0.1c1-0.1,1.9-0.3,2.8-0.5c0.9-0.2,1.7-0.5,2.3-0.8
				c0.7-0.4,1.2-0.8,1.6-1.3c0.4-0.5,0.6-1.1,0.6-1.8c0-1-0.3-1.7-1-2.3c-0.7-0.6-1.6-1-2.8-1.4c-1.2-0.4-2.5-0.6-4-0.9
				c-1.5-0.2-3-0.5-4.6-0.7c-1.6-0.2-3.1-0.6-4.5-0.9c-1.5-0.4-2.8-0.9-4-1.5c-1.2-0.6-2.1-1.4-2.8-2.4c-0.7-1-1-2.2-1-3.6
				c0-1.2,0.3-2.2,0.8-3.2c0.6-1,1.4-1.8,2.6-2.5c1.2-0.7,2.7-1.3,4.5-1.7c1.8-0.4,4-0.6,6.5-0.6c2.6,0,4.8,0.2,6.5,0.7
				c1.8,0.5,3.2,1.1,4.2,1.8c1.1,0.7,1.8,1.6,2.3,2.6c0.5,1,0.7,1.9,0.7,2.9v0.8h-4.5V40c0-0.8-0.4-1.4-1.1-2.1
				c-0.7-0.6-1.7-1.1-3.1-1.5c-1.3-0.4-2.9-0.6-4.8-0.6c-2.3,0-4.2,0.2-5.7,0.5c-1.5,0.3-2.6,0.8-3.3,1.4c-0.7,0.6-1.1,1.3-1.1,2.1
				c0,0.8,0.3,1.5,1,2c0.7,0.5,1.6,0.9,2.8,1.2c1.2,0.3,2.5,0.6,4,0.8c1.5,0.2,3,0.5,4.5,0.7c1.6,0.3,3.1,0.6,4.6,0.9
				c1.5,0.4,2.8,0.9,4,1.5c1.2,0.6,2.1,1.4,2.8,2.4c0.7,1,1,2.2,1,3.6c0,2.2-0.6,4-1.9,5.3c-1.3,1.3-3,2.3-5.3,2.8
				C552.1,61.8,549.5,62.1,546.6,62.1z"/>
			<path class="st0" d="M568.8,61.6V32.5h4.6v29.1H568.8z"/>
			<path class="st0" d="M582.5,61.6V32.5h28.6v3.9h-24.1v8.3h21.7v3.9h-21.7v9h24.4v3.9H582.5z M607.8,69.4c-0.8,0-1.5-0.1-2.3-0.4
				c-0.7-0.3-1.4-0.7-1.8-1.3c-0.5-0.6-0.7-1.4-0.7-2.3c0-1,0.2-1.8,0.7-2.5c0.5-0.7,1-1.3,1.7-1.8h2.7v0.2
				c-0.5,0.3-0.9,0.7-1.4,1.3c-0.5,0.6-0.7,1.2-0.7,1.9c0,0.6,0.2,1.2,0.7,1.7c0.5,0.5,1.1,0.7,2.1,0.7h2.7v1.9
				c-0.5,0.2-1.1,0.3-1.8,0.4C609,69.4,608.4,69.4,607.8,69.4z"/>
		</g>
	</g>
</g>
</svg>
