<svg id="Слой_1" data-name="Слой 1" xmlns="http://www.w3.org/2000/svg" viewBox="0 0 321.99 244.01"><defs><style>.cls-1{fill:#f39b30;}</style></defs><path class="cls-1" d="M100.05,258.25Q73,248.53,39.11,248.52t-60.95,9.73V-14.24Q5.25-24,39.12-24t61,9.73Q127.16-4.52,161-4.52t61-9.73Q249-24,282.88-24t60.95,9.74v272.5q-27.09-9.72-60.95-9.73t-60.95,9.73Q194.84,268,161,268T100.05,258.25ZM59.43,191.1a159.37,159.37,0,0,1,40.62,8.76q27.09,9.73,61,9.73T222,199.86a159.46,159.46,0,0,1,40.62-8.76V35.39A158.61,158.61,0,0,0,222,44.15Q194.86,53.89,161,53.88t-60.95-9.73a159.37,159.37,0,0,0-40.62-8.76V191.1Z"/><path class="cls-1" d="M92.5,149.66a11.46,11.46,0,0,0,2-.76,14,14,0,0,1,11.87,0v7.91a14,14,0,0,0-11.87,0,14,14,0,0,1-11.87,0,14,14,0,0,0-11.87,0V148.9a14,14,0,0,1,11.87,0,11.89,11.89,0,0,0,2,.76v-21.1a11.12,11.12,0,0,1-2-.77,14,14,0,0,0-11.87,0v-7.91a14,14,0,0,1,11.87,0,13.1,13.1,0,0,0,5.94,1.32,14.09,14.09,0,0,0,4-.55Z"/><path class="cls-1" d="M118.21,134.39a14,14,0,0,1,11.87,0,11.89,11.89,0,0,0,2,.76v-14.5a14,14,0,0,0,4,.55,13,13,0,0,0,5.93-1.32,14,14,0,0,1,11.87,0v36.93a14,14,0,0,0-11.87,0,14,14,0,0,1-11.87,0,14,14,0,0,0-11.87,0Zm7.92,13.32a11.63,11.63,0,0,1,4,1.19,14.1,14.1,0,0,0,11.87,0,11.76,11.76,0,0,1,4-1.19v-6.6a12.23,12.23,0,0,0-4,1.19,14,14,0,0,1-11.87,0,12.1,12.1,0,0,0-4-1.19Zm19.78-14.51v-6.59a12,12,0,0,0-4,1.18,10.73,10.73,0,0,1-2,.77v6.59a11.46,11.46,0,0,0,2-.76A12,12,0,0,1,145.91,133.2Z"/><path class="cls-1" d="M165.69,119.88a14,14,0,0,1,11.87,0,14,14,0,0,0,11.87,0,14,14,0,0,1,11.87,0v7.91a14,14,0,0,0-11.87,0,14,14,0,0,1-11.87,0,11.85,11.85,0,0,0-3.95-1.18v6.59a11.86,11.86,0,0,1,3.95,1.19,14,14,0,0,0,11.87,0,14,14,0,0,1,11.87,0v22.42a14,14,0,0,0-11.87,0,14,14,0,0,1-11.87,0,14,14,0,0,0-11.87,0Zm7.92,27.83a11.63,11.63,0,0,1,3.95,1.19,14.1,14.1,0,0,0,11.87,0,11.76,11.76,0,0,1,4-1.19v-6.6a12.23,12.23,0,0,0-4,1.19,14,14,0,0,1-11.87,0,12.1,12.1,0,0,0-3.95-1.19Z"/><path class="cls-1" d="M225,127.79a14,14,0,0,0-11.87,0v-7.91a14,14,0,0,1,11.87,0,14,14,0,0,0,11.87,0,14,14,0,0,1,11.87,0v36.93a14,14,0,0,0-11.87,0,14,14,0,0,1-11.87,0,14,14,0,0,0-11.87,0V148.9a14,14,0,0,1,11.87,0,14.1,14.1,0,0,0,11.87,0,11.76,11.76,0,0,1,4-1.19v-6.6a12.23,12.23,0,0,0-4,1.19,14,14,0,0,1-11.87,0,14,14,0,0,0-11.87,0v-7.91a14,14,0,0,1,11.87,0,14,14,0,0,0,11.87,0,12,12,0,0,1,4-1.19v-6.59a12,12,0,0,0-4,1.18,14,14,0,0,1-11.87,0Z"/><path class="cls-1" d="M72.69,106.82a8.29,8.29,0,0,1,0-11.16,7.67,7.67,0,0,1,11.19.42,7.55,7.55,0,0,1,1.35,2.61h-2.4a4.77,4.77,0,0,0-1-1.5A5,5,0,0,0,78,95.69a4.77,4.77,0,0,0-3.64,1.56,5.62,5.62,0,0,0-1.46,4,5.52,5.52,0,0,0,1.5,4,4.82,4.82,0,0,0,3.6,1.56A5,5,0,0,0,82,105.14a4.79,4.79,0,0,0,1-1.65h2.4A7.45,7.45,0,0,1,84,106.28,7.37,7.37,0,0,1,78,109,7.15,7.15,0,0,1,72.69,106.82Z"/><path class="cls-1" d="M87,108.74v-2.25L96,96v0h-8.7V93.74H99.18V96l-9,10.47v0h9.3v2.25Z"/><path class="cls-1" d="M103.62,106.82a8.2,8.2,0,0,1,0-11.16,7.64,7.64,0,0,1,13.11,5.43v.9h-12.9a5.34,5.34,0,0,0,1.71,3.45,5,5,0,0,0,3.54,1.35,5.69,5.69,0,0,0,3.81-1.35,4.83,4.83,0,0,0,1.14-1.35h2.4a7.63,7.63,0,0,1-7.35,5A7.36,7.36,0,0,1,103.62,106.82Zm.27-6.93h10.29a4.86,4.86,0,0,0-1.65-3,5,5,0,0,0-3.45-1.21,5.14,5.14,0,0,0-3.48,1.21A4.94,4.94,0,0,0,103.89,99.89Z"/><path class="cls-1" d="M120,108.74v-15h2.4v2.4h0a4.55,4.55,0,0,1,1-1.26,5.27,5.27,0,0,1,3.6-1.29h1.8V96h-1.8a4.48,4.48,0,0,0-4.65,4.65v8.1Z"/><path class="cls-1" d="M130.23,93.74h2.55l2.7,12.75h.75l2.55-12.75h4.35l2.55,12.75h.75l2.7-12.75h2.55l-3.3,15h-4.65L141.18,96h-.45l-2.55,12.75h-4.65Z"/><path class="cls-1" d="M154.71,90.41a1.67,1.67,0,1,1,1.17.48A1.59,1.59,0,0,1,154.71,90.41Zm0,18.33v-15h2.4v15Z"/><path class="cls-1" d="M162.57,106.82a8.2,8.2,0,0,1,0-11.16,7.64,7.64,0,0,1,13.11,5.43v.9h-12.9a5.34,5.34,0,0,0,1.71,3.45,5,5,0,0,0,3.54,1.35,5.69,5.69,0,0,0,3.81-1.35,4.83,4.83,0,0,0,1.14-1.35h2.4a7.63,7.63,0,0,1-7.35,5A7.36,7.36,0,0,1,162.57,106.82Zm.27-6.93h10.29a4.86,4.86,0,0,0-1.65-3A5,5,0,0,0,168,95.69a5.14,5.14,0,0,0-3.48,1.21A4.94,4.94,0,0,0,162.84,99.89Z"/><path class="cls-1" d="M180.24,106.82a8.29,8.29,0,0,1,0-11.16,7.67,7.67,0,0,1,11.19.42,7.55,7.55,0,0,1,1.35,2.61h-2.4a4.77,4.77,0,0,0-1-1.5,5,5,0,0,0-3.81-1.5,4.77,4.77,0,0,0-3.64,1.56,5.62,5.62,0,0,0-1.46,4,5.52,5.52,0,0,0,1.5,4,4.82,4.82,0,0,0,3.6,1.56,5,5,0,0,0,3.93-1.65,4.79,4.79,0,0,0,1-1.65h2.4a7.45,7.45,0,0,1-1.38,2.79,7.37,7.37,0,0,1-6,2.76A7.15,7.15,0,0,1,180.24,106.82Z"/></svg>