<svg id="Слой_1" data-name="Слой 1" xmlns="http://www.w3.org/2000/svg" viewBox="0 0 321.99 244.01"><defs><style>.cls-1{fill:#f39b30;}</style></defs><path class="cls-1" d="M100.05,258.25Q73,248.53,39.11,248.52t-60.95,9.73V-14.24Q5.25-24,39.12-24t61,9.73Q127.16-4.52,161-4.52t61-9.73Q249-24,282.88-24t60.95,9.74v272.5q-27.09-9.72-60.95-9.73t-60.95,9.73Q194.84,268,161,268T100.05,258.25ZM59.43,191.1a159.37,159.37,0,0,1,40.62,8.76q27.09,9.73,61,9.73T222,199.86a159.46,159.46,0,0,1,40.62-8.76V35.39A158.61,158.61,0,0,0,222,44.15Q194.86,53.89,161,53.88t-60.95-9.73a159.37,159.37,0,0,0-40.62-8.76V191.1Z"/><path class="cls-1" d="M92.5,149.66a11.46,11.46,0,0,0,2-.76,14,14,0,0,1,11.87,0v7.91a14,14,0,0,0-11.87,0,14,14,0,0,1-11.87,0,14,14,0,0,0-11.87,0V148.9a14,14,0,0,1,11.87,0,11.89,11.89,0,0,0,2,.76v-21.1a11.12,11.12,0,0,1-2-.77,14.1,14.1,0,0,0-11.87,0v-7.91a14,14,0,0,1,11.87,0,13.1,13.1,0,0,0,5.94,1.32,14.09,14.09,0,0,0,4-.55Z"/><path class="cls-1" d="M118.21,134.39a14,14,0,0,1,11.87,0,11.07,11.07,0,0,0,2,.76v-14.5a14,14,0,0,0,4,.55,13,13,0,0,0,5.93-1.32,14,14,0,0,1,11.87,0v36.93a14,14,0,0,0-11.87,0,14,14,0,0,1-11.87,0,14,14,0,0,0-11.87,0Zm7.92,13.32a11.86,11.86,0,0,1,4,1.19,14,14,0,0,0,11.87,0,12,12,0,0,1,4-1.19v-6.6a12.23,12.23,0,0,0-4,1.19,14,14,0,0,1-11.87,0,12.1,12.1,0,0,0-4-1.19Zm19.78-14.51v-6.59a12,12,0,0,0-4,1.18,10.73,10.73,0,0,1-2,.77v6.59a10.7,10.7,0,0,0,2-.76A12,12,0,0,1,145.91,133.2Z"/><path class="cls-1" d="M165.69,119.88a14,14,0,0,1,11.87,0,14,14,0,0,0,11.87,0,14,14,0,0,1,11.87,0v7.91a14.1,14.1,0,0,0-11.87,0,14,14,0,0,1-11.87,0,11.85,11.85,0,0,0-3.95-1.18v6.59a11.86,11.86,0,0,1,3.95,1.19,14,14,0,0,0,11.87,0,14,14,0,0,1,11.87,0v22.42a14,14,0,0,0-11.87,0,14,14,0,0,1-11.87,0,14,14,0,0,0-11.87,0Zm7.92,27.83a11.86,11.86,0,0,1,3.95,1.19,14,14,0,0,0,11.87,0,12,12,0,0,1,4-1.19v-6.6a12.23,12.23,0,0,0-4,1.19,14,14,0,0,1-11.87,0,12.1,12.1,0,0,0-3.95-1.19Z"/><path class="cls-1" d="M248.78,156.81a14,14,0,0,0-11.87,0,14,14,0,0,1-11.87,0,14,14,0,0,0-11.87,0V148.9a14,14,0,0,1,11.87,0,14,14,0,0,0,11.87,0,12,12,0,0,1,4-1.19v-6.6a12.23,12.23,0,0,0-4,1.19,14,14,0,0,1-11.87,0,14,14,0,0,0-11.87,0V119.88a14,14,0,0,1,11.87,0,14,14,0,0,0,11.87,0,14,14,0,0,1,11.87,0Zm-7.91-30.2a12,12,0,0,0-4,1.18,14,14,0,0,1-11.87,0,11.85,11.85,0,0,0-3.95-1.18v6.59a11.86,11.86,0,0,1,3.95,1.19,14,14,0,0,0,11.87,0,12,12,0,0,1,4-1.19Z"/><path class="cls-1" d="M70.08,93.89v-3l4-3.15h2.4v21h-2.7V91Z"/><path class="cls-1" d="M79.68,103h2.85a4.53,4.53,0,0,0,.93,1.89,5.23,5.23,0,0,0,4.32,1.86,5.54,5.54,0,0,0,3.77-1.17,4.13,4.13,0,0,0,0-6.06,5.28,5.28,0,0,0-3.63-1.17H83.58V96l7-5.67,0,0h-9.9V87.74H94.38v2.55l-6.6,5.31-.27.21,0,0h.45a7.8,7.8,0,0,1,5.48,2,6.28,6.28,0,0,1,0,9.52,8.07,8.07,0,0,1-5.6,2,7.59,7.59,0,0,1-6.69-3.15A8.78,8.78,0,0,1,79.68,103Z"/><path class="cls-1" d="M107.28,108.74v-15h2.4V96h0a4.35,4.35,0,0,1,1.11-1.26,6,6,0,0,1,3.81-1.29,5.09,5.09,0,0,1,3.75,1.5,5.21,5.21,0,0,1,1.05,1.5h.15a6.13,6.13,0,0,1,1.26-1.5,6.34,6.34,0,0,1,4.29-1.5,5.12,5.12,0,0,1,4,1.74,6.8,6.8,0,0,1,1.56,4.71v8.85h-2.4V100a4.77,4.77,0,0,0-1-3.22,3.31,3.31,0,0,0-2.63-1.13,4.27,4.27,0,0,0-3.15,1.38,4.52,4.52,0,0,0-1.35,3.27v8.4h-2.4V100a4.77,4.77,0,0,0-1-3.22,3.31,3.31,0,0,0-2.63-1.13A4.27,4.27,0,0,0,111,97.07a4.52,4.52,0,0,0-1.35,3.27v8.4Z"/><path class="cls-1" d="M135.93,106.8a8.42,8.42,0,0,1,0-11.13,6.77,6.77,0,0,1,5.1-2.23,6.55,6.55,0,0,1,3.2.72,5.61,5.61,0,0,1,1.9,1.56l.27.45h0V93.74h2.4v15h-2.4v-2.4h0l-.27.42a5.15,5.15,0,0,1-1.86,1.54A6.58,6.58,0,0,1,141,109,6.71,6.71,0,0,1,135.93,106.8Zm1.76-9.55a6.18,6.18,0,0,0,0,8,5,5,0,0,0,7.29,0,6.21,6.21,0,0,0,0-8,5,5,0,0,0-7.29,0Z"/><path class="cls-1" d="M153,108.74v-15h2.4v2.4h0a4.55,4.55,0,0,1,1-1.26,5.27,5.27,0,0,1,3.6-1.29h1.8V96h-1.8a4.48,4.48,0,0,0-4.65,4.65v8.1Z"/><path class="cls-1" d="M165.69,106.82a8.29,8.29,0,0,1,0-11.16,7.67,7.67,0,0,1,11.19.42,7.55,7.55,0,0,1,1.35,2.61h-2.4a4.77,4.77,0,0,0-1-1.5,5,5,0,0,0-3.81-1.5,4.77,4.77,0,0,0-3.64,1.56,5.62,5.62,0,0,0-1.46,4,5.52,5.52,0,0,0,1.5,4,4.82,4.82,0,0,0,3.6,1.56,5,5,0,0,0,3.93-1.65,4.79,4.79,0,0,0,1-1.65h2.4a7.45,7.45,0,0,1-1.38,2.79,7.37,7.37,0,0,1-6,2.76A7.15,7.15,0,0,1,165.69,106.82Z"/><path class="cls-1" d="M182.58,106.8a8.42,8.42,0,0,1,0-11.13,6.77,6.77,0,0,1,5.1-2.23,6.55,6.55,0,0,1,3.2.72,5.61,5.61,0,0,1,1.9,1.56l.27.45h0V93.74h2.4v15h-2.4v-2.4h0l-.27.42a5.15,5.15,0,0,1-1.86,1.54,6.58,6.58,0,0,1-3.24.74A6.71,6.71,0,0,1,182.58,106.8Zm1.76-9.55a6.18,6.18,0,0,0,0,8,5,5,0,0,0,7.29,0,6.21,6.21,0,0,0,0-8,5,5,0,0,0-7.29,0Z"/></svg>