<svg id="Слой_1" data-name="Слой 1" xmlns="http://www.w3.org/2000/svg" viewBox="0 0 321.99 244.01"><defs><style>.cls-1{fill:#f39b30;}</style></defs><path class="cls-1" d="M100.05,258.25Q73,248.53,39.11,248.52t-60.95,9.73V-14.24Q5.25-24,39.12-24t61,9.73Q127.16-4.52,161-4.52t61-9.73Q249-24,282.88-24t60.95,9.74v272.5q-27.09-9.72-60.95-9.73t-60.95,9.73Q194.84,268,161,268T100.05,258.25ZM59.43,191.1a159.37,159.37,0,0,1,40.62,8.76q27.09,9.73,61,9.73T222,199.86a159.46,159.46,0,0,1,40.62-8.76V35.39A158.61,158.61,0,0,0,222,44.15Q194.86,53.89,161,53.88t-60.95-9.73a159.37,159.37,0,0,0-40.62-8.76V191.1Z"/><path class="cls-1" d="M187,168.13a10.73,10.73,0,0,0,2-.77,14,14,0,0,1,11.87,0v7.92a14,14,0,0,0-11.87,0,14,14,0,0,1-11.87,0,14,14,0,0,0-11.87,0v-7.92a14,14,0,0,1,11.87,0,11.12,11.12,0,0,0,2,.77V147a11.93,11.93,0,0,1-2-.77,14,14,0,0,0-11.87,0v-7.91a14,14,0,0,1,11.87,0,13.1,13.1,0,0,0,5.94,1.32,13.73,13.73,0,0,0,4-.56Z"/><path class="cls-1" d="M212.67,138.35a14,14,0,0,1,11.87,0,14,14,0,0,0,11.87,0,14,14,0,0,1,11.87,0v36.93a14,14,0,0,0-11.87,0,14,14,0,0,1-11.87,0,14,14,0,0,0-11.87,0Zm11.87,7.91a12.1,12.1,0,0,0-3.95-1.19v21.11a11.85,11.85,0,0,1,3.95,1.18,14,14,0,0,0,11.87,0,12,12,0,0,1,4-1.18V145.07a12.23,12.23,0,0,0-4,1.19,14,14,0,0,1-11.87,0Z"/><path class="cls-1" d="M92.43,103.55a10.55,10.55,0,0,0,2-.77,14,14,0,0,1,11.87,0v7.92a14,14,0,0,0-11.87,0,14,14,0,0,1-11.87,0,14,14,0,0,0-11.87,0v-7.92a14,14,0,0,1,11.87,0,10.83,10.83,0,0,0,2,.77V82.45a11.6,11.6,0,0,1-2-.77,14,14,0,0,0-11.87,0V73.77a14,14,0,0,1,11.87,0,13.1,13.1,0,0,0,5.94,1.32,13.66,13.66,0,0,0,4-.56Z"/><path class="cls-1" d="M153.76,110.7a14,14,0,0,0-11.87,0,14,14,0,0,1-11.87,0,14,14,0,0,0-11.87,0v-7.92a14,14,0,0,1,11.87,0,14,14,0,0,0,11.87,0,12,12,0,0,1,4-1.18V95a12,12,0,0,0-4,1.19,14,14,0,0,1-11.87,0,14,14,0,0,0-11.87,0V73.77a14,14,0,0,1,11.87,0,14,14,0,0,0,11.87,0,14,14,0,0,1,11.87,0Zm-7.91-30.21a12.23,12.23,0,0,0-4,1.19,14,14,0,0,1-11.87,0,12.1,12.1,0,0,0-4-1.19v6.6a11.63,11.63,0,0,1,4,1.19,14.1,14.1,0,0,0,11.87,0,11.76,11.76,0,0,1,4-1.19Z"/><path class="cls-1" d="M165.63,73.77a14,14,0,0,1,11.87,0,14,14,0,0,0,11.87,0,14,14,0,0,1,11.87,0V110.7a14,14,0,0,0-11.87,0,14,14,0,0,1-11.87,0,14,14,0,0,0-11.87,0Zm11.87,7.91a12.1,12.1,0,0,0-3.95-1.19V101.6a11.85,11.85,0,0,1,3.95,1.18,14,14,0,0,0,11.87,0,11.9,11.9,0,0,1,4-1.18V80.49a12.15,12.15,0,0,0-4,1.19,14,14,0,0,1-11.87,0Z"/><path class="cls-1" d="M248.72,110.7a14,14,0,0,0-11.87,0,14,14,0,0,1-11.87,0,14,14,0,0,0-11.87,0v-7.92a14,14,0,0,1,11.87,0,14,14,0,0,0,11.87,0,12,12,0,0,1,4-1.18V95a12,12,0,0,0-4,1.19,14,14,0,0,1-11.87,0,14,14,0,0,0-11.87,0V73.77a14,14,0,0,1,11.87,0,14,14,0,0,0,11.87,0,14,14,0,0,1,11.87,0Zm-7.91-30.21a12.23,12.23,0,0,0-4,1.19,14,14,0,0,1-11.87,0A12.1,12.1,0,0,0,221,80.49v6.6A11.63,11.63,0,0,1,225,88.28a14.1,14.1,0,0,0,11.87,0,11.76,11.76,0,0,1,4-1.19Z"/><path class="cls-1" d="M235.06,131.6a47.84,47.84,0,0,1-13.94-1.82,54.26,54.26,0,0,0-27.87,0,54.3,54.3,0,0,1-27.88,0V119.23a54.3,54.3,0,0,0,27.88,0,21.88,21.88,0,0,1,4.75-1.09,53.29,53.29,0,0,1,7.06-.69,89.34,89.34,0,0,1,11.31.51h0l4.75,1.09a54.26,54.26,0,0,0,27.87,0v10.73A47.77,47.77,0,0,1,235.06,131.6Z"/></svg>