<svg id="Слой_1" data-name="Слой 1" xmlns="http://www.w3.org/2000/svg" viewBox="0 0 321.99 244.01"><defs><style>.cls-1{fill:#f39b30;}</style></defs><path class="cls-1" d="M100.05,258.25Q73,248.53,39.11,248.52t-60.95,9.73V-14.24Q5.25-24,39.12-24t61,9.73Q127.16-4.52,161-4.52t61-9.73Q249-24,282.88-24t60.95,9.74v272.5q-27.09-9.72-60.95-9.73t-60.95,9.73Q194.84,268,161,268T100.05,258.25ZM59.43,191.1a159.37,159.37,0,0,1,40.62,8.76q27.09,9.73,61,9.73T222,199.86a159.46,159.46,0,0,1,40.62-8.76V35.39A158.61,158.61,0,0,0,222,44.15Q194.86,53.89,161,53.88t-60.95-9.73a159.37,159.37,0,0,0-40.62-8.76V191.1Z"/><path class="cls-1" d="M70.28,93.7v-3l4-3.15h2.4v21H74V90.85Z"/><path class="cls-1" d="M89.63,108.55v-21H92v12h3l4.8-6h2.85l-5.55,7,6,8h-3L95,101.8H92v6.75Z"/><path class="cls-1" d="M104.18,93.55h2.55l2.7,12.75h.75l2.55-12.75h4.35l2.55,12.75h.75l2.7-12.75h2.55l-3.3,15h-4.65L115.13,95.8h-.45l-2.55,12.75h-4.65Z"/><path class="cls-1" d="M128.66,90.22a1.67,1.67,0,1,1,1.17.48A1.59,1.59,0,0,1,128.66,90.22Zm0,18.33v-15H131v15Z"/><path class="cls-1" d="M136.52,106.63a8.2,8.2,0,0,1,0-11.16,7.64,7.64,0,0,1,13.11,5.43v.9h-12.9a5.34,5.34,0,0,0,1.71,3.45A5,5,0,0,0,142,106.6a5.69,5.69,0,0,0,3.81-1.35,4.83,4.83,0,0,0,1.14-1.35h2.4a7.63,7.63,0,0,1-7.35,4.95A7.36,7.36,0,0,1,136.52,106.63Zm.27-6.93h10.29a4.86,4.86,0,0,0-1.65-3A5,5,0,0,0,142,95.5a5.14,5.14,0,0,0-3.48,1.21A4.94,4.94,0,0,0,136.79,99.7Z"/><path class="cls-1" d="M151.58,95.8V93.55h1.95v-3.3h2.4v3.3h4.8V95.8h-4.8v10.5h4.95v2.25h-7.35V95.8Z"/><path class="cls-1" d="M163.88,108.55v-15h2.4V95.8h0a4.65,4.65,0,0,1,1.17-1.26,6.14,6.14,0,0,1,3.9-1.29A5.74,5.74,0,0,1,175.75,95a6.6,6.6,0,0,1,1.63,4.73v8.85H175v-8.7a4.47,4.47,0,0,0-1.08-3.26,4,4,0,0,0-3-1.09,4.41,4.41,0,0,0-3.36,1.36,5,5,0,0,0-1.29,3.59v8.1Z"/><path class="cls-1" d="M181.46,90.22a1.67,1.67,0,1,1,1.17.48A1.59,1.59,0,0,1,181.46,90.22Zm0,18.33v-15h2.4v15Z"/><path class="cls-1" d="M189.23,106.61a8.42,8.42,0,0,1,0-11.13,6.73,6.73,0,0,1,5.1-2.23,6.55,6.55,0,0,1,3.2.72,5.61,5.61,0,0,1,1.9,1.56l.27.45h0V93.55h2.4v15h-2.4v-2.4h0l-.27.42a5.25,5.25,0,0,1-1.86,1.54,6.58,6.58,0,0,1-3.24.74A6.74,6.74,0,0,1,189.23,106.61ZM191,97.06a6.18,6.18,0,0,0,0,8,5,5,0,0,0,7.29,0,6.21,6.21,0,0,0,0-8,5,5,0,0,0-7.29,0Z"/><path class="cls-1" d="M91.89,148.14a10.52,10.52,0,0,0,2-.76,14,14,0,0,1,11.87,0v7.91a14,14,0,0,0-11.87,0,14,14,0,0,1-11.87,0,14,14,0,0,0-11.87,0v-7.91a14,14,0,0,1,11.87,0,11.07,11.07,0,0,0,2,.76V127a11.89,11.89,0,0,1-2-.76,14,14,0,0,0-11.87,0v-7.92a14,14,0,0,1,11.87,0,13.1,13.1,0,0,0,5.94,1.32,13.66,13.66,0,0,0,4-.55Z"/><path class="cls-1" d="M153.22,155.29a14,14,0,0,0-11.87,0,14,14,0,0,1-11.87,0,14,14,0,0,0-11.87,0v-7.91a14,14,0,0,1,11.87,0,14,14,0,0,0,11.87,0,12,12,0,0,1,4-1.19V139.6a12,12,0,0,0-4,1.18,14,14,0,0,1-11.87,0,14.1,14.1,0,0,0-11.87,0V118.36a14,14,0,0,1,11.87,0,14,14,0,0,0,11.87,0,14,14,0,0,1,11.87,0Zm-7.91-30.2a12,12,0,0,0-4,1.19,14,14,0,0,1-11.87,0,11.86,11.86,0,0,0-3.95-1.19v6.59a12.1,12.1,0,0,1,3.95,1.19,14,14,0,0,0,11.87,0,12.23,12.23,0,0,1,4-1.19Z"/><path class="cls-1" d="M186.86,148.14a10.7,10.7,0,0,0,2-.76,14,14,0,0,1,11.87,0v7.91a14,14,0,0,0-11.87,0,14,14,0,0,1-11.87,0,14,14,0,0,0-11.87,0v-7.91a14,14,0,0,1,11.87,0,11.07,11.07,0,0,0,2,.76V127a11.89,11.89,0,0,1-2-.76,14,14,0,0,0-11.87,0v-7.92a14,14,0,0,1,11.87,0,13.1,13.1,0,0,0,5.94,1.32,13.73,13.73,0,0,0,4-.55Z"/><path class="cls-1" d="M218.51,139.47a13.23,13.23,0,0,0-5.94,1.31V118.36a13.1,13.1,0,0,1,5.94-1.32,14.09,14.09,0,0,1,2,.14v14.5a12.1,12.1,0,0,1,3.95,1.19,14,14,0,0,0,11.87,0,12.23,12.23,0,0,1,4-1.19v-14.5a14,14,0,0,1,2-.14,13,13,0,0,1,5.93,1.32v36.93a13,13,0,0,0-5.93-1.32,14,14,0,0,0-2,.14V139.6a12,12,0,0,0-4,1.18,14,14,0,0,1-11.87,0,11.85,11.85,0,0,0-3.95-1.18A14.11,14.11,0,0,0,218.51,139.47Z"/></svg>