<svg id="Слой_1" data-name="Слой 1" xmlns="http://www.w3.org/2000/svg" viewBox="0 0 321.99 244.01"><defs><style>.cls-1{fill:#f39b30;}</style></defs><path class="cls-1" d="M100.05,258.25Q73,248.53,39.11,248.52t-60.95,9.73V-14.24Q5.25-24,39.12-24t61,9.73Q127.16-4.52,161-4.52t61-9.73Q249-24,282.88-24t60.95,9.74v272.5q-27.09-9.72-60.95-9.73t-60.95,9.73Q194.84,268,161,268T100.05,258.25ZM59.43,191.1a159.37,159.37,0,0,1,40.62,8.76q27.09,9.73,61,9.73T222,199.86a159.46,159.46,0,0,1,40.62-8.76V35.39A158.61,158.61,0,0,0,222,44.15Q194.86,53.89,161,53.88t-60.95-9.73a159.37,159.37,0,0,0-40.62-8.76V191.1Z"/><path class="cls-1" d="M91.9,149.44a10.7,10.7,0,0,0,2-.76,14,14,0,0,1,11.87,0v7.91a14,14,0,0,0-11.87,0,14,14,0,0,1-11.87,0,14,14,0,0,0-11.87,0v-7.91a14,14,0,0,1,11.87,0,11.07,11.07,0,0,0,2,.76v-21.1a11.89,11.89,0,0,1-2-.76,14,14,0,0,0-11.87,0v-7.92a14,14,0,0,1,11.87,0A13.1,13.1,0,0,0,87.94,121a13.73,13.73,0,0,0,4-.55Z"/><path class="cls-1" d="M153.22,156.59a14,14,0,0,0-11.87,0,14,14,0,0,1-11.87,0,14,14,0,0,0-11.87,0v-7.91a14,14,0,0,1,11.87,0,14,14,0,0,0,11.87,0,12,12,0,0,1,4-1.19V140.9a12,12,0,0,0-4,1.18,14,14,0,0,1-11.87,0,14.1,14.1,0,0,0-11.87,0V119.66a14,14,0,0,1,11.87,0,14,14,0,0,0,11.87,0,14,14,0,0,1,11.87,0Zm-7.91-30.2a12,12,0,0,0-4,1.19,14,14,0,0,1-11.87,0,11.86,11.86,0,0,0-3.95-1.19V133a12.1,12.1,0,0,1,3.95,1.19,14,14,0,0,0,11.87,0,12.23,12.23,0,0,1,4-1.19Z"/><path class="cls-1" d="M200.7,156.59a14,14,0,0,0-11.87,0,14,14,0,0,1-11.87,0,14,14,0,0,0-11.87,0v-7.91a14,14,0,0,1,11.87,0,14,14,0,0,0,11.87,0,12,12,0,0,1,4-1.19V140.9a12,12,0,0,0-4,1.18,14,14,0,0,1-11.87,0,14.1,14.1,0,0,0-11.87,0V119.66a14,14,0,0,1,11.87,0,14,14,0,0,0,11.87,0,14,14,0,0,1,11.87,0Zm-7.91-30.2a12,12,0,0,0-4,1.19,14,14,0,0,1-11.87,0,11.86,11.86,0,0,0-4-1.19V133a12.1,12.1,0,0,1,4,1.19,14,14,0,0,0,11.87,0,12.23,12.23,0,0,1,4-1.19Z"/><path class="cls-1" d="M230.38,121a13,13,0,0,0,5.93-1.32,14,14,0,0,1,11.87,0v22.42a14.1,14.1,0,0,0-11.87,0,14,14,0,0,1-11.87,0,11.85,11.85,0,0,0-3.95-1.18v6.59a11.86,11.86,0,0,1,3.95,1.19,14,14,0,0,0,11.87,0,14,14,0,0,1,11.87,0v7.91a14,14,0,0,0-11.87,0,14,14,0,0,1-11.87,0,14,14,0,0,0-11.87,0V134.17a14,14,0,0,1,11.87,0,14,14,0,0,0,11.87,0,12.23,12.23,0,0,1,4-1.19v-6.59a12,12,0,0,0-4,1.19,14,14,0,0,1-11.87,0,14,14,0,0,0-11.87,0v-7.92a14,14,0,0,1,11.87,0A13.1,13.1,0,0,0,230.38,121Z"/><path class="cls-1" d="M71.18,104.31h2.55a4,4,0,0,0,.87,1.35A4.71,4.71,0,0,0,78.08,107a5.08,5.08,0,0,0,2.84-.63,1.89,1.89,0,0,0,.91-1.62,1.29,1.29,0,0,0-.37-.93,3.18,3.18,0,0,0-1.22-.69c-.56-.2-1-.36-1.48-.47s-1.06-.24-1.88-.4q-4.95-1-4.95-4.41a3.72,3.72,0,0,1,1.5-3,6.5,6.5,0,0,1,4.2-1.21,6.66,6.66,0,0,1,5.31,2.25,6.83,6.83,0,0,1,1.14,2.25H81.53a3.74,3.74,0,0,0-.78-1.11,5,5,0,0,0-5.56-.54,1.68,1.68,0,0,0-.86,1.35,1.3,1.3,0,0,0,.38.93,3.13,3.13,0,0,0,1.21.69c.56.2,1.06.35,1.49.46s1,.25,1.87.41q4.95,1,5,4.41A4,4,0,0,1,82.61,108a7.1,7.1,0,0,1-4.53,1.29,6.82,6.82,0,0,1-5.64-2.46A7.5,7.5,0,0,1,71.18,104.31Z"/><path class="cls-1" d="M87.56,90.63a1.67,1.67,0,1,1,1.17.48A1.59,1.59,0,0,1,87.56,90.63Zm0,18.33V94h2.4v15Z"/><path class="cls-1" d="M95.42,107a8.2,8.2,0,0,1,0-11.16,7.64,7.64,0,0,1,13.11,5.43v.9H95.63a5.34,5.34,0,0,0,1.71,3.45,5,5,0,0,0,3.54,1.35,5.69,5.69,0,0,0,3.81-1.35,4.83,4.83,0,0,0,1.14-1.35h2.4a7.63,7.63,0,0,1-7.35,5A7.36,7.36,0,0,1,95.42,107Zm.27-6.93H106a4.86,4.86,0,0,0-1.65-3,5,5,0,0,0-3.45-1.21,5.14,5.14,0,0,0-3.48,1.21A4.94,4.94,0,0,0,95.69,100.11Z"/><path class="cls-1" d="M111.83,109V94h2.4v2.4h0a4.55,4.55,0,0,1,1-1.26,5.27,5.27,0,0,1,3.6-1.29h1.8v2.4h-1.8a4.47,4.47,0,0,0-4.65,4.65V109Z"/><path class="cls-1" d="M123.23,114.66V94h2.4v2.4h0l.3-.45a5.12,5.12,0,0,1,1.83-1.52,6.58,6.58,0,0,1,3.24-.73,6.73,6.73,0,0,1,5.1,2.23,8.42,8.42,0,0,1,0,11.13,6.74,6.74,0,0,1-5.1,2.24,6.64,6.64,0,0,1-3.25-.74A4.67,4.67,0,0,1,126,107l-.3-.42h0v8.1Zm3.86-17.19a6.18,6.18,0,0,0,0,8,5,5,0,0,0,7.29,0,6.21,6.21,0,0,0,0-8,5,5,0,0,0-7.29,0Z"/><path class="cls-1" d="M141.56,90.63a1.67,1.67,0,1,1,1.17.48A1.59,1.59,0,0,1,141.56,90.63Zm0,18.33V94h2.4v15Z"/><path class="cls-1" d="M149.42,107a8.2,8.2,0,0,1,0-11.16,7.64,7.64,0,0,1,13.11,5.43v.9h-12.9a5.34,5.34,0,0,0,1.71,3.45,5,5,0,0,0,3.54,1.35,5.69,5.69,0,0,0,3.81-1.35,4.83,4.83,0,0,0,1.14-1.35h2.4a7.63,7.63,0,0,1-7.35,5A7.36,7.36,0,0,1,149.42,107Zm.27-6.93H160a4.86,4.86,0,0,0-1.65-3,5,5,0,0,0-3.45-1.21,5.14,5.14,0,0,0-3.48,1.21A4.94,4.94,0,0,0,149.69,100.11Z"/><path class="cls-1" d="M165.83,109V94h2.4v2.25h0A4.65,4.65,0,0,1,169.43,95a6.14,6.14,0,0,1,3.9-1.29,5.74,5.74,0,0,1,4.37,1.72,6.6,6.6,0,0,1,1.63,4.73V109h-2.4v-8.7A4.47,4.47,0,0,0,175.85,97a4,4,0,0,0-3-1.09,4.41,4.41,0,0,0-3.36,1.36,5,5,0,0,0-1.29,3.59V109Zm5.55-18.15,2.55-4.35h3v0l-3.45,4.32Z"/></svg>