<svg id="Слой_1" data-name="Слой 1" xmlns="http://www.w3.org/2000/svg" viewBox="0 0 321.99 244.01"><defs><style>.cls-1{fill:#f39b30;}</style></defs><path class="cls-1" d="M87.94,107.38a13.06,13.06,0,0,0,5.93-1.32,14,14,0,0,1,11.87,0v22.42a14,14,0,0,0-11.87,0,14,14,0,0,1-11.87,0,11.86,11.86,0,0,0-4-1.19v6.6a11.85,11.85,0,0,1,4,1.18,14,14,0,0,0,11.87,0,14,14,0,0,1,11.87,0V143a14,14,0,0,0-11.87,0A14,14,0,0,1,82,143a14,14,0,0,0-11.87,0V120.57a14,14,0,0,1,11.87,0,14.1,14.1,0,0,0,11.87,0,11.76,11.76,0,0,1,4-1.19v-6.6a12.23,12.23,0,0,0-4,1.19A14,14,0,0,1,82,114a14,14,0,0,0-11.87,0v-7.91a14,14,0,0,1,11.87,0A13.1,13.1,0,0,0,87.94,107.38Z"/><path class="cls-1" d="M117.61,106.06a14,14,0,0,1,11.87,0,14,14,0,0,0,11.87,0,14,14,0,0,1,11.87,0V143a14,14,0,0,0-11.87,0,14,14,0,0,1-11.87,0,14,14,0,0,0-11.87,0ZM129.48,114a12.1,12.1,0,0,0-3.95-1.19v21.11a11.85,11.85,0,0,1,3.95,1.18,14,14,0,0,0,11.87,0,12,12,0,0,1,4-1.18V112.78a12.23,12.23,0,0,0-4,1.19,14,14,0,0,1-11.87,0Z"/><path class="cls-1" d="M182.9,107.38a13.06,13.06,0,0,0,5.93-1.32,14,14,0,0,1,11.87,0v22.42a14,14,0,0,0-11.87,0,14,14,0,0,1-11.87,0,11.86,11.86,0,0,0-4-1.19v6.6a11.85,11.85,0,0,1,4,1.18,14,14,0,0,0,11.87,0,14,14,0,0,1,11.87,0V143a14,14,0,0,0-11.87,0A14,14,0,0,1,177,143a14,14,0,0,0-11.87,0V120.57a14,14,0,0,1,11.87,0,14.1,14.1,0,0,0,11.87,0,11.76,11.76,0,0,1,4-1.19v-6.6a12.23,12.23,0,0,0-4,1.19A14,14,0,0,1,177,114a14,14,0,0,0-11.87,0v-7.91a14,14,0,0,1,11.87,0A13.1,13.1,0,0,0,182.9,107.38Z"/><path class="cls-1" d="M218.51,127.16a13.1,13.1,0,0,0-5.94,1.32V106.06a13.1,13.1,0,0,1,5.94-1.32,14.21,14.21,0,0,1,2,.13v14.51a11.63,11.63,0,0,1,3.95,1.19,14.1,14.1,0,0,0,11.87,0,11.76,11.76,0,0,1,4-1.19V104.87a14,14,0,0,1,2-.13,13,13,0,0,1,5.93,1.32V143a13,13,0,0,0-5.93-1.32,14,14,0,0,0-2,.13V127.29a12,12,0,0,0-4,1.19,14,14,0,0,1-11.87,0,11.86,11.86,0,0,0-3.95-1.19A14.21,14.21,0,0,0,218.51,127.16Z"/><path class="cls-1" d="M100.05,258.25Q73,248.53,39.11,248.52t-60.95,9.73V-14.24Q5.25-24,39.12-24t61,9.73Q127.16-4.52,161-4.52t61-9.73Q249-24,282.88-24t60.95,9.74v272.5q-27.09-9.72-60.95-9.73t-60.95,9.73Q194.84,268,161,268T100.05,258.25ZM59.43,191.1a159.37,159.37,0,0,1,40.62,8.76q27.09,9.73,61,9.73T222,199.86a159.46,159.46,0,0,1,40.62-8.76V35.39A158.61,158.61,0,0,0,222,44.15Q194.86,53.89,161,53.88t-60.95-9.73a159.37,159.37,0,0,0-40.62-8.76V191.1Z"/></svg>