<?xml version="1.0" encoding="utf-8"?>
<!-- Generator: Adobe Illustrator 26.0.1, SVG Export Plug-In . SVG Version: 6.00 Build 0)  -->
<svg version="1.1" id="Слой_1" xmlns="http://www.w3.org/2000/svg" xmlns:xlink="http://www.w3.org/1999/xlink" x="0px" y="0px"
	 viewBox="0 0 50 50" style="enable-background:new 0 0 50 50;" xml:space="preserve">
<style type="text/css">
	.st0{fill:#6E7D33;}
	.st1{fill:#F29A2F;}
</style>
<rect x="59.6" y="8" class="st0" width="28.3" height="34"/>
<path class="st1" d="M17.5,48.3c-2.2-1.1-4.7-1.7-7.5-1.7s-5.3,0.6-7.5,1.7V1.7C4.7,0.6,7.2,0,10,0s5.3,0.6,7.5,1.7s4.7,1.7,7.5,1.7
	s5.3-0.6,7.5-1.7S37.2,0,40,0s5.3,0.6,7.5,1.7v46.7c-2.2-1.1-4.7-1.7-7.5-1.7s-5.3,0.6-7.5,1.7c-2.2,1-4.7,1.6-7.5,1.6
	S19.7,49.4,17.5,48.3z M12.5,36.8c1.8,0.2,3.5,0.7,5,1.5c2.2,1.1,4.7,1.7,7.5,1.7s5.3-0.6,7.5-1.7c1.5-0.8,3.2-1.3,5-1.5V10.2
	c-1.8,0.2-3.5,0.7-5,1.5c-2.2,1.1-4.7,1.7-7.5,1.7s-5.3-0.6-7.5-1.7c-1.5-0.8-3.2-1.3-5-1.5V36.8L12.5,36.8z"/>
</svg>
